M48
; DRILL file {KiCad (5.1.6)-1} date 06/04/20 11:34:25
; FORMAT={-:-/ absolute / inch / decimal}
; #@! TF.CreationDate,2020-06-04T11:34:25+02:00
; #@! TF.GenerationSoftware,Kicad,Pcbnew,(5.1.6)-1
; #@! TF.FileFunction,Plated,1,2,PTH
FMAT,2
INCH
T1C0.0157
T2C0.0295
T3C0.0315
T4C0.0354
T5C0.0394
T6C0.0433
T7C0.0579
%
G90
G05
T1
X2.71Y-5.55
X6.71Y-6.59
X7.73Y-6.47
X7.76Y-6.5
X7.82Y-6.835
X7.82Y-6.885
X8.8775Y-6.38
X8.92Y-6.41
X9.24Y-6.53
X10.0Y-6.56
X10.75Y-6.585
X11.51Y-6.615
X13.06Y-6.645
X13.435Y-6.67
X14.185Y-6.695
X14.94Y-6.725
T2
X4.2538Y-2.715
X4.3325Y-2.715
X4.4113Y-2.715
X4.49Y-2.715
T3
X13.91Y-3.95
X13.91Y-4.25
X5.39Y-4.7
X5.39Y-5.0
X13.16Y-3.2
X13.16Y-3.5
X11.74Y-4.7
X11.74Y-5.0
X3.4966Y-2.865
X3.595Y-2.865
X8.02Y-5.45
X8.02Y-5.75
X13.91Y-3.2
X13.91Y-3.5
X6.51Y-5.45
X6.51Y-5.75
X5.58Y-3.2
X5.58Y-3.5
X12.01Y-6.2
X12.01Y-6.5
X15.41Y-3.2
X15.41Y-3.5
X14.91Y-5.56
X15.21Y-5.56
X5.71Y-6.24
X5.71Y-6.84
X5.81Y-6.24
X5.81Y-6.84
X5.91Y-6.24
X5.91Y-6.84
X6.01Y-6.24
X6.01Y-6.84
X6.11Y-6.24
X6.11Y-6.84
X6.21Y-6.24
X6.21Y-6.84
X6.31Y-6.24
X6.31Y-6.84
X6.41Y-6.24
X6.41Y-6.84
X6.51Y-6.24
X6.51Y-6.84
X6.61Y-6.24
X6.61Y-6.84
X6.71Y-6.24
X6.71Y-6.84
X6.81Y-6.24
X6.81Y-6.84
X6.91Y-6.24
X6.91Y-6.84
X7.01Y-6.24
X7.01Y-6.84
X7.11Y-6.24
X7.11Y-6.84
X7.21Y-6.24
X7.21Y-6.84
X7.31Y-6.24
X7.31Y-6.84
X7.41Y-6.24
X7.41Y-6.84
X7.51Y-6.24
X7.51Y-6.84
X7.61Y-6.24
X7.61Y-6.84
X11.23Y-6.2
X11.23Y-6.5
X15.41Y-3.95
X15.41Y-4.25
X6.89Y-4.7
X6.89Y-5.0
X4.45Y-3.95
X4.45Y-4.25
X13.16Y-4.7
X13.16Y-5.0
X6.61Y-6.995
X6.7084Y-6.995
X15.41Y-4.7
X15.41Y-5.0
X7.09Y-3.2
X7.09Y-3.5
X11.18Y-5.46
X11.18Y-5.76
X9.73Y-3.95
X9.73Y-4.25
X2.24Y-2.865
X2.64Y-2.865
X6.92Y-5.9281
X6.92Y-6.125
X10.33Y-5.46
X10.33Y-5.76
X6.31Y-5.9281
X6.31Y-6.125
X2.16Y-4.7
X2.16Y-5.0
X7.65Y-4.7
X7.65Y-5.0
X2.95Y-3.95
X2.95Y-4.25
X13.91Y-4.7
X13.91Y-5.0
X4.08Y-3.2
X4.08Y-3.5
X8.78Y-5.45
X8.78Y-5.75
X7.46Y-3.95
X7.46Y-4.25
X12.02Y-5.46
X12.02Y-5.76
X13.16Y-3.95
X13.16Y-4.25
X2.925Y-2.535
X2.925Y-2.935
X7.84Y-3.2
X7.84Y-3.5
X3.25Y-2.535
X3.25Y-2.935
X5.54Y-6.2
X5.54Y-6.5
X6.14Y-4.7
X6.14Y-5.0
X3.33Y-3.2
X3.33Y-3.5
X8.4Y-4.7
X8.4Y-5.0
X3.7Y-3.95
X3.7Y-4.25
X4.26Y-5.45
X4.26Y-5.75
X5.2Y-3.95
X5.2Y-4.25
X2.34Y-5.44
X2.34Y-5.74
X10.48Y-3.95
X10.48Y-4.25
X13.15Y-5.46
X13.15Y-5.76
X14.66Y-3.2
X14.66Y-3.5
X2.475Y-2.5825
X2.775Y-2.5825
X9.77Y-7.236
X10.17Y-7.236
X3.89Y-4.7
X3.89Y-5.0
X9.35Y-3.2
X9.35Y-3.5
X9.16Y-4.7
X9.16Y-5.0
X11.23Y-3.95
X11.23Y-4.25
X9.54Y-5.46
X9.54Y-5.76
X6.71Y-3.95
X6.71Y-4.25
X3.51Y-5.45
X3.51Y-5.75
X4.83Y-3.2
X4.83Y-3.5
X13.91Y-5.46
X13.91Y-5.76
X8.97Y-3.95
X8.97Y-4.25
X8.6Y-3.2
X8.6Y-3.5
X6.52Y-6.055
X6.7121Y-6.055
X3.13Y-4.7
X3.13Y-5.0
X2.58Y-3.2
X2.58Y-3.5
X9.91Y-4.7
X9.91Y-5.0
X5.01Y-5.45
X5.01Y-5.75
X8.22Y-3.95
X8.22Y-4.25
X7.27Y-5.45
X7.27Y-5.75
X10.11Y-3.2
X10.11Y-3.5
X2.05Y-6.2
X2.05Y-6.5
X7.06Y-5.9866
X7.06Y-6.085
X14.66Y-6.21
X14.66Y-6.51
X2.08Y-3.95
X2.08Y-4.25
X13.56Y-6.21
X13.56Y-6.51
X14.66Y-5.46
X14.66Y-5.76
X14.66Y-3.95
X14.66Y-4.25
X4.63Y-4.7
X4.63Y-5.0
X11.85Y-3.2
X11.85Y-3.5
X10.69Y-4.7
X10.69Y-5.0
X2.475Y-2.4325
X2.775Y-2.4325
X14.66Y-4.7
X14.66Y-5.0
X6.33Y-3.2
X6.33Y-3.5
X5.76Y-5.45
X5.76Y-5.75
X10.92Y-3.2
X10.92Y-3.5
X10.48Y-6.2
X10.48Y-6.5
X1.83Y-3.2
X1.83Y-3.5
X5.95Y-3.95
X5.95Y-4.25
X9.72Y-6.2
X9.72Y-6.5
X3.08Y-2.535
X3.08Y-2.935
X3.36Y-6.2
X3.36Y-6.5
T4
X2.2375Y-2.5975
X2.2375Y-2.6975
T5
X9.235Y-7.06
X9.235Y-7.16
X9.335Y-7.06
X9.335Y-7.16
X9.435Y-7.06
X9.435Y-7.16
X3.45Y-2.615
X3.65Y-2.6154
T6
X10.83Y-7.06
X10.83Y-7.2372
X11.0859Y-7.06
X11.0859Y-7.2372
X10.33Y-7.06
X10.33Y-7.2372
X10.5859Y-7.06
X10.5859Y-7.2372
T7
X6.6116Y-3.2225
X6.8084Y-3.2028
X11.2316Y-4.7225
X11.4284Y-4.7028
X2.4766Y-3.9725
X2.6734Y-3.9528
X9.4366Y-4.7225
X9.6334Y-4.7028
X3.4116Y-4.7225
X3.6084Y-4.7028
X9.0616Y-5.4725
X9.2584Y-5.4528
X1.5516Y-3.9725
X1.7484Y-3.9528
X14.9178Y-5.8366
X14.9375Y-6.0334
X3.2266Y-3.9725
X3.4234Y-3.9528
X11.5116Y-6.2225
X11.7084Y-6.2028
X7.3666Y-3.2225
X7.5634Y-3.2028
X3.7866Y-5.4725
X3.9834Y-5.4528
X8.8766Y-3.2225
X9.0734Y-3.2028
X10.0016Y-6.2225
X10.1984Y-6.2028
X13.4366Y-3.9725
X13.6334Y-3.9528
X13.4366Y-5.4725
X13.6334Y-5.4528
X9.2516Y-3.9725
X9.4484Y-3.9528
X8.3016Y-5.4725
X8.4984Y-5.4528
X8.4966Y-3.9725
X8.6934Y-3.9528
X14.1866Y-6.2225
X14.3834Y-6.2028
X8.1216Y-3.2225
X8.3184Y-3.2028
X6.0366Y-5.4725
X6.2334Y-5.4528
X14.1866Y-4.7225
X14.3834Y-4.7028
X12.6866Y-4.7225
X12.8834Y-4.7028
X10.3866Y-3.2225
X10.5834Y-3.2028
X7.5466Y-5.4725
X7.7434Y-5.4528
X4.9116Y-4.7225
X5.1084Y-4.7028
X14.1866Y-5.4725
X14.3834Y-5.4528
X14.1866Y-3.9725
X14.3834Y-3.9528
X10.6666Y-5.4725
X10.8634Y-5.4528
X4.7266Y-3.9725
X4.9234Y-3.9528
X11.5116Y-3.9675
X11.7084Y-3.9478
X9.6316Y-3.2225
X9.8284Y-3.2028
X2.1066Y-3.2225
X2.3034Y-3.2028
X1.3566Y-3.2225
X1.5534Y-3.2028
X13.4366Y-4.7225
X13.6334Y-4.7028
X10.1916Y-4.7225
X10.3884Y-4.7028
X11.3266Y-3.2225
X11.5234Y-3.2028
X9.2466Y-6.2225
X9.4434Y-6.2028
X7.7416Y-3.9725
X7.9384Y-3.9528
X5.0716Y-6.2225
X5.2684Y-6.2028
X12.6866Y-3.9725
X12.8834Y-3.9528
X12.6866Y-5.4725
X12.8834Y-5.4528
X6.9866Y-3.9725
X7.1834Y-3.9528
X5.6666Y-4.7225
X5.8634Y-4.7028
X2.8566Y-3.2225
X3.0534Y-3.2028
X1.8216Y-5.4725
X2.0184Y-5.4528
X7.1716Y-4.7225
X7.3684Y-4.7028
X4.1616Y-4.7225
X4.3584Y-4.7028
X5.2866Y-5.4725
X5.4834Y-5.4528
X1.6416Y-4.7225
X1.8384Y-4.7028
X13.0616Y-6.2225
X13.2584Y-6.2028
X14.9366Y-3.9725
X15.1334Y-3.9528
X1.5516Y-6.2225
X1.7484Y-6.2028
X6.2316Y-3.9725
X6.4284Y-3.9528
X6.4216Y-4.7225
X6.6184Y-4.7028
X4.3566Y-3.2225
X4.5534Y-3.2028
X3.6066Y-3.2225
X3.8034Y-3.2028
X14.9366Y-4.7225
X15.1334Y-4.7028
X7.9266Y-4.7225
X8.1234Y-4.7028
X12.6866Y-3.2225
X12.8834Y-3.2028
X9.8166Y-5.4725
X10.0134Y-5.4528
X13.4366Y-3.2225
X13.6334Y-3.2028
X4.5366Y-5.4725
X4.7334Y-5.4528
X10.0066Y-3.9725
X10.2034Y-3.9528
X2.8566Y-6.2225
X3.0534Y-6.2028
X3.9766Y-3.9725
X4.1734Y-3.9528
X14.9366Y-3.2225
X15.1334Y-3.2028
X3.0366Y-5.4725
X3.2334Y-5.4528
X5.8566Y-3.2225
X6.0534Y-3.2028
X8.6816Y-4.7225
X8.8784Y-4.7028
X14.1866Y-3.2225
X14.3834Y-3.2028
X11.5116Y-5.4725
X11.7084Y-5.4528
X10.7616Y-3.9725
X10.9584Y-3.9528
X6.7916Y-5.4725
X6.9884Y-5.4528
X5.4766Y-3.9725
X5.6734Y-3.9528
X10.7566Y-6.2225
X10.9534Y-6.2028
X2.6616Y-4.7225
X2.8584Y-4.7028
X5.1066Y-3.2225
X5.3034Y-3.2028
T0
M30
