M48
; DRILL file {KiCad 5.1.6-c6e7f7d~87~ubuntu18.04.1} date Wed Aug  5 12:54:26 2020
; FORMAT={-:-/ absolute / metric / decimal}
; #@! TF.CreationDate,2020-08-05T12:54:26+02:00
; #@! TF.GenerationSoftware,Kicad,Pcbnew,5.1.6-c6e7f7d~87~ubuntu18.04.1
FMAT,2
METRIC
T1C0.400
T2C0.750
T3C0.800
T4C0.900
T5C1.000
T6C1.100
T7C1.470
%
G90
G05
T1
X68.834Y-140.97
X170.434Y-167.386
X196.342Y-164.338
X197.104Y-165.1
X198.628Y-173.609
X198.628Y-174.879
X225.488Y-162.052
X226.568Y-162.814
X234.696Y-165.862
X254.0Y-166.624
X273.05Y-167.259
X292.354Y-168.021
X331.724Y-168.783
X341.249Y-169.418
X360.299Y-170.053
X379.476Y-170.815
T2
X108.046Y-68.961
X110.046Y-68.961
X112.046Y-68.961
X114.046Y-68.961
T3
X56.896Y-72.771
X67.056Y-72.771
X46.482Y-81.28
X46.482Y-88.9
X334.01Y-138.684
X334.01Y-146.304
X218.44Y-81.28
X218.44Y-88.9
X54.864Y-119.38
X54.864Y-127.0
X353.314Y-100.33
X353.314Y-107.95
X117.602Y-119.38
X117.602Y-127.0
X88.813Y-72.771
X91.313Y-72.771
X175.006Y-119.38
X175.006Y-127.0
X232.664Y-119.38
X232.664Y-127.0
X89.154Y-138.43
X89.154Y-146.05
X103.632Y-81.28
X103.632Y-88.9
X372.364Y-81.28
X372.364Y-88.9
X160.782Y-81.28
X160.782Y-88.9
X74.93Y-100.33
X74.93Y-107.95
X132.08Y-100.33
X132.08Y-107.95
X247.142Y-100.33
X247.142Y-107.95
X391.414Y-119.38
X391.414Y-127.0
X334.264Y-100.33
X334.264Y-107.95
X160.274Y-150.575
X160.274Y-155.575
X223.012Y-138.43
X223.012Y-146.05
X248.158Y-183.794
X258.318Y-183.794
X175.768Y-150.575
X175.768Y-155.575
X189.484Y-100.33
X189.484Y-107.95
X334.264Y-119.38
X334.264Y-127.0
X108.204Y-138.43
X108.204Y-146.05
X165.354Y-138.43
X165.354Y-146.05
X283.972Y-138.684
X283.972Y-146.304
X353.314Y-138.684
X353.314Y-146.304
X85.344Y-157.48
X85.344Y-165.1
X372.364Y-100.33
X372.364Y-107.95
X300.99Y-81.28
X300.99Y-88.9
X266.192Y-157.48
X266.192Y-165.1
X136.906Y-119.38
X136.906Y-127.0
X251.714Y-119.38
X251.714Y-127.0
X62.865Y-61.785
X70.485Y-61.785
X65.532Y-81.28
X65.532Y-88.9
X180.086Y-81.28
X180.086Y-88.9
X237.49Y-81.28
X237.49Y-88.9
X79.502Y-119.38
X79.502Y-127.0
X208.788Y-100.33
X208.788Y-107.95
X266.192Y-100.33
X266.192Y-107.95
X194.31Y-119.38
X194.31Y-127.0
X334.264Y-81.28
X334.264Y-88.9
X122.682Y-81.28
X122.682Y-88.9
X391.414Y-81.28
X391.414Y-88.9
X93.98Y-100.33
X93.98Y-107.95
X145.034Y-158.496
X145.034Y-173.736
X147.574Y-158.496
X147.574Y-173.736
X150.114Y-158.496
X150.114Y-173.736
X152.654Y-158.496
X152.654Y-173.736
X155.194Y-158.496
X155.194Y-173.736
X157.734Y-158.496
X157.734Y-173.736
X160.274Y-158.496
X160.274Y-173.736
X162.814Y-158.496
X162.814Y-173.736
X165.354Y-158.496
X165.354Y-173.736
X167.894Y-158.496
X167.894Y-173.736
X170.434Y-158.496
X170.434Y-173.736
X172.974Y-158.496
X172.974Y-173.736
X175.514Y-158.496
X175.514Y-173.736
X178.054Y-158.496
X178.054Y-173.736
X180.594Y-158.496
X180.594Y-173.736
X183.134Y-158.496
X183.134Y-173.736
X185.674Y-158.496
X185.674Y-173.736
X188.214Y-158.496
X188.214Y-173.736
X190.754Y-158.496
X190.754Y-173.736
X193.294Y-158.496
X193.294Y-173.736
X151.13Y-100.33
X151.13Y-107.95
X74.295Y-64.389
X74.295Y-74.549
X167.894Y-177.673
X170.394Y-177.673
X184.658Y-138.43
X184.658Y-146.05
X242.316Y-138.684
X242.316Y-146.304
X285.242Y-157.48
X285.242Y-165.1
X353.314Y-119.38
X353.314Y-127.0
X127.254Y-138.43
X127.254Y-146.05
X305.308Y-138.684
X305.308Y-146.304
X372.364Y-138.684
X372.364Y-146.304
X256.794Y-81.28
X256.794Y-88.9
X140.716Y-157.48
X140.716Y-165.1
X391.414Y-100.33
X391.414Y-107.95
X165.608Y-153.797
X170.488Y-153.797
X98.806Y-119.38
X98.806Y-127.0
X155.956Y-119.38
X155.956Y-127.0
X213.36Y-119.38
X213.36Y-127.0
X271.526Y-119.38
X271.526Y-127.0
X59.436Y-138.176
X59.436Y-145.796
X62.865Y-65.596
X70.485Y-65.596
X84.582Y-81.28
X84.582Y-88.9
X141.732Y-81.28
X141.732Y-88.9
X199.136Y-81.28
X199.136Y-88.9
X227.838Y-100.33
X227.838Y-107.95
X372.364Y-119.38
X372.364Y-127.0
X285.242Y-100.33
X285.242Y-107.95
X78.232Y-64.389
X78.232Y-74.549
X372.364Y-157.734
X372.364Y-165.354
X353.314Y-81.28
X353.314Y-88.9
X52.832Y-100.33
X52.832Y-107.95
X113.03Y-100.33
X113.03Y-107.95
X170.434Y-100.33
X170.434Y-107.95
X82.55Y-64.389
X82.55Y-74.549
X146.304Y-138.43
X146.304Y-146.05
X203.708Y-138.43
X203.708Y-146.05
X262.382Y-138.684
X262.382Y-146.304
X52.07Y-157.48
X52.07Y-165.1
X277.368Y-81.28
X277.368Y-88.9
X344.424Y-157.734
X344.424Y-165.354
X246.888Y-157.48
X246.888Y-165.1
X305.054Y-157.48
X305.054Y-165.1
X378.714Y-141.224
X386.334Y-141.224
X298.196Y-119.38
X298.196Y-127.0
X179.324Y-152.059
X179.324Y-154.559
T4
X56.832Y-65.977
X56.832Y-68.516
T5
X87.63Y-66.421
X92.71Y-66.431
X234.569Y-179.324
X234.569Y-181.864
X237.109Y-179.324
X237.109Y-181.864
X239.649Y-179.324
X239.649Y-181.864
T6
X262.382Y-179.324
X262.382Y-183.824
X268.882Y-179.324
X268.882Y-183.824
X275.082Y-179.324
X275.082Y-183.824
X281.582Y-179.324
X281.582Y-183.824
T7
X285.282Y-119.952
X290.282Y-119.452
X196.636Y-100.902
X201.636Y-100.402
X379.389Y-119.952
X384.389Y-119.452
X234.863Y-158.052
X239.863Y-157.552
X115.229Y-139.002
X120.229Y-138.502
X331.764Y-158.052
X336.764Y-157.552
X322.239Y-81.852
X327.239Y-81.352
X86.654Y-119.952
X91.654Y-119.452
X322.239Y-100.902
X327.239Y-100.402
X210.86Y-139.002
X215.86Y-138.502
X292.394Y-139.002
X297.394Y-138.502
X292.394Y-100.775
X297.394Y-100.275
X201.335Y-119.952
X206.335Y-119.452
X360.339Y-100.902
X365.339Y-100.402
X215.813Y-100.902
X220.813Y-100.402
X39.41Y-158.052
X44.41Y-157.552
X360.339Y-158.052
X365.339Y-157.552
X225.465Y-81.852
X230.465Y-81.352
X341.289Y-100.902
X346.289Y-100.402
X62.905Y-100.902
X67.905Y-100.402
X234.99Y-100.902
X239.99Y-100.402
X139.105Y-100.902
X144.105Y-100.402
X322.239Y-119.952
X327.239Y-119.452
X46.268Y-139.002
X51.268Y-138.502
X53.507Y-81.852
X58.507Y-81.352
X254.04Y-158.052
X259.04Y-157.552
X134.279Y-139.002
X139.279Y-138.502
X341.289Y-81.852
X346.289Y-81.352
X322.239Y-139.002
X327.239Y-138.502
X220.512Y-119.952
X225.512Y-119.452
X379.389Y-100.902
X384.389Y-100.402
X105.704Y-119.952
X110.704Y-119.452
X91.607Y-81.852
X96.607Y-81.352
X244.642Y-81.852
X249.642Y-81.352
X230.164Y-139.002
X235.164Y-138.502
X124.754Y-119.952
X129.754Y-119.452
X72.557Y-158.052
X77.557Y-157.552
X167.934Y-81.852
X172.934Y-81.352
X378.913Y-148.249
X379.413Y-153.249
X187.111Y-81.852
X192.111Y-81.352
X129.707Y-81.852
X134.707Y-81.352
X360.339Y-81.852
X365.339Y-81.352
X81.955Y-100.902
X86.955Y-100.402
X254.167Y-100.902
X259.167Y-100.402
X158.282Y-100.902
X163.282Y-100.402
X273.217Y-158.052
X278.217Y-157.552
X341.289Y-119.952
X346.289Y-119.452
X77.129Y-139.002
X82.129Y-138.502
X172.506Y-139.002
X177.506Y-138.502
X163.108Y-119.952
X168.108Y-119.452
X341.289Y-139.002
X346.289Y-138.502
X239.689Y-119.952
X244.689Y-119.452
X41.696Y-119.952
X46.696Y-119.452
X263.819Y-81.852
X268.819Y-81.352
X249.341Y-139.002
X254.341Y-138.502
X177.459Y-100.902
X182.459Y-100.402
X360.339Y-119.952
X365.339Y-119.452
X143.931Y-119.952
X148.931Y-119.452
X128.818Y-158.052
X133.818Y-157.552
X96.179Y-139.002
X101.179Y-138.502
X292.394Y-158.052
X297.394Y-157.552
X287.695Y-81.852
X292.695Y-81.352
X379.389Y-81.852
X384.389Y-81.352
X101.005Y-100.902
X106.005Y-100.402
X258.866Y-119.952
X263.866Y-119.452
X273.344Y-100.902
X278.344Y-100.402
X72.557Y-81.852
X77.557Y-81.352
X34.457Y-81.852
X39.457Y-81.352
X153.329Y-139.002
X158.329Y-138.502
X191.683Y-139.002
X196.683Y-138.502
X270.931Y-139.002
X275.931Y-138.502
X182.158Y-119.952
X187.158Y-119.452
X360.339Y-139.002
X365.339Y-138.502
X206.288Y-81.852
X211.288Y-81.352
X67.604Y-119.952
X72.604Y-119.452
X148.757Y-81.852
X153.757Y-81.352
X110.657Y-81.852
X115.657Y-81.352
X39.41Y-100.902
X44.41Y-100.402
X120.055Y-100.902
X125.055Y-100.402
T0
M30
