G04 #@! TF.GenerationSoftware,KiCad,Pcbnew,(5.1.6)-1*
G04 #@! TF.CreationDate,2020-05-28T09:55:20+02:00*
G04 #@! TF.ProjectId,m0110a_qmk,6d303131-3061-45f7-916d-6b2e6b696361,rev?*
G04 #@! TF.SameCoordinates,Original*
G04 #@! TF.FileFunction,Profile,NP*
%FSLAX46Y46*%
G04 Gerber Fmt 4.6, Leading zero omitted, Abs format (unit mm)*
G04 Created by KiCad (PCBNEW (5.1.6)-1) date 2020-05-28 09:55:20*
%MOMM*%
%LPD*%
G01*
G04 APERTURE LIST*
G04 #@! TA.AperFunction,Profile*
%ADD10C,0.120000*%
G04 #@! TD*
G04 APERTURE END LIST*
D10*
X211407187Y-185166000D02*
G75*
G03*
X211407187Y-185166000I-2000000J0D01*
G01*
X27527000Y-185166000D02*
G75*
G03*
X27527000Y-185166000I-2000000J0D01*
G01*
X27542813Y-61214000D02*
G75*
G03*
X27542813Y-61214000I-2000000J0D01*
G01*
X211296000Y-61214000D02*
G75*
G03*
X211296000Y-61214000I-2000000J0D01*
G01*
X395573000Y-61214000D02*
G75*
G03*
X395573000Y-61214000I-2000000J0D01*
G01*
X372574576Y-61087000D02*
G75*
G03*
X372574576Y-61087000I-1500000J0D01*
G01*
X303232576Y-60960000D02*
G75*
G03*
X303232576Y-60960000I-1500000J0D01*
G01*
X218777576Y-60960000D02*
G75*
G03*
X218777576Y-60960000I-1500000J0D01*
G01*
X118574576Y-60960000D02*
G75*
G03*
X118574576Y-60960000I-1500000J0D01*
G01*
X34774000Y-60979424D02*
G75*
G03*
X34774000Y-60979424I-1500000J0D01*
G01*
X43048424Y-185039000D02*
G75*
G03*
X43048424Y-185039000I-1500000J0D01*
G01*
X118359424Y-185039000D02*
G75*
G03*
X118359424Y-185039000I-1500000J0D01*
G01*
X218562424Y-185166000D02*
G75*
G03*
X218562424Y-185166000I-1500000J0D01*
G01*
X303144424Y-185039000D02*
G75*
G03*
X303144424Y-185039000I-1500000J0D01*
G01*
X372467000Y-185039000D02*
G75*
G03*
X372467000Y-185039000I-1500000J0D01*
G01*
X395573000Y-185166000D02*
G75*
G03*
X395573000Y-185166000I-2000000J0D01*
G01*
X398907000Y-54229000D02*
G75*
G02*
X399542000Y-54864000I0J-635000D01*
G01*
X399542000Y-191516000D02*
G75*
G02*
X398907000Y-192151000I-635000J0D01*
G01*
X20066000Y-192151000D02*
G75*
G02*
X19558000Y-191643000I0J508000D01*
G01*
X19558000Y-54737000D02*
G75*
G02*
X20066000Y-54229000I508000J0D01*
G01*
X19558000Y-191643000D02*
X19558000Y-54737000D01*
X56261000Y-192151000D02*
X20066000Y-192151000D01*
X56261000Y-189992000D02*
X56261000Y-192151000D01*
X62357000Y-189992000D02*
X56261000Y-189992000D01*
X62357000Y-192151000D02*
X62357000Y-189992000D01*
X131191000Y-192151000D02*
X62357000Y-192151000D01*
X131191000Y-189865000D02*
X131191000Y-192151000D01*
X137287000Y-189865000D02*
X131191000Y-189865000D01*
X137287000Y-192151000D02*
X137287000Y-189865000D01*
X281686000Y-192151000D02*
X137287000Y-192151000D01*
X281686000Y-189865000D02*
X281686000Y-192151000D01*
X287909000Y-189865000D02*
X281686000Y-189865000D01*
X287909000Y-192151000D02*
X287909000Y-189865000D01*
X356743000Y-192151000D02*
X287909000Y-192151000D01*
X356743000Y-189865000D02*
X356743000Y-192151000D01*
X362585000Y-189865000D02*
X356743000Y-189865000D01*
X362585000Y-192151000D02*
X362585000Y-189865000D01*
X398907000Y-192151000D02*
X362585000Y-192151000D01*
X399542000Y-54864000D02*
X399542000Y-191516000D01*
X362585000Y-54229000D02*
X398907000Y-54229000D01*
X362585000Y-56261000D02*
X362585000Y-54229000D01*
X356616000Y-56261000D02*
X362585000Y-56261000D01*
X356616000Y-54229000D02*
X356616000Y-56261000D01*
X287909000Y-54229000D02*
X356616000Y-54229000D01*
X287909000Y-56261000D02*
X287909000Y-54229000D01*
X281686000Y-56261000D02*
X287909000Y-56261000D01*
X281686000Y-54229000D02*
X281686000Y-56261000D01*
X137287000Y-54229000D02*
X281686000Y-54229000D01*
X137287000Y-56261000D02*
X137287000Y-54229000D01*
X131064000Y-56261000D02*
X137287000Y-56261000D01*
X131064000Y-54229000D02*
X131064000Y-56261000D01*
X62357000Y-54229000D02*
X131064000Y-54229000D01*
X62357000Y-56261000D02*
X62357000Y-54229000D01*
X56261000Y-56261000D02*
X62357000Y-56261000D01*
X56261000Y-54229000D02*
X56261000Y-56261000D01*
X20066000Y-54229000D02*
X56261000Y-54229000D01*
M02*
