G04 #@! TF.GenerationSoftware,KiCad,Pcbnew,(5.1.5)-3*
G04 #@! TF.CreationDate,2020-05-18T15:37:40+02:00*
G04 #@! TF.ProjectId,m0110a_qmk,6d303131-3061-45f7-916d-6b2e6b696361,rev?*
G04 #@! TF.SameCoordinates,Original*
G04 #@! TF.FileFunction,Legend,Top*
G04 #@! TF.FilePolarity,Positive*
%FSLAX46Y46*%
G04 Gerber Fmt 4.6, Leading zero omitted, Abs format (unit mm)*
G04 Created by KiCad (PCBNEW (5.1.5)-3) date 2020-05-18 15:37:40*
%MOMM*%
%LPD*%
G04 APERTURE LIST*
%ADD10C,0.120000*%
%ADD11C,0.150000*%
G04 APERTURE END LIST*
D10*
X79542000Y-66259000D02*
X76922000Y-66259000D01*
X76922000Y-66259000D02*
X76922000Y-72679000D01*
X76922000Y-72679000D02*
X79542000Y-72679000D01*
X79542000Y-72679000D02*
X79542000Y-66259000D01*
X78232000Y-65369000D02*
X78232000Y-66259000D01*
X78232000Y-73569000D02*
X78232000Y-72679000D01*
X194624000Y-167116000D02*
G75*
G02X194624000Y-165116000I0J1000000D01*
G01*
X194624000Y-165116000D02*
X194624000Y-159656000D01*
X194624000Y-159656000D02*
X143704000Y-159656000D01*
X143704000Y-159656000D02*
X143704000Y-172576000D01*
X143704000Y-172576000D02*
X194624000Y-172576000D01*
X194624000Y-172576000D02*
X194624000Y-167116000D01*
X43374000Y-64346000D02*
X51114000Y-64346000D01*
X51114000Y-64346000D02*
X51114000Y-61686000D01*
X51114000Y-61686000D02*
X43374000Y-61686000D01*
X43374000Y-61686000D02*
X43374000Y-64346000D01*
X44324000Y-61686000D02*
X44324000Y-55686000D01*
X44324000Y-55686000D02*
X45084000Y-55686000D01*
X45084000Y-55686000D02*
X45084000Y-61686000D01*
X44384000Y-61686000D02*
X44384000Y-55686000D01*
X44504000Y-61686000D02*
X44504000Y-55686000D01*
X44624000Y-61686000D02*
X44624000Y-55686000D01*
X44744000Y-61686000D02*
X44744000Y-55686000D01*
X44864000Y-61686000D02*
X44864000Y-55686000D01*
X44984000Y-61686000D02*
X44984000Y-55686000D01*
X44324000Y-64743071D02*
X44324000Y-64346000D01*
X45084000Y-64743071D02*
X45084000Y-64346000D01*
X44324000Y-67216000D02*
X44324000Y-66828929D01*
X45084000Y-67216000D02*
X45084000Y-66828929D01*
X45974000Y-64346000D02*
X45974000Y-61686000D01*
X46864000Y-61686000D02*
X46864000Y-55686000D01*
X46864000Y-55686000D02*
X47624000Y-55686000D01*
X47624000Y-55686000D02*
X47624000Y-61686000D01*
X46864000Y-64743071D02*
X46864000Y-64346000D01*
X47624000Y-64743071D02*
X47624000Y-64346000D01*
X46864000Y-67283071D02*
X46864000Y-66828929D01*
X47624000Y-67283071D02*
X47624000Y-66828929D01*
X48514000Y-64346000D02*
X48514000Y-61686000D01*
X49404000Y-61686000D02*
X49404000Y-55686000D01*
X49404000Y-55686000D02*
X50164000Y-55686000D01*
X50164000Y-55686000D02*
X50164000Y-61686000D01*
X49404000Y-64743071D02*
X49404000Y-64346000D01*
X50164000Y-64743071D02*
X50164000Y-64346000D01*
X49404000Y-67283071D02*
X49404000Y-66828929D01*
X50164000Y-67283071D02*
X50164000Y-66828929D01*
X44704000Y-69596000D02*
X43434000Y-69596000D01*
X43434000Y-69596000D02*
X43434000Y-68326000D01*
X94540000Y-68541000D02*
X85800000Y-68541000D01*
X94540000Y-68541000D02*
X94540000Y-64301000D01*
X85800000Y-64301000D02*
X85800000Y-68541000D01*
X85800000Y-64301000D02*
X94540000Y-64301000D01*
X160859000Y-150891000D02*
X167109000Y-150891000D01*
X160859000Y-155941000D02*
X167109000Y-155941000D01*
X160859000Y-155941000D02*
G75*
G02X160859000Y-150891000I0J2525000D01*
G01*
X167109000Y-155941000D02*
G75*
G03X167109000Y-150891000I0J2525000D01*
G01*
X263382000Y-184824000D02*
X267882000Y-184824000D01*
X262132000Y-180824000D02*
X262132000Y-182324000D01*
X267882000Y-178324000D02*
X263382000Y-178324000D01*
X269132000Y-182324000D02*
X269132000Y-180824000D01*
X83860000Y-66259000D02*
X81240000Y-66259000D01*
X81240000Y-66259000D02*
X81240000Y-72679000D01*
X81240000Y-72679000D02*
X83860000Y-72679000D01*
X83860000Y-72679000D02*
X83860000Y-66259000D01*
X82550000Y-65369000D02*
X82550000Y-66259000D01*
X82550000Y-73569000D02*
X82550000Y-72679000D01*
X58639000Y-71905500D02*
X58639000Y-74525500D01*
X58639000Y-74525500D02*
X65059000Y-74525500D01*
X65059000Y-74525500D02*
X65059000Y-71905500D01*
X65059000Y-71905500D02*
X58639000Y-71905500D01*
X57749000Y-73215500D02*
X58639000Y-73215500D01*
X65949000Y-73215500D02*
X65059000Y-73215500D01*
X75478000Y-66132000D02*
X72858000Y-66132000D01*
X72858000Y-66132000D02*
X72858000Y-72552000D01*
X72858000Y-72552000D02*
X75478000Y-72552000D01*
X75478000Y-72552000D02*
X75478000Y-66132000D01*
X74168000Y-65242000D02*
X74168000Y-66132000D01*
X74168000Y-73442000D02*
X74168000Y-72552000D01*
X248351600Y-182484400D02*
X248351600Y-185104400D01*
X248351600Y-185104400D02*
X254771600Y-185104400D01*
X254771600Y-185104400D02*
X254771600Y-182484400D01*
X254771600Y-182484400D02*
X248351600Y-182484400D01*
X247461600Y-183794400D02*
X248351600Y-183794400D01*
X255661600Y-183794400D02*
X254771600Y-183794400D01*
X55753892Y-65574165D02*
G75*
G03X55596984Y-68806500I1078608J-1672335D01*
G01*
X57911108Y-65574165D02*
G75*
G02X58068016Y-68806500I-1078608J-1672335D01*
G01*
X55752663Y-66205370D02*
G75*
G03X55752500Y-68287461I1079837J-1041130D01*
G01*
X57912337Y-66205370D02*
G75*
G02X57912500Y-68287461I-1079837J-1041130D01*
G01*
X55596500Y-68806500D02*
X55752500Y-68806500D01*
X57912500Y-68806500D02*
X58068500Y-68806500D01*
X384584000Y-142284000D02*
X384584000Y-140164000D01*
X384584000Y-140164000D02*
X380464000Y-140164000D01*
X380464000Y-140164000D02*
X380464000Y-142284000D01*
X380464000Y-142284000D02*
X384584000Y-142284000D01*
X385354000Y-141224000D02*
X384584000Y-141224000D01*
X379694000Y-141224000D02*
X380464000Y-141224000D01*
X383924000Y-142284000D02*
X383924000Y-140164000D01*
X371304000Y-163604000D02*
X373424000Y-163604000D01*
X373424000Y-163604000D02*
X373424000Y-159484000D01*
X373424000Y-159484000D02*
X371304000Y-159484000D01*
X371304000Y-159484000D02*
X371304000Y-163604000D01*
X372364000Y-164374000D02*
X372364000Y-163604000D01*
X372364000Y-158714000D02*
X372364000Y-159484000D01*
X371304000Y-162944000D02*
X373424000Y-162944000D01*
X343364000Y-163604000D02*
X345484000Y-163604000D01*
X345484000Y-163604000D02*
X345484000Y-159484000D01*
X345484000Y-159484000D02*
X343364000Y-159484000D01*
X343364000Y-159484000D02*
X343364000Y-163604000D01*
X344424000Y-164374000D02*
X344424000Y-163604000D01*
X344424000Y-158714000D02*
X344424000Y-159484000D01*
X343364000Y-162944000D02*
X345484000Y-162944000D01*
X303994000Y-163350000D02*
X306114000Y-163350000D01*
X306114000Y-163350000D02*
X306114000Y-159230000D01*
X306114000Y-159230000D02*
X303994000Y-159230000D01*
X303994000Y-159230000D02*
X303994000Y-163350000D01*
X305054000Y-164120000D02*
X305054000Y-163350000D01*
X305054000Y-158460000D02*
X305054000Y-159230000D01*
X303994000Y-162690000D02*
X306114000Y-162690000D01*
X284182000Y-163350000D02*
X286302000Y-163350000D01*
X286302000Y-163350000D02*
X286302000Y-159230000D01*
X286302000Y-159230000D02*
X284182000Y-159230000D01*
X284182000Y-159230000D02*
X284182000Y-163350000D01*
X285242000Y-164120000D02*
X285242000Y-163350000D01*
X285242000Y-158460000D02*
X285242000Y-159230000D01*
X284182000Y-162690000D02*
X286302000Y-162690000D01*
X265132000Y-163350000D02*
X267252000Y-163350000D01*
X267252000Y-163350000D02*
X267252000Y-159230000D01*
X267252000Y-159230000D02*
X265132000Y-159230000D01*
X265132000Y-159230000D02*
X265132000Y-163350000D01*
X266192000Y-164120000D02*
X266192000Y-163350000D01*
X266192000Y-158460000D02*
X266192000Y-159230000D01*
X265132000Y-162690000D02*
X267252000Y-162690000D01*
X245828000Y-163350000D02*
X247948000Y-163350000D01*
X247948000Y-163350000D02*
X247948000Y-159230000D01*
X247948000Y-159230000D02*
X245828000Y-159230000D01*
X245828000Y-159230000D02*
X245828000Y-163350000D01*
X246888000Y-164120000D02*
X246888000Y-163350000D01*
X246888000Y-158460000D02*
X246888000Y-159230000D01*
X245828000Y-162690000D02*
X247948000Y-162690000D01*
X139656000Y-163350000D02*
X141776000Y-163350000D01*
X141776000Y-163350000D02*
X141776000Y-159230000D01*
X141776000Y-159230000D02*
X139656000Y-159230000D01*
X139656000Y-159230000D02*
X139656000Y-163350000D01*
X140716000Y-164120000D02*
X140716000Y-163350000D01*
X140716000Y-158460000D02*
X140716000Y-159230000D01*
X139656000Y-162690000D02*
X141776000Y-162690000D01*
X84284000Y-163350000D02*
X86404000Y-163350000D01*
X86404000Y-163350000D02*
X86404000Y-159230000D01*
X86404000Y-159230000D02*
X84284000Y-159230000D01*
X84284000Y-159230000D02*
X84284000Y-163350000D01*
X85344000Y-164120000D02*
X85344000Y-163350000D01*
X85344000Y-158460000D02*
X85344000Y-159230000D01*
X84284000Y-162690000D02*
X86404000Y-162690000D01*
X51010000Y-163350000D02*
X53130000Y-163350000D01*
X53130000Y-163350000D02*
X53130000Y-159230000D01*
X53130000Y-159230000D02*
X51010000Y-159230000D01*
X51010000Y-159230000D02*
X51010000Y-163350000D01*
X52070000Y-164120000D02*
X52070000Y-163350000D01*
X52070000Y-158460000D02*
X52070000Y-159230000D01*
X51010000Y-162690000D02*
X53130000Y-162690000D01*
X371304000Y-144554000D02*
X373424000Y-144554000D01*
X373424000Y-144554000D02*
X373424000Y-140434000D01*
X373424000Y-140434000D02*
X371304000Y-140434000D01*
X371304000Y-140434000D02*
X371304000Y-144554000D01*
X372364000Y-145324000D02*
X372364000Y-144554000D01*
X372364000Y-139664000D02*
X372364000Y-140434000D01*
X371304000Y-143894000D02*
X373424000Y-143894000D01*
X352254000Y-144554000D02*
X354374000Y-144554000D01*
X354374000Y-144554000D02*
X354374000Y-140434000D01*
X354374000Y-140434000D02*
X352254000Y-140434000D01*
X352254000Y-140434000D02*
X352254000Y-144554000D01*
X353314000Y-145324000D02*
X353314000Y-144554000D01*
X353314000Y-139664000D02*
X353314000Y-140434000D01*
X352254000Y-143894000D02*
X354374000Y-143894000D01*
X332950000Y-144554000D02*
X335070000Y-144554000D01*
X335070000Y-144554000D02*
X335070000Y-140434000D01*
X335070000Y-140434000D02*
X332950000Y-140434000D01*
X332950000Y-140434000D02*
X332950000Y-144554000D01*
X334010000Y-145324000D02*
X334010000Y-144554000D01*
X334010000Y-139664000D02*
X334010000Y-140434000D01*
X332950000Y-143894000D02*
X335070000Y-143894000D01*
X304248000Y-144554000D02*
X306368000Y-144554000D01*
X306368000Y-144554000D02*
X306368000Y-140434000D01*
X306368000Y-140434000D02*
X304248000Y-140434000D01*
X304248000Y-140434000D02*
X304248000Y-144554000D01*
X305308000Y-145324000D02*
X305308000Y-144554000D01*
X305308000Y-139664000D02*
X305308000Y-140434000D01*
X304248000Y-143894000D02*
X306368000Y-143894000D01*
X282912000Y-144554000D02*
X285032000Y-144554000D01*
X285032000Y-144554000D02*
X285032000Y-140434000D01*
X285032000Y-140434000D02*
X282912000Y-140434000D01*
X282912000Y-140434000D02*
X282912000Y-144554000D01*
X283972000Y-145324000D02*
X283972000Y-144554000D01*
X283972000Y-139664000D02*
X283972000Y-140434000D01*
X282912000Y-143894000D02*
X285032000Y-143894000D01*
X261322000Y-144554000D02*
X263442000Y-144554000D01*
X263442000Y-144554000D02*
X263442000Y-140434000D01*
X263442000Y-140434000D02*
X261322000Y-140434000D01*
X261322000Y-140434000D02*
X261322000Y-144554000D01*
X262382000Y-145324000D02*
X262382000Y-144554000D01*
X262382000Y-139664000D02*
X262382000Y-140434000D01*
X261322000Y-143894000D02*
X263442000Y-143894000D01*
X241256000Y-144554000D02*
X243376000Y-144554000D01*
X243376000Y-144554000D02*
X243376000Y-140434000D01*
X243376000Y-140434000D02*
X241256000Y-140434000D01*
X241256000Y-140434000D02*
X241256000Y-144554000D01*
X242316000Y-145324000D02*
X242316000Y-144554000D01*
X242316000Y-139664000D02*
X242316000Y-140434000D01*
X241256000Y-143894000D02*
X243376000Y-143894000D01*
X221952000Y-144300000D02*
X224072000Y-144300000D01*
X224072000Y-144300000D02*
X224072000Y-140180000D01*
X224072000Y-140180000D02*
X221952000Y-140180000D01*
X221952000Y-140180000D02*
X221952000Y-144300000D01*
X223012000Y-145070000D02*
X223012000Y-144300000D01*
X223012000Y-139410000D02*
X223012000Y-140180000D01*
X221952000Y-143640000D02*
X224072000Y-143640000D01*
X202648000Y-144300000D02*
X204768000Y-144300000D01*
X204768000Y-144300000D02*
X204768000Y-140180000D01*
X204768000Y-140180000D02*
X202648000Y-140180000D01*
X202648000Y-140180000D02*
X202648000Y-144300000D01*
X203708000Y-145070000D02*
X203708000Y-144300000D01*
X203708000Y-139410000D02*
X203708000Y-140180000D01*
X202648000Y-143640000D02*
X204768000Y-143640000D01*
X183598000Y-144300000D02*
X185718000Y-144300000D01*
X185718000Y-144300000D02*
X185718000Y-140180000D01*
X185718000Y-140180000D02*
X183598000Y-140180000D01*
X183598000Y-140180000D02*
X183598000Y-144300000D01*
X184658000Y-145070000D02*
X184658000Y-144300000D01*
X184658000Y-139410000D02*
X184658000Y-140180000D01*
X183598000Y-143640000D02*
X185718000Y-143640000D01*
X164294000Y-144300000D02*
X166414000Y-144300000D01*
X166414000Y-144300000D02*
X166414000Y-140180000D01*
X166414000Y-140180000D02*
X164294000Y-140180000D01*
X164294000Y-140180000D02*
X164294000Y-144300000D01*
X165354000Y-145070000D02*
X165354000Y-144300000D01*
X165354000Y-139410000D02*
X165354000Y-140180000D01*
X164294000Y-143640000D02*
X166414000Y-143640000D01*
X145244000Y-144300000D02*
X147364000Y-144300000D01*
X147364000Y-144300000D02*
X147364000Y-140180000D01*
X147364000Y-140180000D02*
X145244000Y-140180000D01*
X145244000Y-140180000D02*
X145244000Y-144300000D01*
X146304000Y-145070000D02*
X146304000Y-144300000D01*
X146304000Y-139410000D02*
X146304000Y-140180000D01*
X145244000Y-143640000D02*
X147364000Y-143640000D01*
X126194000Y-144300000D02*
X128314000Y-144300000D01*
X128314000Y-144300000D02*
X128314000Y-140180000D01*
X128314000Y-140180000D02*
X126194000Y-140180000D01*
X126194000Y-140180000D02*
X126194000Y-144300000D01*
X127254000Y-145070000D02*
X127254000Y-144300000D01*
X127254000Y-139410000D02*
X127254000Y-140180000D01*
X126194000Y-143640000D02*
X128314000Y-143640000D01*
X107144000Y-144300000D02*
X109264000Y-144300000D01*
X109264000Y-144300000D02*
X109264000Y-140180000D01*
X109264000Y-140180000D02*
X107144000Y-140180000D01*
X107144000Y-140180000D02*
X107144000Y-144300000D01*
X108204000Y-145070000D02*
X108204000Y-144300000D01*
X108204000Y-139410000D02*
X108204000Y-140180000D01*
X107144000Y-143640000D02*
X109264000Y-143640000D01*
X88094000Y-144300000D02*
X90214000Y-144300000D01*
X90214000Y-144300000D02*
X90214000Y-140180000D01*
X90214000Y-140180000D02*
X88094000Y-140180000D01*
X88094000Y-140180000D02*
X88094000Y-144300000D01*
X89154000Y-145070000D02*
X89154000Y-144300000D01*
X89154000Y-139410000D02*
X89154000Y-140180000D01*
X88094000Y-143640000D02*
X90214000Y-143640000D01*
X58376000Y-144046000D02*
X60496000Y-144046000D01*
X60496000Y-144046000D02*
X60496000Y-139926000D01*
X60496000Y-139926000D02*
X58376000Y-139926000D01*
X58376000Y-139926000D02*
X58376000Y-144046000D01*
X59436000Y-144816000D02*
X59436000Y-144046000D01*
X59436000Y-139156000D02*
X59436000Y-139926000D01*
X58376000Y-143386000D02*
X60496000Y-143386000D01*
X390354000Y-125250000D02*
X392474000Y-125250000D01*
X392474000Y-125250000D02*
X392474000Y-121130000D01*
X392474000Y-121130000D02*
X390354000Y-121130000D01*
X390354000Y-121130000D02*
X390354000Y-125250000D01*
X391414000Y-126020000D02*
X391414000Y-125250000D01*
X391414000Y-120360000D02*
X391414000Y-121130000D01*
X390354000Y-124590000D02*
X392474000Y-124590000D01*
X371304000Y-125250000D02*
X373424000Y-125250000D01*
X373424000Y-125250000D02*
X373424000Y-121130000D01*
X373424000Y-121130000D02*
X371304000Y-121130000D01*
X371304000Y-121130000D02*
X371304000Y-125250000D01*
X372364000Y-126020000D02*
X372364000Y-125250000D01*
X372364000Y-120360000D02*
X372364000Y-121130000D01*
X371304000Y-124590000D02*
X373424000Y-124590000D01*
X352254000Y-125250000D02*
X354374000Y-125250000D01*
X354374000Y-125250000D02*
X354374000Y-121130000D01*
X354374000Y-121130000D02*
X352254000Y-121130000D01*
X352254000Y-121130000D02*
X352254000Y-125250000D01*
X353314000Y-126020000D02*
X353314000Y-125250000D01*
X353314000Y-120360000D02*
X353314000Y-121130000D01*
X352254000Y-124590000D02*
X354374000Y-124590000D01*
X333204000Y-125250000D02*
X335324000Y-125250000D01*
X335324000Y-125250000D02*
X335324000Y-121130000D01*
X335324000Y-121130000D02*
X333204000Y-121130000D01*
X333204000Y-121130000D02*
X333204000Y-125250000D01*
X334264000Y-126020000D02*
X334264000Y-125250000D01*
X334264000Y-120360000D02*
X334264000Y-121130000D01*
X333204000Y-124590000D02*
X335324000Y-124590000D01*
X297136000Y-125250000D02*
X299256000Y-125250000D01*
X299256000Y-125250000D02*
X299256000Y-121130000D01*
X299256000Y-121130000D02*
X297136000Y-121130000D01*
X297136000Y-121130000D02*
X297136000Y-125250000D01*
X298196000Y-126020000D02*
X298196000Y-125250000D01*
X298196000Y-120360000D02*
X298196000Y-121130000D01*
X297136000Y-124590000D02*
X299256000Y-124590000D01*
X270466000Y-125250000D02*
X272586000Y-125250000D01*
X272586000Y-125250000D02*
X272586000Y-121130000D01*
X272586000Y-121130000D02*
X270466000Y-121130000D01*
X270466000Y-121130000D02*
X270466000Y-125250000D01*
X271526000Y-126020000D02*
X271526000Y-125250000D01*
X271526000Y-120360000D02*
X271526000Y-121130000D01*
X270466000Y-124590000D02*
X272586000Y-124590000D01*
X250654000Y-125250000D02*
X252774000Y-125250000D01*
X252774000Y-125250000D02*
X252774000Y-121130000D01*
X252774000Y-121130000D02*
X250654000Y-121130000D01*
X250654000Y-121130000D02*
X250654000Y-125250000D01*
X251714000Y-126020000D02*
X251714000Y-125250000D01*
X251714000Y-120360000D02*
X251714000Y-121130000D01*
X250654000Y-124590000D02*
X252774000Y-124590000D01*
X231604000Y-125250000D02*
X233724000Y-125250000D01*
X233724000Y-125250000D02*
X233724000Y-121130000D01*
X233724000Y-121130000D02*
X231604000Y-121130000D01*
X231604000Y-121130000D02*
X231604000Y-125250000D01*
X232664000Y-126020000D02*
X232664000Y-125250000D01*
X232664000Y-120360000D02*
X232664000Y-121130000D01*
X231604000Y-124590000D02*
X233724000Y-124590000D01*
X212300000Y-125250000D02*
X214420000Y-125250000D01*
X214420000Y-125250000D02*
X214420000Y-121130000D01*
X214420000Y-121130000D02*
X212300000Y-121130000D01*
X212300000Y-121130000D02*
X212300000Y-125250000D01*
X213360000Y-126020000D02*
X213360000Y-125250000D01*
X213360000Y-120360000D02*
X213360000Y-121130000D01*
X212300000Y-124590000D02*
X214420000Y-124590000D01*
X193250000Y-125250000D02*
X195370000Y-125250000D01*
X195370000Y-125250000D02*
X195370000Y-121130000D01*
X195370000Y-121130000D02*
X193250000Y-121130000D01*
X193250000Y-121130000D02*
X193250000Y-125250000D01*
X194310000Y-126020000D02*
X194310000Y-125250000D01*
X194310000Y-120360000D02*
X194310000Y-121130000D01*
X193250000Y-124590000D02*
X195370000Y-124590000D01*
X173946000Y-125250000D02*
X176066000Y-125250000D01*
X176066000Y-125250000D02*
X176066000Y-121130000D01*
X176066000Y-121130000D02*
X173946000Y-121130000D01*
X173946000Y-121130000D02*
X173946000Y-125250000D01*
X175006000Y-126020000D02*
X175006000Y-125250000D01*
X175006000Y-120360000D02*
X175006000Y-121130000D01*
X173946000Y-124590000D02*
X176066000Y-124590000D01*
X154896000Y-125250000D02*
X157016000Y-125250000D01*
X157016000Y-125250000D02*
X157016000Y-121130000D01*
X157016000Y-121130000D02*
X154896000Y-121130000D01*
X154896000Y-121130000D02*
X154896000Y-125250000D01*
X155956000Y-126020000D02*
X155956000Y-125250000D01*
X155956000Y-120360000D02*
X155956000Y-121130000D01*
X154896000Y-124590000D02*
X157016000Y-124590000D01*
X135846000Y-125250000D02*
X137966000Y-125250000D01*
X137966000Y-125250000D02*
X137966000Y-121130000D01*
X137966000Y-121130000D02*
X135846000Y-121130000D01*
X135846000Y-121130000D02*
X135846000Y-125250000D01*
X136906000Y-126020000D02*
X136906000Y-125250000D01*
X136906000Y-120360000D02*
X136906000Y-121130000D01*
X135846000Y-124590000D02*
X137966000Y-124590000D01*
X116542000Y-125250000D02*
X118662000Y-125250000D01*
X118662000Y-125250000D02*
X118662000Y-121130000D01*
X118662000Y-121130000D02*
X116542000Y-121130000D01*
X116542000Y-121130000D02*
X116542000Y-125250000D01*
X117602000Y-126020000D02*
X117602000Y-125250000D01*
X117602000Y-120360000D02*
X117602000Y-121130000D01*
X116542000Y-124590000D02*
X118662000Y-124590000D01*
X97746000Y-125250000D02*
X99866000Y-125250000D01*
X99866000Y-125250000D02*
X99866000Y-121130000D01*
X99866000Y-121130000D02*
X97746000Y-121130000D01*
X97746000Y-121130000D02*
X97746000Y-125250000D01*
X98806000Y-126020000D02*
X98806000Y-125250000D01*
X98806000Y-120360000D02*
X98806000Y-121130000D01*
X97746000Y-124590000D02*
X99866000Y-124590000D01*
X78442000Y-125250000D02*
X80562000Y-125250000D01*
X80562000Y-125250000D02*
X80562000Y-121130000D01*
X80562000Y-121130000D02*
X78442000Y-121130000D01*
X78442000Y-121130000D02*
X78442000Y-125250000D01*
X79502000Y-126020000D02*
X79502000Y-125250000D01*
X79502000Y-120360000D02*
X79502000Y-121130000D01*
X78442000Y-124590000D02*
X80562000Y-124590000D01*
X53804000Y-125250000D02*
X55924000Y-125250000D01*
X55924000Y-125250000D02*
X55924000Y-121130000D01*
X55924000Y-121130000D02*
X53804000Y-121130000D01*
X53804000Y-121130000D02*
X53804000Y-125250000D01*
X54864000Y-126020000D02*
X54864000Y-125250000D01*
X54864000Y-120360000D02*
X54864000Y-121130000D01*
X53804000Y-124590000D02*
X55924000Y-124590000D01*
X390354000Y-106200000D02*
X392474000Y-106200000D01*
X392474000Y-106200000D02*
X392474000Y-102080000D01*
X392474000Y-102080000D02*
X390354000Y-102080000D01*
X390354000Y-102080000D02*
X390354000Y-106200000D01*
X391414000Y-106970000D02*
X391414000Y-106200000D01*
X391414000Y-101310000D02*
X391414000Y-102080000D01*
X390354000Y-105540000D02*
X392474000Y-105540000D01*
X371304000Y-106200000D02*
X373424000Y-106200000D01*
X373424000Y-106200000D02*
X373424000Y-102080000D01*
X373424000Y-102080000D02*
X371304000Y-102080000D01*
X371304000Y-102080000D02*
X371304000Y-106200000D01*
X372364000Y-106970000D02*
X372364000Y-106200000D01*
X372364000Y-101310000D02*
X372364000Y-102080000D01*
X371304000Y-105540000D02*
X373424000Y-105540000D01*
X352254000Y-106200000D02*
X354374000Y-106200000D01*
X354374000Y-106200000D02*
X354374000Y-102080000D01*
X354374000Y-102080000D02*
X352254000Y-102080000D01*
X352254000Y-102080000D02*
X352254000Y-106200000D01*
X353314000Y-106970000D02*
X353314000Y-106200000D01*
X353314000Y-101310000D02*
X353314000Y-102080000D01*
X352254000Y-105540000D02*
X354374000Y-105540000D01*
X333204000Y-106200000D02*
X335324000Y-106200000D01*
X335324000Y-106200000D02*
X335324000Y-102080000D01*
X335324000Y-102080000D02*
X333204000Y-102080000D01*
X333204000Y-102080000D02*
X333204000Y-106200000D01*
X334264000Y-106970000D02*
X334264000Y-106200000D01*
X334264000Y-101310000D02*
X334264000Y-102080000D01*
X333204000Y-105540000D02*
X335324000Y-105540000D01*
X284182000Y-106200000D02*
X286302000Y-106200000D01*
X286302000Y-106200000D02*
X286302000Y-102080000D01*
X286302000Y-102080000D02*
X284182000Y-102080000D01*
X284182000Y-102080000D02*
X284182000Y-106200000D01*
X285242000Y-106970000D02*
X285242000Y-106200000D01*
X285242000Y-101310000D02*
X285242000Y-102080000D01*
X284182000Y-105540000D02*
X286302000Y-105540000D01*
X265132000Y-106200000D02*
X267252000Y-106200000D01*
X267252000Y-106200000D02*
X267252000Y-102080000D01*
X267252000Y-102080000D02*
X265132000Y-102080000D01*
X265132000Y-102080000D02*
X265132000Y-106200000D01*
X266192000Y-106970000D02*
X266192000Y-106200000D01*
X266192000Y-101310000D02*
X266192000Y-102080000D01*
X265132000Y-105540000D02*
X267252000Y-105540000D01*
X246082000Y-106200000D02*
X248202000Y-106200000D01*
X248202000Y-106200000D02*
X248202000Y-102080000D01*
X248202000Y-102080000D02*
X246082000Y-102080000D01*
X246082000Y-102080000D02*
X246082000Y-106200000D01*
X247142000Y-106970000D02*
X247142000Y-106200000D01*
X247142000Y-101310000D02*
X247142000Y-102080000D01*
X246082000Y-105540000D02*
X248202000Y-105540000D01*
X226778000Y-106200000D02*
X228898000Y-106200000D01*
X228898000Y-106200000D02*
X228898000Y-102080000D01*
X228898000Y-102080000D02*
X226778000Y-102080000D01*
X226778000Y-102080000D02*
X226778000Y-106200000D01*
X227838000Y-106970000D02*
X227838000Y-106200000D01*
X227838000Y-101310000D02*
X227838000Y-102080000D01*
X226778000Y-105540000D02*
X228898000Y-105540000D01*
X207728000Y-106200000D02*
X209848000Y-106200000D01*
X209848000Y-106200000D02*
X209848000Y-102080000D01*
X209848000Y-102080000D02*
X207728000Y-102080000D01*
X207728000Y-102080000D02*
X207728000Y-106200000D01*
X208788000Y-106970000D02*
X208788000Y-106200000D01*
X208788000Y-101310000D02*
X208788000Y-102080000D01*
X207728000Y-105540000D02*
X209848000Y-105540000D01*
X188424000Y-106200000D02*
X190544000Y-106200000D01*
X190544000Y-106200000D02*
X190544000Y-102080000D01*
X190544000Y-102080000D02*
X188424000Y-102080000D01*
X188424000Y-102080000D02*
X188424000Y-106200000D01*
X189484000Y-106970000D02*
X189484000Y-106200000D01*
X189484000Y-101310000D02*
X189484000Y-102080000D01*
X188424000Y-105540000D02*
X190544000Y-105540000D01*
X169374000Y-106200000D02*
X171494000Y-106200000D01*
X171494000Y-106200000D02*
X171494000Y-102080000D01*
X171494000Y-102080000D02*
X169374000Y-102080000D01*
X169374000Y-102080000D02*
X169374000Y-106200000D01*
X170434000Y-106970000D02*
X170434000Y-106200000D01*
X170434000Y-101310000D02*
X170434000Y-102080000D01*
X169374000Y-105540000D02*
X171494000Y-105540000D01*
X150070000Y-106200000D02*
X152190000Y-106200000D01*
X152190000Y-106200000D02*
X152190000Y-102080000D01*
X152190000Y-102080000D02*
X150070000Y-102080000D01*
X150070000Y-102080000D02*
X150070000Y-106200000D01*
X151130000Y-106970000D02*
X151130000Y-106200000D01*
X151130000Y-101310000D02*
X151130000Y-102080000D01*
X150070000Y-105540000D02*
X152190000Y-105540000D01*
X131020000Y-106200000D02*
X133140000Y-106200000D01*
X133140000Y-106200000D02*
X133140000Y-102080000D01*
X133140000Y-102080000D02*
X131020000Y-102080000D01*
X131020000Y-102080000D02*
X131020000Y-106200000D01*
X132080000Y-106970000D02*
X132080000Y-106200000D01*
X132080000Y-101310000D02*
X132080000Y-102080000D01*
X131020000Y-105540000D02*
X133140000Y-105540000D01*
X111970000Y-106200000D02*
X114090000Y-106200000D01*
X114090000Y-106200000D02*
X114090000Y-102080000D01*
X114090000Y-102080000D02*
X111970000Y-102080000D01*
X111970000Y-102080000D02*
X111970000Y-106200000D01*
X113030000Y-106970000D02*
X113030000Y-106200000D01*
X113030000Y-101310000D02*
X113030000Y-102080000D01*
X111970000Y-105540000D02*
X114090000Y-105540000D01*
X92920000Y-106200000D02*
X95040000Y-106200000D01*
X95040000Y-106200000D02*
X95040000Y-102080000D01*
X95040000Y-102080000D02*
X92920000Y-102080000D01*
X92920000Y-102080000D02*
X92920000Y-106200000D01*
X93980000Y-106970000D02*
X93980000Y-106200000D01*
X93980000Y-101310000D02*
X93980000Y-102080000D01*
X92920000Y-105540000D02*
X95040000Y-105540000D01*
X73870000Y-106200000D02*
X75990000Y-106200000D01*
X75990000Y-106200000D02*
X75990000Y-102080000D01*
X75990000Y-102080000D02*
X73870000Y-102080000D01*
X73870000Y-102080000D02*
X73870000Y-106200000D01*
X74930000Y-106970000D02*
X74930000Y-106200000D01*
X74930000Y-101310000D02*
X74930000Y-102080000D01*
X73870000Y-105540000D02*
X75990000Y-105540000D01*
X51772000Y-106200000D02*
X53892000Y-106200000D01*
X53892000Y-106200000D02*
X53892000Y-102080000D01*
X53892000Y-102080000D02*
X51772000Y-102080000D01*
X51772000Y-102080000D02*
X51772000Y-106200000D01*
X52832000Y-106970000D02*
X52832000Y-106200000D01*
X52832000Y-101310000D02*
X52832000Y-102080000D01*
X51772000Y-105540000D02*
X53892000Y-105540000D01*
X390354000Y-87150000D02*
X392474000Y-87150000D01*
X392474000Y-87150000D02*
X392474000Y-83030000D01*
X392474000Y-83030000D02*
X390354000Y-83030000D01*
X390354000Y-83030000D02*
X390354000Y-87150000D01*
X391414000Y-87920000D02*
X391414000Y-87150000D01*
X391414000Y-82260000D02*
X391414000Y-83030000D01*
X390354000Y-86490000D02*
X392474000Y-86490000D01*
X371304000Y-87150000D02*
X373424000Y-87150000D01*
X373424000Y-87150000D02*
X373424000Y-83030000D01*
X373424000Y-83030000D02*
X371304000Y-83030000D01*
X371304000Y-83030000D02*
X371304000Y-87150000D01*
X372364000Y-87920000D02*
X372364000Y-87150000D01*
X372364000Y-82260000D02*
X372364000Y-83030000D01*
X371304000Y-86490000D02*
X373424000Y-86490000D01*
X352254000Y-87150000D02*
X354374000Y-87150000D01*
X354374000Y-87150000D02*
X354374000Y-83030000D01*
X354374000Y-83030000D02*
X352254000Y-83030000D01*
X352254000Y-83030000D02*
X352254000Y-87150000D01*
X353314000Y-87920000D02*
X353314000Y-87150000D01*
X353314000Y-82260000D02*
X353314000Y-83030000D01*
X352254000Y-86490000D02*
X354374000Y-86490000D01*
X333204000Y-87150000D02*
X335324000Y-87150000D01*
X335324000Y-87150000D02*
X335324000Y-83030000D01*
X335324000Y-83030000D02*
X333204000Y-83030000D01*
X333204000Y-83030000D02*
X333204000Y-87150000D01*
X334264000Y-87920000D02*
X334264000Y-87150000D01*
X334264000Y-82260000D02*
X334264000Y-83030000D01*
X333204000Y-86490000D02*
X335324000Y-86490000D01*
X299930000Y-87150000D02*
X302050000Y-87150000D01*
X302050000Y-87150000D02*
X302050000Y-83030000D01*
X302050000Y-83030000D02*
X299930000Y-83030000D01*
X299930000Y-83030000D02*
X299930000Y-87150000D01*
X300990000Y-87920000D02*
X300990000Y-87150000D01*
X300990000Y-82260000D02*
X300990000Y-83030000D01*
X299930000Y-86490000D02*
X302050000Y-86490000D01*
X276308000Y-87150000D02*
X278428000Y-87150000D01*
X278428000Y-87150000D02*
X278428000Y-83030000D01*
X278428000Y-83030000D02*
X276308000Y-83030000D01*
X276308000Y-83030000D02*
X276308000Y-87150000D01*
X277368000Y-87920000D02*
X277368000Y-87150000D01*
X277368000Y-82260000D02*
X277368000Y-83030000D01*
X276308000Y-86490000D02*
X278428000Y-86490000D01*
X255734000Y-87150000D02*
X257854000Y-87150000D01*
X257854000Y-87150000D02*
X257854000Y-83030000D01*
X257854000Y-83030000D02*
X255734000Y-83030000D01*
X255734000Y-83030000D02*
X255734000Y-87150000D01*
X256794000Y-87920000D02*
X256794000Y-87150000D01*
X256794000Y-82260000D02*
X256794000Y-83030000D01*
X255734000Y-86490000D02*
X257854000Y-86490000D01*
X236430000Y-87150000D02*
X238550000Y-87150000D01*
X238550000Y-87150000D02*
X238550000Y-83030000D01*
X238550000Y-83030000D02*
X236430000Y-83030000D01*
X236430000Y-83030000D02*
X236430000Y-87150000D01*
X237490000Y-87920000D02*
X237490000Y-87150000D01*
X237490000Y-82260000D02*
X237490000Y-83030000D01*
X236430000Y-86490000D02*
X238550000Y-86490000D01*
X217380000Y-87150000D02*
X219500000Y-87150000D01*
X219500000Y-87150000D02*
X219500000Y-83030000D01*
X219500000Y-83030000D02*
X217380000Y-83030000D01*
X217380000Y-83030000D02*
X217380000Y-87150000D01*
X218440000Y-87920000D02*
X218440000Y-87150000D01*
X218440000Y-82260000D02*
X218440000Y-83030000D01*
X217380000Y-86490000D02*
X219500000Y-86490000D01*
X198076000Y-87150000D02*
X200196000Y-87150000D01*
X200196000Y-87150000D02*
X200196000Y-83030000D01*
X200196000Y-83030000D02*
X198076000Y-83030000D01*
X198076000Y-83030000D02*
X198076000Y-87150000D01*
X199136000Y-87920000D02*
X199136000Y-87150000D01*
X199136000Y-82260000D02*
X199136000Y-83030000D01*
X198076000Y-86490000D02*
X200196000Y-86490000D01*
X179026000Y-87150000D02*
X181146000Y-87150000D01*
X181146000Y-87150000D02*
X181146000Y-83030000D01*
X181146000Y-83030000D02*
X179026000Y-83030000D01*
X179026000Y-83030000D02*
X179026000Y-87150000D01*
X180086000Y-87920000D02*
X180086000Y-87150000D01*
X180086000Y-82260000D02*
X180086000Y-83030000D01*
X179026000Y-86490000D02*
X181146000Y-86490000D01*
X159722000Y-87150000D02*
X161842000Y-87150000D01*
X161842000Y-87150000D02*
X161842000Y-83030000D01*
X161842000Y-83030000D02*
X159722000Y-83030000D01*
X159722000Y-83030000D02*
X159722000Y-87150000D01*
X160782000Y-87920000D02*
X160782000Y-87150000D01*
X160782000Y-82260000D02*
X160782000Y-83030000D01*
X159722000Y-86490000D02*
X161842000Y-86490000D01*
X140672000Y-87150000D02*
X142792000Y-87150000D01*
X142792000Y-87150000D02*
X142792000Y-83030000D01*
X142792000Y-83030000D02*
X140672000Y-83030000D01*
X140672000Y-83030000D02*
X140672000Y-87150000D01*
X141732000Y-87920000D02*
X141732000Y-87150000D01*
X141732000Y-82260000D02*
X141732000Y-83030000D01*
X140672000Y-86490000D02*
X142792000Y-86490000D01*
X121622000Y-87150000D02*
X123742000Y-87150000D01*
X123742000Y-87150000D02*
X123742000Y-83030000D01*
X123742000Y-83030000D02*
X121622000Y-83030000D01*
X121622000Y-83030000D02*
X121622000Y-87150000D01*
X122682000Y-87920000D02*
X122682000Y-87150000D01*
X122682000Y-82260000D02*
X122682000Y-83030000D01*
X121622000Y-86490000D02*
X123742000Y-86490000D01*
X102572000Y-87150000D02*
X104692000Y-87150000D01*
X104692000Y-87150000D02*
X104692000Y-83030000D01*
X104692000Y-83030000D02*
X102572000Y-83030000D01*
X102572000Y-83030000D02*
X102572000Y-87150000D01*
X103632000Y-87920000D02*
X103632000Y-87150000D01*
X103632000Y-82260000D02*
X103632000Y-83030000D01*
X102572000Y-86490000D02*
X104692000Y-86490000D01*
X83522000Y-87150000D02*
X85642000Y-87150000D01*
X85642000Y-87150000D02*
X85642000Y-83030000D01*
X85642000Y-83030000D02*
X83522000Y-83030000D01*
X83522000Y-83030000D02*
X83522000Y-87150000D01*
X84582000Y-87920000D02*
X84582000Y-87150000D01*
X84582000Y-82260000D02*
X84582000Y-83030000D01*
X83522000Y-86490000D02*
X85642000Y-86490000D01*
X64472000Y-87150000D02*
X66592000Y-87150000D01*
X66592000Y-87150000D02*
X66592000Y-83030000D01*
X66592000Y-83030000D02*
X64472000Y-83030000D01*
X64472000Y-83030000D02*
X64472000Y-87150000D01*
X65532000Y-87920000D02*
X65532000Y-87150000D01*
X65532000Y-82260000D02*
X65532000Y-83030000D01*
X64472000Y-86490000D02*
X66592000Y-86490000D01*
X45422000Y-87150000D02*
X47542000Y-87150000D01*
X47542000Y-87150000D02*
X47542000Y-83030000D01*
X47542000Y-83030000D02*
X45422000Y-83030000D01*
X45422000Y-83030000D02*
X45422000Y-87150000D01*
X46482000Y-87920000D02*
X46482000Y-87150000D01*
X46482000Y-82260000D02*
X46482000Y-83030000D01*
X45422000Y-86490000D02*
X47542000Y-86490000D01*
X68735000Y-66655500D02*
X68735000Y-64535500D01*
X68735000Y-64535500D02*
X64615000Y-64535500D01*
X64615000Y-64535500D02*
X64615000Y-66655500D01*
X64615000Y-66655500D02*
X68735000Y-66655500D01*
X69505000Y-65595500D02*
X68735000Y-65595500D01*
X63845000Y-65595500D02*
X64615000Y-65595500D01*
X68075000Y-66655500D02*
X68075000Y-64535500D01*
X68735000Y-62845500D02*
X68735000Y-60725500D01*
X68735000Y-60725500D02*
X64615000Y-60725500D01*
X64615000Y-60725500D02*
X64615000Y-62845500D01*
X64615000Y-62845500D02*
X68735000Y-62845500D01*
X69505000Y-61785500D02*
X68735000Y-61785500D01*
X63845000Y-61785500D02*
X64615000Y-61785500D01*
X68075000Y-62845500D02*
X68075000Y-60725500D01*
X178225000Y-151582000D02*
X178225000Y-154702000D01*
X176105000Y-151582000D02*
X176105000Y-154702000D01*
X178225000Y-151582000D02*
X178161000Y-151582000D01*
X176169000Y-151582000D02*
X176105000Y-151582000D01*
X178225000Y-154702000D02*
X178161000Y-154702000D01*
X176169000Y-154702000D02*
X176105000Y-154702000D01*
X167584000Y-176613000D02*
X170704000Y-176613000D01*
X167584000Y-178733000D02*
X170704000Y-178733000D01*
X167584000Y-176613000D02*
X167584000Y-176677000D01*
X167584000Y-178669000D02*
X167584000Y-178733000D01*
X170704000Y-176613000D02*
X170704000Y-176677000D01*
X170704000Y-178669000D02*
X170704000Y-178733000D01*
X87757278Y-73950723D02*
G75*
G03X92368580Y-73951000I2305722J1179723D01*
G01*
X87757278Y-71591277D02*
G75*
G02X92368580Y-71591000I2305722J-1179723D01*
G01*
X87757278Y-71591277D02*
G75*
G03X87757420Y-73951000I2305722J-1179723D01*
G01*
X90063000Y-75321000D02*
X90063000Y-70221000D01*
X90023000Y-75321000D02*
X90023000Y-70221000D01*
X89983000Y-75320000D02*
X89983000Y-70222000D01*
X89943000Y-75319000D02*
X89943000Y-70223000D01*
X89903000Y-75317000D02*
X89903000Y-70225000D01*
X89863000Y-75314000D02*
X89863000Y-70228000D01*
X89823000Y-75310000D02*
X89823000Y-70232000D01*
X89783000Y-75306000D02*
X89783000Y-73751000D01*
X89783000Y-71791000D02*
X89783000Y-70236000D01*
X89743000Y-75302000D02*
X89743000Y-73751000D01*
X89743000Y-71791000D02*
X89743000Y-70240000D01*
X89703000Y-75296000D02*
X89703000Y-73751000D01*
X89703000Y-71791000D02*
X89703000Y-70246000D01*
X89663000Y-75290000D02*
X89663000Y-73751000D01*
X89663000Y-71791000D02*
X89663000Y-70252000D01*
X89623000Y-75284000D02*
X89623000Y-73751000D01*
X89623000Y-71791000D02*
X89623000Y-70258000D01*
X89583000Y-75277000D02*
X89583000Y-73751000D01*
X89583000Y-71791000D02*
X89583000Y-70265000D01*
X89543000Y-75269000D02*
X89543000Y-73751000D01*
X89543000Y-71791000D02*
X89543000Y-70273000D01*
X89503000Y-75260000D02*
X89503000Y-73751000D01*
X89503000Y-71791000D02*
X89503000Y-70282000D01*
X89463000Y-75251000D02*
X89463000Y-73751000D01*
X89463000Y-71791000D02*
X89463000Y-70291000D01*
X89423000Y-75241000D02*
X89423000Y-73751000D01*
X89423000Y-71791000D02*
X89423000Y-70301000D01*
X89383000Y-75231000D02*
X89383000Y-73751000D01*
X89383000Y-71791000D02*
X89383000Y-70311000D01*
X89342000Y-75219000D02*
X89342000Y-73751000D01*
X89342000Y-71791000D02*
X89342000Y-70323000D01*
X89302000Y-75207000D02*
X89302000Y-73751000D01*
X89302000Y-71791000D02*
X89302000Y-70335000D01*
X89262000Y-75195000D02*
X89262000Y-73751000D01*
X89262000Y-71791000D02*
X89262000Y-70347000D01*
X89222000Y-75181000D02*
X89222000Y-73751000D01*
X89222000Y-71791000D02*
X89222000Y-70361000D01*
X89182000Y-75167000D02*
X89182000Y-73751000D01*
X89182000Y-71791000D02*
X89182000Y-70375000D01*
X89142000Y-75153000D02*
X89142000Y-73751000D01*
X89142000Y-71791000D02*
X89142000Y-70389000D01*
X89102000Y-75137000D02*
X89102000Y-73751000D01*
X89102000Y-71791000D02*
X89102000Y-70405000D01*
X89062000Y-75121000D02*
X89062000Y-73751000D01*
X89062000Y-71791000D02*
X89062000Y-70421000D01*
X89022000Y-75104000D02*
X89022000Y-73751000D01*
X89022000Y-71791000D02*
X89022000Y-70438000D01*
X88982000Y-75086000D02*
X88982000Y-73751000D01*
X88982000Y-71791000D02*
X88982000Y-70456000D01*
X88942000Y-75067000D02*
X88942000Y-73751000D01*
X88942000Y-71791000D02*
X88942000Y-70475000D01*
X88902000Y-75047000D02*
X88902000Y-73751000D01*
X88902000Y-71791000D02*
X88902000Y-70495000D01*
X88862000Y-75027000D02*
X88862000Y-73751000D01*
X88862000Y-71791000D02*
X88862000Y-70515000D01*
X88822000Y-75005000D02*
X88822000Y-73751000D01*
X88822000Y-71791000D02*
X88822000Y-70537000D01*
X88782000Y-74983000D02*
X88782000Y-73751000D01*
X88782000Y-71791000D02*
X88782000Y-70559000D01*
X88742000Y-74960000D02*
X88742000Y-73751000D01*
X88742000Y-71791000D02*
X88742000Y-70582000D01*
X88702000Y-74936000D02*
X88702000Y-73751000D01*
X88702000Y-71791000D02*
X88702000Y-70606000D01*
X88662000Y-74911000D02*
X88662000Y-73751000D01*
X88662000Y-71791000D02*
X88662000Y-70631000D01*
X88622000Y-74884000D02*
X88622000Y-73751000D01*
X88622000Y-71791000D02*
X88622000Y-70658000D01*
X88582000Y-74857000D02*
X88582000Y-73751000D01*
X88582000Y-71791000D02*
X88582000Y-70685000D01*
X88542000Y-74829000D02*
X88542000Y-73751000D01*
X88542000Y-71791000D02*
X88542000Y-70713000D01*
X88502000Y-74799000D02*
X88502000Y-73751000D01*
X88502000Y-71791000D02*
X88502000Y-70743000D01*
X88462000Y-74768000D02*
X88462000Y-73751000D01*
X88462000Y-71791000D02*
X88462000Y-70774000D01*
X88422000Y-74736000D02*
X88422000Y-73751000D01*
X88422000Y-71791000D02*
X88422000Y-70806000D01*
X88382000Y-74703000D02*
X88382000Y-73751000D01*
X88382000Y-71791000D02*
X88382000Y-70839000D01*
X88342000Y-74668000D02*
X88342000Y-73751000D01*
X88342000Y-71791000D02*
X88342000Y-70874000D01*
X88302000Y-74632000D02*
X88302000Y-73751000D01*
X88302000Y-71791000D02*
X88302000Y-70910000D01*
X88262000Y-74594000D02*
X88262000Y-73751000D01*
X88262000Y-71791000D02*
X88262000Y-70948000D01*
X88222000Y-74554000D02*
X88222000Y-73751000D01*
X88222000Y-71791000D02*
X88222000Y-70988000D01*
X88182000Y-74513000D02*
X88182000Y-73751000D01*
X88182000Y-71791000D02*
X88182000Y-71029000D01*
X88142000Y-74470000D02*
X88142000Y-73751000D01*
X88142000Y-71791000D02*
X88142000Y-71072000D01*
X88102000Y-74425000D02*
X88102000Y-73751000D01*
X88102000Y-71791000D02*
X88102000Y-71117000D01*
X88062000Y-74377000D02*
X88062000Y-73751000D01*
X88062000Y-71791000D02*
X88062000Y-71165000D01*
X88022000Y-74327000D02*
X88022000Y-73751000D01*
X88022000Y-71791000D02*
X88022000Y-71215000D01*
X87982000Y-74275000D02*
X87982000Y-73751000D01*
X87982000Y-71791000D02*
X87982000Y-71267000D01*
X87942000Y-74219000D02*
X87942000Y-73751000D01*
X87942000Y-71791000D02*
X87942000Y-71323000D01*
X87902000Y-74161000D02*
X87902000Y-73751000D01*
X87902000Y-71791000D02*
X87902000Y-71381000D01*
X87862000Y-74098000D02*
X87862000Y-73751000D01*
X87862000Y-71791000D02*
X87862000Y-71444000D01*
X87822000Y-74032000D02*
X87822000Y-71510000D01*
X87782000Y-73960000D02*
X87782000Y-71582000D01*
X87742000Y-73883000D02*
X87742000Y-71659000D01*
X87702000Y-73799000D02*
X87702000Y-71743000D01*
X87662000Y-73705000D02*
X87662000Y-71837000D01*
X87622000Y-73600000D02*
X87622000Y-71942000D01*
X87582000Y-73478000D02*
X87582000Y-72064000D01*
X87542000Y-73330000D02*
X87542000Y-72212000D01*
X87502000Y-73125000D02*
X87502000Y-72417000D01*
X93513000Y-72771000D02*
X92313000Y-72771000D01*
X92913000Y-73421000D02*
X92913000Y-72121000D01*
X173776000Y-150316000D02*
X173776000Y-156436000D01*
X171156000Y-150316000D02*
X171156000Y-156436000D01*
X173776000Y-150316000D02*
X173462000Y-150316000D01*
X171470000Y-150316000D02*
X171156000Y-150316000D01*
X173776000Y-156436000D02*
X173462000Y-156436000D01*
X171470000Y-156436000D02*
X171156000Y-156436000D01*
X156504000Y-150316000D02*
X156504000Y-156436000D01*
X153884000Y-150316000D02*
X153884000Y-156436000D01*
X156504000Y-150316000D02*
X156190000Y-150316000D01*
X154198000Y-150316000D02*
X153884000Y-150316000D01*
X156504000Y-156436000D02*
X156190000Y-156436000D01*
X154198000Y-156436000D02*
X153884000Y-156436000D01*
X276082000Y-184824000D02*
X280582000Y-184824000D01*
X274832000Y-180824000D02*
X274832000Y-182324000D01*
X280582000Y-178324000D02*
X276082000Y-178324000D01*
X281832000Y-182324000D02*
X281832000Y-180824000D01*
D11*
X80994380Y-69635666D02*
X80518190Y-69969000D01*
X80994380Y-70207095D02*
X79994380Y-70207095D01*
X79994380Y-69826142D01*
X80042000Y-69730904D01*
X80089619Y-69683285D01*
X80184857Y-69635666D01*
X80327714Y-69635666D01*
X80422952Y-69683285D01*
X80470571Y-69730904D01*
X80518190Y-69826142D01*
X80518190Y-70207095D01*
X80089619Y-69254714D02*
X80042000Y-69207095D01*
X79994380Y-69111857D01*
X79994380Y-68873761D01*
X80042000Y-68778523D01*
X80089619Y-68730904D01*
X80184857Y-68683285D01*
X80280095Y-68683285D01*
X80422952Y-68730904D01*
X80994380Y-69302333D01*
X80994380Y-68683285D01*
X195076380Y-166877904D02*
X195885904Y-166877904D01*
X195981142Y-166830285D01*
X196028761Y-166782666D01*
X196076380Y-166687428D01*
X196076380Y-166496952D01*
X196028761Y-166401714D01*
X195981142Y-166354095D01*
X195885904Y-166306476D01*
X195076380Y-166306476D01*
X196076380Y-165306476D02*
X196076380Y-165877904D01*
X196076380Y-165592190D02*
X195076380Y-165592190D01*
X195219238Y-165687428D01*
X195314476Y-165782666D01*
X195362095Y-165877904D01*
X41886380Y-63004333D02*
X42600666Y-63004333D01*
X42743523Y-63051952D01*
X42838761Y-63147190D01*
X42886380Y-63290047D01*
X42886380Y-63385285D01*
X42886380Y-62004333D02*
X42886380Y-62575761D01*
X42886380Y-62290047D02*
X41886380Y-62290047D01*
X42029238Y-62385285D01*
X42124476Y-62480523D01*
X42172095Y-62575761D01*
X89726666Y-69299571D02*
X89393333Y-69299571D01*
X89393333Y-69823380D02*
X89393333Y-68823380D01*
X89869523Y-68823380D01*
X90774285Y-69823380D02*
X90202857Y-69823380D01*
X90488571Y-69823380D02*
X90488571Y-68823380D01*
X90393333Y-68966238D01*
X90298095Y-69061476D01*
X90202857Y-69109095D01*
X163507809Y-149867190D02*
X163507809Y-150343380D01*
X163174476Y-149343380D02*
X163507809Y-149867190D01*
X163841142Y-149343380D01*
X164698285Y-150343380D02*
X164126857Y-150343380D01*
X164412571Y-150343380D02*
X164412571Y-149343380D01*
X164317333Y-149486238D01*
X164222095Y-149581476D01*
X164126857Y-149629095D01*
X263917714Y-177776380D02*
X263584380Y-177300190D01*
X263346285Y-177776380D02*
X263346285Y-176776380D01*
X263727238Y-176776380D01*
X263822476Y-176824000D01*
X263870095Y-176871619D01*
X263917714Y-176966857D01*
X263917714Y-177109714D01*
X263870095Y-177204952D01*
X263822476Y-177252571D01*
X263727238Y-177300190D01*
X263346285Y-177300190D01*
X264727238Y-177728761D02*
X264632000Y-177776380D01*
X264441523Y-177776380D01*
X264346285Y-177728761D01*
X264298666Y-177633523D01*
X264298666Y-177252571D01*
X264346285Y-177157333D01*
X264441523Y-177109714D01*
X264632000Y-177109714D01*
X264727238Y-177157333D01*
X264774857Y-177252571D01*
X264774857Y-177347809D01*
X264298666Y-177443047D01*
X265155809Y-177728761D02*
X265251047Y-177776380D01*
X265441523Y-177776380D01*
X265536761Y-177728761D01*
X265584380Y-177633523D01*
X265584380Y-177585904D01*
X265536761Y-177490666D01*
X265441523Y-177443047D01*
X265298666Y-177443047D01*
X265203428Y-177395428D01*
X265155809Y-177300190D01*
X265155809Y-177252571D01*
X265203428Y-177157333D01*
X265298666Y-177109714D01*
X265441523Y-177109714D01*
X265536761Y-177157333D01*
X266393904Y-177728761D02*
X266298666Y-177776380D01*
X266108190Y-177776380D01*
X266012952Y-177728761D01*
X265965333Y-177633523D01*
X265965333Y-177252571D01*
X266012952Y-177157333D01*
X266108190Y-177109714D01*
X266298666Y-177109714D01*
X266393904Y-177157333D01*
X266441523Y-177252571D01*
X266441523Y-177347809D01*
X265965333Y-177443047D01*
X266727238Y-177109714D02*
X267108190Y-177109714D01*
X266870095Y-176776380D02*
X266870095Y-177633523D01*
X266917714Y-177728761D01*
X267012952Y-177776380D01*
X267108190Y-177776380D01*
X267965333Y-177776380D02*
X267393904Y-177776380D01*
X267679619Y-177776380D02*
X267679619Y-176776380D01*
X267584380Y-176919238D01*
X267489142Y-177014476D01*
X267393904Y-177062095D01*
X85312380Y-69635666D02*
X84836190Y-69969000D01*
X85312380Y-70207095D02*
X84312380Y-70207095D01*
X84312380Y-69826142D01*
X84360000Y-69730904D01*
X84407619Y-69683285D01*
X84502857Y-69635666D01*
X84645714Y-69635666D01*
X84740952Y-69683285D01*
X84788571Y-69730904D01*
X84836190Y-69826142D01*
X84836190Y-70207095D01*
X84312380Y-68730904D02*
X84312380Y-69207095D01*
X84788571Y-69254714D01*
X84740952Y-69207095D01*
X84693333Y-69111857D01*
X84693333Y-68873761D01*
X84740952Y-68778523D01*
X84788571Y-68730904D01*
X84883809Y-68683285D01*
X85121904Y-68683285D01*
X85217142Y-68730904D01*
X85264761Y-68778523D01*
X85312380Y-68873761D01*
X85312380Y-69111857D01*
X85264761Y-69207095D01*
X85217142Y-69254714D01*
X61682333Y-71357880D02*
X61349000Y-70881690D01*
X61110904Y-71357880D02*
X61110904Y-70357880D01*
X61491857Y-70357880D01*
X61587095Y-70405500D01*
X61634714Y-70453119D01*
X61682333Y-70548357D01*
X61682333Y-70691214D01*
X61634714Y-70786452D01*
X61587095Y-70834071D01*
X61491857Y-70881690D01*
X61110904Y-70881690D01*
X62539476Y-70691214D02*
X62539476Y-71357880D01*
X62301380Y-70310261D02*
X62063285Y-71024547D01*
X62682333Y-71024547D01*
X76930380Y-69508666D02*
X76454190Y-69842000D01*
X76930380Y-70080095D02*
X75930380Y-70080095D01*
X75930380Y-69699142D01*
X75978000Y-69603904D01*
X76025619Y-69556285D01*
X76120857Y-69508666D01*
X76263714Y-69508666D01*
X76358952Y-69556285D01*
X76406571Y-69603904D01*
X76454190Y-69699142D01*
X76454190Y-70080095D01*
X75930380Y-69175333D02*
X75930380Y-68556285D01*
X76311333Y-68889619D01*
X76311333Y-68746761D01*
X76358952Y-68651523D01*
X76406571Y-68603904D01*
X76501809Y-68556285D01*
X76739904Y-68556285D01*
X76835142Y-68603904D01*
X76882761Y-68651523D01*
X76930380Y-68746761D01*
X76930380Y-69032476D01*
X76882761Y-69127714D01*
X76835142Y-69175333D01*
X251394933Y-181936780D02*
X251061600Y-181460590D01*
X250823504Y-181936780D02*
X250823504Y-180936780D01*
X251204457Y-180936780D01*
X251299695Y-180984400D01*
X251347314Y-181032019D01*
X251394933Y-181127257D01*
X251394933Y-181270114D01*
X251347314Y-181365352D01*
X251299695Y-181412971D01*
X251204457Y-181460590D01*
X250823504Y-181460590D01*
X252347314Y-181936780D02*
X251775885Y-181936780D01*
X252061600Y-181936780D02*
X252061600Y-180936780D01*
X251966361Y-181079638D01*
X251871123Y-181174876D01*
X251775885Y-181222495D01*
X54324880Y-68460785D02*
X53324880Y-68460785D01*
X53324880Y-68222690D01*
X53372500Y-68079833D01*
X53467738Y-67984595D01*
X53562976Y-67936976D01*
X53753452Y-67889357D01*
X53896309Y-67889357D01*
X54086785Y-67936976D01*
X54182023Y-67984595D01*
X54277261Y-68079833D01*
X54324880Y-68222690D01*
X54324880Y-68460785D01*
X53753452Y-67317928D02*
X53705833Y-67413166D01*
X53658214Y-67460785D01*
X53562976Y-67508404D01*
X53515357Y-67508404D01*
X53420119Y-67460785D01*
X53372500Y-67413166D01*
X53324880Y-67317928D01*
X53324880Y-67127452D01*
X53372500Y-67032214D01*
X53420119Y-66984595D01*
X53515357Y-66936976D01*
X53562976Y-66936976D01*
X53658214Y-66984595D01*
X53705833Y-67032214D01*
X53753452Y-67127452D01*
X53753452Y-67317928D01*
X53801071Y-67413166D01*
X53848690Y-67460785D01*
X53943928Y-67508404D01*
X54134404Y-67508404D01*
X54229642Y-67460785D01*
X54277261Y-67413166D01*
X54324880Y-67317928D01*
X54324880Y-67127452D01*
X54277261Y-67032214D01*
X54229642Y-66984595D01*
X54134404Y-66936976D01*
X53943928Y-66936976D01*
X53848690Y-66984595D01*
X53801071Y-67032214D01*
X53753452Y-67127452D01*
X53420119Y-66556023D02*
X53372500Y-66508404D01*
X53324880Y-66413166D01*
X53324880Y-66175071D01*
X53372500Y-66079833D01*
X53420119Y-66032214D01*
X53515357Y-65984595D01*
X53610595Y-65984595D01*
X53753452Y-66032214D01*
X54324880Y-66603642D01*
X54324880Y-65984595D01*
X381309714Y-143736380D02*
X381309714Y-142736380D01*
X381547809Y-142736380D01*
X381690666Y-142784000D01*
X381785904Y-142879238D01*
X381833523Y-142974476D01*
X381881142Y-143164952D01*
X381881142Y-143307809D01*
X381833523Y-143498285D01*
X381785904Y-143593523D01*
X381690666Y-143688761D01*
X381547809Y-143736380D01*
X381309714Y-143736380D01*
X382452571Y-143164952D02*
X382357333Y-143117333D01*
X382309714Y-143069714D01*
X382262095Y-142974476D01*
X382262095Y-142926857D01*
X382309714Y-142831619D01*
X382357333Y-142784000D01*
X382452571Y-142736380D01*
X382643047Y-142736380D01*
X382738285Y-142784000D01*
X382785904Y-142831619D01*
X382833523Y-142926857D01*
X382833523Y-142974476D01*
X382785904Y-143069714D01*
X382738285Y-143117333D01*
X382643047Y-143164952D01*
X382452571Y-143164952D01*
X382357333Y-143212571D01*
X382309714Y-143260190D01*
X382262095Y-143355428D01*
X382262095Y-143545904D01*
X382309714Y-143641142D01*
X382357333Y-143688761D01*
X382452571Y-143736380D01*
X382643047Y-143736380D01*
X382738285Y-143688761D01*
X382785904Y-143641142D01*
X382833523Y-143545904D01*
X382833523Y-143355428D01*
X382785904Y-143260190D01*
X382738285Y-143212571D01*
X382643047Y-143164952D01*
X383785904Y-143736380D02*
X383214476Y-143736380D01*
X383500190Y-143736380D02*
X383500190Y-142736380D01*
X383404952Y-142879238D01*
X383309714Y-142974476D01*
X383214476Y-143022095D01*
X370756380Y-162758285D02*
X369756380Y-162758285D01*
X369756380Y-162520190D01*
X369804000Y-162377333D01*
X369899238Y-162282095D01*
X369994476Y-162234476D01*
X370184952Y-162186857D01*
X370327809Y-162186857D01*
X370518285Y-162234476D01*
X370613523Y-162282095D01*
X370708761Y-162377333D01*
X370756380Y-162520190D01*
X370756380Y-162758285D01*
X370184952Y-161615428D02*
X370137333Y-161710666D01*
X370089714Y-161758285D01*
X369994476Y-161805904D01*
X369946857Y-161805904D01*
X369851619Y-161758285D01*
X369804000Y-161710666D01*
X369756380Y-161615428D01*
X369756380Y-161424952D01*
X369804000Y-161329714D01*
X369851619Y-161282095D01*
X369946857Y-161234476D01*
X369994476Y-161234476D01*
X370089714Y-161282095D01*
X370137333Y-161329714D01*
X370184952Y-161424952D01*
X370184952Y-161615428D01*
X370232571Y-161710666D01*
X370280190Y-161758285D01*
X370375428Y-161805904D01*
X370565904Y-161805904D01*
X370661142Y-161758285D01*
X370708761Y-161710666D01*
X370756380Y-161615428D01*
X370756380Y-161424952D01*
X370708761Y-161329714D01*
X370661142Y-161282095D01*
X370565904Y-161234476D01*
X370375428Y-161234476D01*
X370280190Y-161282095D01*
X370232571Y-161329714D01*
X370184952Y-161424952D01*
X369756380Y-160615428D02*
X369756380Y-160520190D01*
X369804000Y-160424952D01*
X369851619Y-160377333D01*
X369946857Y-160329714D01*
X370137333Y-160282095D01*
X370375428Y-160282095D01*
X370565904Y-160329714D01*
X370661142Y-160377333D01*
X370708761Y-160424952D01*
X370756380Y-160520190D01*
X370756380Y-160615428D01*
X370708761Y-160710666D01*
X370661142Y-160758285D01*
X370565904Y-160805904D01*
X370375428Y-160853523D01*
X370137333Y-160853523D01*
X369946857Y-160805904D01*
X369851619Y-160758285D01*
X369804000Y-160710666D01*
X369756380Y-160615428D01*
X342816380Y-162758285D02*
X341816380Y-162758285D01*
X341816380Y-162520190D01*
X341864000Y-162377333D01*
X341959238Y-162282095D01*
X342054476Y-162234476D01*
X342244952Y-162186857D01*
X342387809Y-162186857D01*
X342578285Y-162234476D01*
X342673523Y-162282095D01*
X342768761Y-162377333D01*
X342816380Y-162520190D01*
X342816380Y-162758285D01*
X341816380Y-161853523D02*
X341816380Y-161186857D01*
X342816380Y-161615428D01*
X342816380Y-160758285D02*
X342816380Y-160567809D01*
X342768761Y-160472571D01*
X342721142Y-160424952D01*
X342578285Y-160329714D01*
X342387809Y-160282095D01*
X342006857Y-160282095D01*
X341911619Y-160329714D01*
X341864000Y-160377333D01*
X341816380Y-160472571D01*
X341816380Y-160663047D01*
X341864000Y-160758285D01*
X341911619Y-160805904D01*
X342006857Y-160853523D01*
X342244952Y-160853523D01*
X342340190Y-160805904D01*
X342387809Y-160758285D01*
X342435428Y-160663047D01*
X342435428Y-160472571D01*
X342387809Y-160377333D01*
X342340190Y-160329714D01*
X342244952Y-160282095D01*
X303446380Y-162504285D02*
X302446380Y-162504285D01*
X302446380Y-162266190D01*
X302494000Y-162123333D01*
X302589238Y-162028095D01*
X302684476Y-161980476D01*
X302874952Y-161932857D01*
X303017809Y-161932857D01*
X303208285Y-161980476D01*
X303303523Y-162028095D01*
X303398761Y-162123333D01*
X303446380Y-162266190D01*
X303446380Y-162504285D01*
X302446380Y-161599523D02*
X302446380Y-160932857D01*
X303446380Y-161361428D01*
X302874952Y-160409047D02*
X302827333Y-160504285D01*
X302779714Y-160551904D01*
X302684476Y-160599523D01*
X302636857Y-160599523D01*
X302541619Y-160551904D01*
X302494000Y-160504285D01*
X302446380Y-160409047D01*
X302446380Y-160218571D01*
X302494000Y-160123333D01*
X302541619Y-160075714D01*
X302636857Y-160028095D01*
X302684476Y-160028095D01*
X302779714Y-160075714D01*
X302827333Y-160123333D01*
X302874952Y-160218571D01*
X302874952Y-160409047D01*
X302922571Y-160504285D01*
X302970190Y-160551904D01*
X303065428Y-160599523D01*
X303255904Y-160599523D01*
X303351142Y-160551904D01*
X303398761Y-160504285D01*
X303446380Y-160409047D01*
X303446380Y-160218571D01*
X303398761Y-160123333D01*
X303351142Y-160075714D01*
X303255904Y-160028095D01*
X303065428Y-160028095D01*
X302970190Y-160075714D01*
X302922571Y-160123333D01*
X302874952Y-160218571D01*
X283634380Y-162504285D02*
X282634380Y-162504285D01*
X282634380Y-162266190D01*
X282682000Y-162123333D01*
X282777238Y-162028095D01*
X282872476Y-161980476D01*
X283062952Y-161932857D01*
X283205809Y-161932857D01*
X283396285Y-161980476D01*
X283491523Y-162028095D01*
X283586761Y-162123333D01*
X283634380Y-162266190D01*
X283634380Y-162504285D01*
X282634380Y-161599523D02*
X282634380Y-160932857D01*
X283634380Y-161361428D01*
X282634380Y-160647142D02*
X282634380Y-159980476D01*
X283634380Y-160409047D01*
X264584380Y-162504285D02*
X263584380Y-162504285D01*
X263584380Y-162266190D01*
X263632000Y-162123333D01*
X263727238Y-162028095D01*
X263822476Y-161980476D01*
X264012952Y-161932857D01*
X264155809Y-161932857D01*
X264346285Y-161980476D01*
X264441523Y-162028095D01*
X264536761Y-162123333D01*
X264584380Y-162266190D01*
X264584380Y-162504285D01*
X263584380Y-161599523D02*
X263584380Y-160932857D01*
X264584380Y-161361428D01*
X263584380Y-160123333D02*
X263584380Y-160313809D01*
X263632000Y-160409047D01*
X263679619Y-160456666D01*
X263822476Y-160551904D01*
X264012952Y-160599523D01*
X264393904Y-160599523D01*
X264489142Y-160551904D01*
X264536761Y-160504285D01*
X264584380Y-160409047D01*
X264584380Y-160218571D01*
X264536761Y-160123333D01*
X264489142Y-160075714D01*
X264393904Y-160028095D01*
X264155809Y-160028095D01*
X264060571Y-160075714D01*
X264012952Y-160123333D01*
X263965333Y-160218571D01*
X263965333Y-160409047D01*
X264012952Y-160504285D01*
X264060571Y-160551904D01*
X264155809Y-160599523D01*
X245280380Y-162504285D02*
X244280380Y-162504285D01*
X244280380Y-162266190D01*
X244328000Y-162123333D01*
X244423238Y-162028095D01*
X244518476Y-161980476D01*
X244708952Y-161932857D01*
X244851809Y-161932857D01*
X245042285Y-161980476D01*
X245137523Y-162028095D01*
X245232761Y-162123333D01*
X245280380Y-162266190D01*
X245280380Y-162504285D01*
X244280380Y-161599523D02*
X244280380Y-160932857D01*
X245280380Y-161361428D01*
X244280380Y-160075714D02*
X244280380Y-160551904D01*
X244756571Y-160599523D01*
X244708952Y-160551904D01*
X244661333Y-160456666D01*
X244661333Y-160218571D01*
X244708952Y-160123333D01*
X244756571Y-160075714D01*
X244851809Y-160028095D01*
X245089904Y-160028095D01*
X245185142Y-160075714D01*
X245232761Y-160123333D01*
X245280380Y-160218571D01*
X245280380Y-160456666D01*
X245232761Y-160551904D01*
X245185142Y-160599523D01*
X139108380Y-162504285D02*
X138108380Y-162504285D01*
X138108380Y-162266190D01*
X138156000Y-162123333D01*
X138251238Y-162028095D01*
X138346476Y-161980476D01*
X138536952Y-161932857D01*
X138679809Y-161932857D01*
X138870285Y-161980476D01*
X138965523Y-162028095D01*
X139060761Y-162123333D01*
X139108380Y-162266190D01*
X139108380Y-162504285D01*
X138108380Y-161599523D02*
X138108380Y-160932857D01*
X139108380Y-161361428D01*
X138441714Y-160123333D02*
X139108380Y-160123333D01*
X138060761Y-160361428D02*
X138775047Y-160599523D01*
X138775047Y-159980476D01*
X83736380Y-162504285D02*
X82736380Y-162504285D01*
X82736380Y-162266190D01*
X82784000Y-162123333D01*
X82879238Y-162028095D01*
X82974476Y-161980476D01*
X83164952Y-161932857D01*
X83307809Y-161932857D01*
X83498285Y-161980476D01*
X83593523Y-162028095D01*
X83688761Y-162123333D01*
X83736380Y-162266190D01*
X83736380Y-162504285D01*
X82736380Y-161599523D02*
X82736380Y-160932857D01*
X83736380Y-161361428D01*
X82736380Y-160647142D02*
X82736380Y-160028095D01*
X83117333Y-160361428D01*
X83117333Y-160218571D01*
X83164952Y-160123333D01*
X83212571Y-160075714D01*
X83307809Y-160028095D01*
X83545904Y-160028095D01*
X83641142Y-160075714D01*
X83688761Y-160123333D01*
X83736380Y-160218571D01*
X83736380Y-160504285D01*
X83688761Y-160599523D01*
X83641142Y-160647142D01*
X50462380Y-162504285D02*
X49462380Y-162504285D01*
X49462380Y-162266190D01*
X49510000Y-162123333D01*
X49605238Y-162028095D01*
X49700476Y-161980476D01*
X49890952Y-161932857D01*
X50033809Y-161932857D01*
X50224285Y-161980476D01*
X50319523Y-162028095D01*
X50414761Y-162123333D01*
X50462380Y-162266190D01*
X50462380Y-162504285D01*
X49462380Y-161599523D02*
X49462380Y-160932857D01*
X50462380Y-161361428D01*
X49557619Y-160599523D02*
X49510000Y-160551904D01*
X49462380Y-160456666D01*
X49462380Y-160218571D01*
X49510000Y-160123333D01*
X49557619Y-160075714D01*
X49652857Y-160028095D01*
X49748095Y-160028095D01*
X49890952Y-160075714D01*
X50462380Y-160647142D01*
X50462380Y-160028095D01*
X370756380Y-143708285D02*
X369756380Y-143708285D01*
X369756380Y-143470190D01*
X369804000Y-143327333D01*
X369899238Y-143232095D01*
X369994476Y-143184476D01*
X370184952Y-143136857D01*
X370327809Y-143136857D01*
X370518285Y-143184476D01*
X370613523Y-143232095D01*
X370708761Y-143327333D01*
X370756380Y-143470190D01*
X370756380Y-143708285D01*
X369756380Y-142803523D02*
X369756380Y-142136857D01*
X370756380Y-142565428D01*
X370756380Y-141232095D02*
X370756380Y-141803523D01*
X370756380Y-141517809D02*
X369756380Y-141517809D01*
X369899238Y-141613047D01*
X369994476Y-141708285D01*
X370042095Y-141803523D01*
X351706380Y-143708285D02*
X350706380Y-143708285D01*
X350706380Y-143470190D01*
X350754000Y-143327333D01*
X350849238Y-143232095D01*
X350944476Y-143184476D01*
X351134952Y-143136857D01*
X351277809Y-143136857D01*
X351468285Y-143184476D01*
X351563523Y-143232095D01*
X351658761Y-143327333D01*
X351706380Y-143470190D01*
X351706380Y-143708285D01*
X350706380Y-142803523D02*
X350706380Y-142136857D01*
X351706380Y-142565428D01*
X350706380Y-141565428D02*
X350706380Y-141470190D01*
X350754000Y-141374952D01*
X350801619Y-141327333D01*
X350896857Y-141279714D01*
X351087333Y-141232095D01*
X351325428Y-141232095D01*
X351515904Y-141279714D01*
X351611142Y-141327333D01*
X351658761Y-141374952D01*
X351706380Y-141470190D01*
X351706380Y-141565428D01*
X351658761Y-141660666D01*
X351611142Y-141708285D01*
X351515904Y-141755904D01*
X351325428Y-141803523D01*
X351087333Y-141803523D01*
X350896857Y-141755904D01*
X350801619Y-141708285D01*
X350754000Y-141660666D01*
X350706380Y-141565428D01*
X332402380Y-143708285D02*
X331402380Y-143708285D01*
X331402380Y-143470190D01*
X331450000Y-143327333D01*
X331545238Y-143232095D01*
X331640476Y-143184476D01*
X331830952Y-143136857D01*
X331973809Y-143136857D01*
X332164285Y-143184476D01*
X332259523Y-143232095D01*
X332354761Y-143327333D01*
X332402380Y-143470190D01*
X332402380Y-143708285D01*
X331402380Y-142279714D02*
X331402380Y-142470190D01*
X331450000Y-142565428D01*
X331497619Y-142613047D01*
X331640476Y-142708285D01*
X331830952Y-142755904D01*
X332211904Y-142755904D01*
X332307142Y-142708285D01*
X332354761Y-142660666D01*
X332402380Y-142565428D01*
X332402380Y-142374952D01*
X332354761Y-142279714D01*
X332307142Y-142232095D01*
X332211904Y-142184476D01*
X331973809Y-142184476D01*
X331878571Y-142232095D01*
X331830952Y-142279714D01*
X331783333Y-142374952D01*
X331783333Y-142565428D01*
X331830952Y-142660666D01*
X331878571Y-142708285D01*
X331973809Y-142755904D01*
X332402380Y-141708285D02*
X332402380Y-141517809D01*
X332354761Y-141422571D01*
X332307142Y-141374952D01*
X332164285Y-141279714D01*
X331973809Y-141232095D01*
X331592857Y-141232095D01*
X331497619Y-141279714D01*
X331450000Y-141327333D01*
X331402380Y-141422571D01*
X331402380Y-141613047D01*
X331450000Y-141708285D01*
X331497619Y-141755904D01*
X331592857Y-141803523D01*
X331830952Y-141803523D01*
X331926190Y-141755904D01*
X331973809Y-141708285D01*
X332021428Y-141613047D01*
X332021428Y-141422571D01*
X331973809Y-141327333D01*
X331926190Y-141279714D01*
X331830952Y-141232095D01*
X303700380Y-143708285D02*
X302700380Y-143708285D01*
X302700380Y-143470190D01*
X302748000Y-143327333D01*
X302843238Y-143232095D01*
X302938476Y-143184476D01*
X303128952Y-143136857D01*
X303271809Y-143136857D01*
X303462285Y-143184476D01*
X303557523Y-143232095D01*
X303652761Y-143327333D01*
X303700380Y-143470190D01*
X303700380Y-143708285D01*
X302700380Y-142279714D02*
X302700380Y-142470190D01*
X302748000Y-142565428D01*
X302795619Y-142613047D01*
X302938476Y-142708285D01*
X303128952Y-142755904D01*
X303509904Y-142755904D01*
X303605142Y-142708285D01*
X303652761Y-142660666D01*
X303700380Y-142565428D01*
X303700380Y-142374952D01*
X303652761Y-142279714D01*
X303605142Y-142232095D01*
X303509904Y-142184476D01*
X303271809Y-142184476D01*
X303176571Y-142232095D01*
X303128952Y-142279714D01*
X303081333Y-142374952D01*
X303081333Y-142565428D01*
X303128952Y-142660666D01*
X303176571Y-142708285D01*
X303271809Y-142755904D01*
X302700380Y-141851142D02*
X302700380Y-141184476D01*
X303700380Y-141613047D01*
X282364380Y-143708285D02*
X281364380Y-143708285D01*
X281364380Y-143470190D01*
X281412000Y-143327333D01*
X281507238Y-143232095D01*
X281602476Y-143184476D01*
X281792952Y-143136857D01*
X281935809Y-143136857D01*
X282126285Y-143184476D01*
X282221523Y-143232095D01*
X282316761Y-143327333D01*
X282364380Y-143470190D01*
X282364380Y-143708285D01*
X281364380Y-142279714D02*
X281364380Y-142470190D01*
X281412000Y-142565428D01*
X281459619Y-142613047D01*
X281602476Y-142708285D01*
X281792952Y-142755904D01*
X282173904Y-142755904D01*
X282269142Y-142708285D01*
X282316761Y-142660666D01*
X282364380Y-142565428D01*
X282364380Y-142374952D01*
X282316761Y-142279714D01*
X282269142Y-142232095D01*
X282173904Y-142184476D01*
X281935809Y-142184476D01*
X281840571Y-142232095D01*
X281792952Y-142279714D01*
X281745333Y-142374952D01*
X281745333Y-142565428D01*
X281792952Y-142660666D01*
X281840571Y-142708285D01*
X281935809Y-142755904D01*
X281364380Y-141327333D02*
X281364380Y-141517809D01*
X281412000Y-141613047D01*
X281459619Y-141660666D01*
X281602476Y-141755904D01*
X281792952Y-141803523D01*
X282173904Y-141803523D01*
X282269142Y-141755904D01*
X282316761Y-141708285D01*
X282364380Y-141613047D01*
X282364380Y-141422571D01*
X282316761Y-141327333D01*
X282269142Y-141279714D01*
X282173904Y-141232095D01*
X281935809Y-141232095D01*
X281840571Y-141279714D01*
X281792952Y-141327333D01*
X281745333Y-141422571D01*
X281745333Y-141613047D01*
X281792952Y-141708285D01*
X281840571Y-141755904D01*
X281935809Y-141803523D01*
X260774380Y-143708285D02*
X259774380Y-143708285D01*
X259774380Y-143470190D01*
X259822000Y-143327333D01*
X259917238Y-143232095D01*
X260012476Y-143184476D01*
X260202952Y-143136857D01*
X260345809Y-143136857D01*
X260536285Y-143184476D01*
X260631523Y-143232095D01*
X260726761Y-143327333D01*
X260774380Y-143470190D01*
X260774380Y-143708285D01*
X259774380Y-142279714D02*
X259774380Y-142470190D01*
X259822000Y-142565428D01*
X259869619Y-142613047D01*
X260012476Y-142708285D01*
X260202952Y-142755904D01*
X260583904Y-142755904D01*
X260679142Y-142708285D01*
X260726761Y-142660666D01*
X260774380Y-142565428D01*
X260774380Y-142374952D01*
X260726761Y-142279714D01*
X260679142Y-142232095D01*
X260583904Y-142184476D01*
X260345809Y-142184476D01*
X260250571Y-142232095D01*
X260202952Y-142279714D01*
X260155333Y-142374952D01*
X260155333Y-142565428D01*
X260202952Y-142660666D01*
X260250571Y-142708285D01*
X260345809Y-142755904D01*
X259774380Y-141279714D02*
X259774380Y-141755904D01*
X260250571Y-141803523D01*
X260202952Y-141755904D01*
X260155333Y-141660666D01*
X260155333Y-141422571D01*
X260202952Y-141327333D01*
X260250571Y-141279714D01*
X260345809Y-141232095D01*
X260583904Y-141232095D01*
X260679142Y-141279714D01*
X260726761Y-141327333D01*
X260774380Y-141422571D01*
X260774380Y-141660666D01*
X260726761Y-141755904D01*
X260679142Y-141803523D01*
X240708380Y-143708285D02*
X239708380Y-143708285D01*
X239708380Y-143470190D01*
X239756000Y-143327333D01*
X239851238Y-143232095D01*
X239946476Y-143184476D01*
X240136952Y-143136857D01*
X240279809Y-143136857D01*
X240470285Y-143184476D01*
X240565523Y-143232095D01*
X240660761Y-143327333D01*
X240708380Y-143470190D01*
X240708380Y-143708285D01*
X239708380Y-142279714D02*
X239708380Y-142470190D01*
X239756000Y-142565428D01*
X239803619Y-142613047D01*
X239946476Y-142708285D01*
X240136952Y-142755904D01*
X240517904Y-142755904D01*
X240613142Y-142708285D01*
X240660761Y-142660666D01*
X240708380Y-142565428D01*
X240708380Y-142374952D01*
X240660761Y-142279714D01*
X240613142Y-142232095D01*
X240517904Y-142184476D01*
X240279809Y-142184476D01*
X240184571Y-142232095D01*
X240136952Y-142279714D01*
X240089333Y-142374952D01*
X240089333Y-142565428D01*
X240136952Y-142660666D01*
X240184571Y-142708285D01*
X240279809Y-142755904D01*
X240041714Y-141327333D02*
X240708380Y-141327333D01*
X239660761Y-141565428D02*
X240375047Y-141803523D01*
X240375047Y-141184476D01*
X221404380Y-143454285D02*
X220404380Y-143454285D01*
X220404380Y-143216190D01*
X220452000Y-143073333D01*
X220547238Y-142978095D01*
X220642476Y-142930476D01*
X220832952Y-142882857D01*
X220975809Y-142882857D01*
X221166285Y-142930476D01*
X221261523Y-142978095D01*
X221356761Y-143073333D01*
X221404380Y-143216190D01*
X221404380Y-143454285D01*
X220404380Y-142025714D02*
X220404380Y-142216190D01*
X220452000Y-142311428D01*
X220499619Y-142359047D01*
X220642476Y-142454285D01*
X220832952Y-142501904D01*
X221213904Y-142501904D01*
X221309142Y-142454285D01*
X221356761Y-142406666D01*
X221404380Y-142311428D01*
X221404380Y-142120952D01*
X221356761Y-142025714D01*
X221309142Y-141978095D01*
X221213904Y-141930476D01*
X220975809Y-141930476D01*
X220880571Y-141978095D01*
X220832952Y-142025714D01*
X220785333Y-142120952D01*
X220785333Y-142311428D01*
X220832952Y-142406666D01*
X220880571Y-142454285D01*
X220975809Y-142501904D01*
X220404380Y-141597142D02*
X220404380Y-140978095D01*
X220785333Y-141311428D01*
X220785333Y-141168571D01*
X220832952Y-141073333D01*
X220880571Y-141025714D01*
X220975809Y-140978095D01*
X221213904Y-140978095D01*
X221309142Y-141025714D01*
X221356761Y-141073333D01*
X221404380Y-141168571D01*
X221404380Y-141454285D01*
X221356761Y-141549523D01*
X221309142Y-141597142D01*
X202100380Y-143454285D02*
X201100380Y-143454285D01*
X201100380Y-143216190D01*
X201148000Y-143073333D01*
X201243238Y-142978095D01*
X201338476Y-142930476D01*
X201528952Y-142882857D01*
X201671809Y-142882857D01*
X201862285Y-142930476D01*
X201957523Y-142978095D01*
X202052761Y-143073333D01*
X202100380Y-143216190D01*
X202100380Y-143454285D01*
X201100380Y-142025714D02*
X201100380Y-142216190D01*
X201148000Y-142311428D01*
X201195619Y-142359047D01*
X201338476Y-142454285D01*
X201528952Y-142501904D01*
X201909904Y-142501904D01*
X202005142Y-142454285D01*
X202052761Y-142406666D01*
X202100380Y-142311428D01*
X202100380Y-142120952D01*
X202052761Y-142025714D01*
X202005142Y-141978095D01*
X201909904Y-141930476D01*
X201671809Y-141930476D01*
X201576571Y-141978095D01*
X201528952Y-142025714D01*
X201481333Y-142120952D01*
X201481333Y-142311428D01*
X201528952Y-142406666D01*
X201576571Y-142454285D01*
X201671809Y-142501904D01*
X201195619Y-141549523D02*
X201148000Y-141501904D01*
X201100380Y-141406666D01*
X201100380Y-141168571D01*
X201148000Y-141073333D01*
X201195619Y-141025714D01*
X201290857Y-140978095D01*
X201386095Y-140978095D01*
X201528952Y-141025714D01*
X202100380Y-141597142D01*
X202100380Y-140978095D01*
X183050380Y-143454285D02*
X182050380Y-143454285D01*
X182050380Y-143216190D01*
X182098000Y-143073333D01*
X182193238Y-142978095D01*
X182288476Y-142930476D01*
X182478952Y-142882857D01*
X182621809Y-142882857D01*
X182812285Y-142930476D01*
X182907523Y-142978095D01*
X183002761Y-143073333D01*
X183050380Y-143216190D01*
X183050380Y-143454285D01*
X182050380Y-142025714D02*
X182050380Y-142216190D01*
X182098000Y-142311428D01*
X182145619Y-142359047D01*
X182288476Y-142454285D01*
X182478952Y-142501904D01*
X182859904Y-142501904D01*
X182955142Y-142454285D01*
X183002761Y-142406666D01*
X183050380Y-142311428D01*
X183050380Y-142120952D01*
X183002761Y-142025714D01*
X182955142Y-141978095D01*
X182859904Y-141930476D01*
X182621809Y-141930476D01*
X182526571Y-141978095D01*
X182478952Y-142025714D01*
X182431333Y-142120952D01*
X182431333Y-142311428D01*
X182478952Y-142406666D01*
X182526571Y-142454285D01*
X182621809Y-142501904D01*
X183050380Y-140978095D02*
X183050380Y-141549523D01*
X183050380Y-141263809D02*
X182050380Y-141263809D01*
X182193238Y-141359047D01*
X182288476Y-141454285D01*
X182336095Y-141549523D01*
X163746380Y-143454285D02*
X162746380Y-143454285D01*
X162746380Y-143216190D01*
X162794000Y-143073333D01*
X162889238Y-142978095D01*
X162984476Y-142930476D01*
X163174952Y-142882857D01*
X163317809Y-142882857D01*
X163508285Y-142930476D01*
X163603523Y-142978095D01*
X163698761Y-143073333D01*
X163746380Y-143216190D01*
X163746380Y-143454285D01*
X162746380Y-142025714D02*
X162746380Y-142216190D01*
X162794000Y-142311428D01*
X162841619Y-142359047D01*
X162984476Y-142454285D01*
X163174952Y-142501904D01*
X163555904Y-142501904D01*
X163651142Y-142454285D01*
X163698761Y-142406666D01*
X163746380Y-142311428D01*
X163746380Y-142120952D01*
X163698761Y-142025714D01*
X163651142Y-141978095D01*
X163555904Y-141930476D01*
X163317809Y-141930476D01*
X163222571Y-141978095D01*
X163174952Y-142025714D01*
X163127333Y-142120952D01*
X163127333Y-142311428D01*
X163174952Y-142406666D01*
X163222571Y-142454285D01*
X163317809Y-142501904D01*
X162746380Y-141311428D02*
X162746380Y-141216190D01*
X162794000Y-141120952D01*
X162841619Y-141073333D01*
X162936857Y-141025714D01*
X163127333Y-140978095D01*
X163365428Y-140978095D01*
X163555904Y-141025714D01*
X163651142Y-141073333D01*
X163698761Y-141120952D01*
X163746380Y-141216190D01*
X163746380Y-141311428D01*
X163698761Y-141406666D01*
X163651142Y-141454285D01*
X163555904Y-141501904D01*
X163365428Y-141549523D01*
X163127333Y-141549523D01*
X162936857Y-141501904D01*
X162841619Y-141454285D01*
X162794000Y-141406666D01*
X162746380Y-141311428D01*
X144696380Y-143454285D02*
X143696380Y-143454285D01*
X143696380Y-143216190D01*
X143744000Y-143073333D01*
X143839238Y-142978095D01*
X143934476Y-142930476D01*
X144124952Y-142882857D01*
X144267809Y-142882857D01*
X144458285Y-142930476D01*
X144553523Y-142978095D01*
X144648761Y-143073333D01*
X144696380Y-143216190D01*
X144696380Y-143454285D01*
X143696380Y-141978095D02*
X143696380Y-142454285D01*
X144172571Y-142501904D01*
X144124952Y-142454285D01*
X144077333Y-142359047D01*
X144077333Y-142120952D01*
X144124952Y-142025714D01*
X144172571Y-141978095D01*
X144267809Y-141930476D01*
X144505904Y-141930476D01*
X144601142Y-141978095D01*
X144648761Y-142025714D01*
X144696380Y-142120952D01*
X144696380Y-142359047D01*
X144648761Y-142454285D01*
X144601142Y-142501904D01*
X144696380Y-141454285D02*
X144696380Y-141263809D01*
X144648761Y-141168571D01*
X144601142Y-141120952D01*
X144458285Y-141025714D01*
X144267809Y-140978095D01*
X143886857Y-140978095D01*
X143791619Y-141025714D01*
X143744000Y-141073333D01*
X143696380Y-141168571D01*
X143696380Y-141359047D01*
X143744000Y-141454285D01*
X143791619Y-141501904D01*
X143886857Y-141549523D01*
X144124952Y-141549523D01*
X144220190Y-141501904D01*
X144267809Y-141454285D01*
X144315428Y-141359047D01*
X144315428Y-141168571D01*
X144267809Y-141073333D01*
X144220190Y-141025714D01*
X144124952Y-140978095D01*
X125646380Y-143454285D02*
X124646380Y-143454285D01*
X124646380Y-143216190D01*
X124694000Y-143073333D01*
X124789238Y-142978095D01*
X124884476Y-142930476D01*
X125074952Y-142882857D01*
X125217809Y-142882857D01*
X125408285Y-142930476D01*
X125503523Y-142978095D01*
X125598761Y-143073333D01*
X125646380Y-143216190D01*
X125646380Y-143454285D01*
X124646380Y-141978095D02*
X124646380Y-142454285D01*
X125122571Y-142501904D01*
X125074952Y-142454285D01*
X125027333Y-142359047D01*
X125027333Y-142120952D01*
X125074952Y-142025714D01*
X125122571Y-141978095D01*
X125217809Y-141930476D01*
X125455904Y-141930476D01*
X125551142Y-141978095D01*
X125598761Y-142025714D01*
X125646380Y-142120952D01*
X125646380Y-142359047D01*
X125598761Y-142454285D01*
X125551142Y-142501904D01*
X125074952Y-141359047D02*
X125027333Y-141454285D01*
X124979714Y-141501904D01*
X124884476Y-141549523D01*
X124836857Y-141549523D01*
X124741619Y-141501904D01*
X124694000Y-141454285D01*
X124646380Y-141359047D01*
X124646380Y-141168571D01*
X124694000Y-141073333D01*
X124741619Y-141025714D01*
X124836857Y-140978095D01*
X124884476Y-140978095D01*
X124979714Y-141025714D01*
X125027333Y-141073333D01*
X125074952Y-141168571D01*
X125074952Y-141359047D01*
X125122571Y-141454285D01*
X125170190Y-141501904D01*
X125265428Y-141549523D01*
X125455904Y-141549523D01*
X125551142Y-141501904D01*
X125598761Y-141454285D01*
X125646380Y-141359047D01*
X125646380Y-141168571D01*
X125598761Y-141073333D01*
X125551142Y-141025714D01*
X125455904Y-140978095D01*
X125265428Y-140978095D01*
X125170190Y-141025714D01*
X125122571Y-141073333D01*
X125074952Y-141168571D01*
X106596380Y-143454285D02*
X105596380Y-143454285D01*
X105596380Y-143216190D01*
X105644000Y-143073333D01*
X105739238Y-142978095D01*
X105834476Y-142930476D01*
X106024952Y-142882857D01*
X106167809Y-142882857D01*
X106358285Y-142930476D01*
X106453523Y-142978095D01*
X106548761Y-143073333D01*
X106596380Y-143216190D01*
X106596380Y-143454285D01*
X105596380Y-141978095D02*
X105596380Y-142454285D01*
X106072571Y-142501904D01*
X106024952Y-142454285D01*
X105977333Y-142359047D01*
X105977333Y-142120952D01*
X106024952Y-142025714D01*
X106072571Y-141978095D01*
X106167809Y-141930476D01*
X106405904Y-141930476D01*
X106501142Y-141978095D01*
X106548761Y-142025714D01*
X106596380Y-142120952D01*
X106596380Y-142359047D01*
X106548761Y-142454285D01*
X106501142Y-142501904D01*
X105596380Y-141597142D02*
X105596380Y-140930476D01*
X106596380Y-141359047D01*
X87546380Y-143454285D02*
X86546380Y-143454285D01*
X86546380Y-143216190D01*
X86594000Y-143073333D01*
X86689238Y-142978095D01*
X86784476Y-142930476D01*
X86974952Y-142882857D01*
X87117809Y-142882857D01*
X87308285Y-142930476D01*
X87403523Y-142978095D01*
X87498761Y-143073333D01*
X87546380Y-143216190D01*
X87546380Y-143454285D01*
X86546380Y-141978095D02*
X86546380Y-142454285D01*
X87022571Y-142501904D01*
X86974952Y-142454285D01*
X86927333Y-142359047D01*
X86927333Y-142120952D01*
X86974952Y-142025714D01*
X87022571Y-141978095D01*
X87117809Y-141930476D01*
X87355904Y-141930476D01*
X87451142Y-141978095D01*
X87498761Y-142025714D01*
X87546380Y-142120952D01*
X87546380Y-142359047D01*
X87498761Y-142454285D01*
X87451142Y-142501904D01*
X86546380Y-141073333D02*
X86546380Y-141263809D01*
X86594000Y-141359047D01*
X86641619Y-141406666D01*
X86784476Y-141501904D01*
X86974952Y-141549523D01*
X87355904Y-141549523D01*
X87451142Y-141501904D01*
X87498761Y-141454285D01*
X87546380Y-141359047D01*
X87546380Y-141168571D01*
X87498761Y-141073333D01*
X87451142Y-141025714D01*
X87355904Y-140978095D01*
X87117809Y-140978095D01*
X87022571Y-141025714D01*
X86974952Y-141073333D01*
X86927333Y-141168571D01*
X86927333Y-141359047D01*
X86974952Y-141454285D01*
X87022571Y-141501904D01*
X87117809Y-141549523D01*
X57828380Y-143200285D02*
X56828380Y-143200285D01*
X56828380Y-142962190D01*
X56876000Y-142819333D01*
X56971238Y-142724095D01*
X57066476Y-142676476D01*
X57256952Y-142628857D01*
X57399809Y-142628857D01*
X57590285Y-142676476D01*
X57685523Y-142724095D01*
X57780761Y-142819333D01*
X57828380Y-142962190D01*
X57828380Y-143200285D01*
X56828380Y-141724095D02*
X56828380Y-142200285D01*
X57304571Y-142247904D01*
X57256952Y-142200285D01*
X57209333Y-142105047D01*
X57209333Y-141866952D01*
X57256952Y-141771714D01*
X57304571Y-141724095D01*
X57399809Y-141676476D01*
X57637904Y-141676476D01*
X57733142Y-141724095D01*
X57780761Y-141771714D01*
X57828380Y-141866952D01*
X57828380Y-142105047D01*
X57780761Y-142200285D01*
X57733142Y-142247904D01*
X56828380Y-140771714D02*
X56828380Y-141247904D01*
X57304571Y-141295523D01*
X57256952Y-141247904D01*
X57209333Y-141152666D01*
X57209333Y-140914571D01*
X57256952Y-140819333D01*
X57304571Y-140771714D01*
X57399809Y-140724095D01*
X57637904Y-140724095D01*
X57733142Y-140771714D01*
X57780761Y-140819333D01*
X57828380Y-140914571D01*
X57828380Y-141152666D01*
X57780761Y-141247904D01*
X57733142Y-141295523D01*
X389806380Y-124404285D02*
X388806380Y-124404285D01*
X388806380Y-124166190D01*
X388854000Y-124023333D01*
X388949238Y-123928095D01*
X389044476Y-123880476D01*
X389234952Y-123832857D01*
X389377809Y-123832857D01*
X389568285Y-123880476D01*
X389663523Y-123928095D01*
X389758761Y-124023333D01*
X389806380Y-124166190D01*
X389806380Y-124404285D01*
X388806380Y-122928095D02*
X388806380Y-123404285D01*
X389282571Y-123451904D01*
X389234952Y-123404285D01*
X389187333Y-123309047D01*
X389187333Y-123070952D01*
X389234952Y-122975714D01*
X389282571Y-122928095D01*
X389377809Y-122880476D01*
X389615904Y-122880476D01*
X389711142Y-122928095D01*
X389758761Y-122975714D01*
X389806380Y-123070952D01*
X389806380Y-123309047D01*
X389758761Y-123404285D01*
X389711142Y-123451904D01*
X389139714Y-122023333D02*
X389806380Y-122023333D01*
X388758761Y-122261428D02*
X389473047Y-122499523D01*
X389473047Y-121880476D01*
X370756380Y-124404285D02*
X369756380Y-124404285D01*
X369756380Y-124166190D01*
X369804000Y-124023333D01*
X369899238Y-123928095D01*
X369994476Y-123880476D01*
X370184952Y-123832857D01*
X370327809Y-123832857D01*
X370518285Y-123880476D01*
X370613523Y-123928095D01*
X370708761Y-124023333D01*
X370756380Y-124166190D01*
X370756380Y-124404285D01*
X369756380Y-122928095D02*
X369756380Y-123404285D01*
X370232571Y-123451904D01*
X370184952Y-123404285D01*
X370137333Y-123309047D01*
X370137333Y-123070952D01*
X370184952Y-122975714D01*
X370232571Y-122928095D01*
X370327809Y-122880476D01*
X370565904Y-122880476D01*
X370661142Y-122928095D01*
X370708761Y-122975714D01*
X370756380Y-123070952D01*
X370756380Y-123309047D01*
X370708761Y-123404285D01*
X370661142Y-123451904D01*
X369756380Y-122547142D02*
X369756380Y-121928095D01*
X370137333Y-122261428D01*
X370137333Y-122118571D01*
X370184952Y-122023333D01*
X370232571Y-121975714D01*
X370327809Y-121928095D01*
X370565904Y-121928095D01*
X370661142Y-121975714D01*
X370708761Y-122023333D01*
X370756380Y-122118571D01*
X370756380Y-122404285D01*
X370708761Y-122499523D01*
X370661142Y-122547142D01*
X351706380Y-124404285D02*
X350706380Y-124404285D01*
X350706380Y-124166190D01*
X350754000Y-124023333D01*
X350849238Y-123928095D01*
X350944476Y-123880476D01*
X351134952Y-123832857D01*
X351277809Y-123832857D01*
X351468285Y-123880476D01*
X351563523Y-123928095D01*
X351658761Y-124023333D01*
X351706380Y-124166190D01*
X351706380Y-124404285D01*
X350706380Y-122928095D02*
X350706380Y-123404285D01*
X351182571Y-123451904D01*
X351134952Y-123404285D01*
X351087333Y-123309047D01*
X351087333Y-123070952D01*
X351134952Y-122975714D01*
X351182571Y-122928095D01*
X351277809Y-122880476D01*
X351515904Y-122880476D01*
X351611142Y-122928095D01*
X351658761Y-122975714D01*
X351706380Y-123070952D01*
X351706380Y-123309047D01*
X351658761Y-123404285D01*
X351611142Y-123451904D01*
X350801619Y-122499523D02*
X350754000Y-122451904D01*
X350706380Y-122356666D01*
X350706380Y-122118571D01*
X350754000Y-122023333D01*
X350801619Y-121975714D01*
X350896857Y-121928095D01*
X350992095Y-121928095D01*
X351134952Y-121975714D01*
X351706380Y-122547142D01*
X351706380Y-121928095D01*
X332656380Y-124404285D02*
X331656380Y-124404285D01*
X331656380Y-124166190D01*
X331704000Y-124023333D01*
X331799238Y-123928095D01*
X331894476Y-123880476D01*
X332084952Y-123832857D01*
X332227809Y-123832857D01*
X332418285Y-123880476D01*
X332513523Y-123928095D01*
X332608761Y-124023333D01*
X332656380Y-124166190D01*
X332656380Y-124404285D01*
X331656380Y-122928095D02*
X331656380Y-123404285D01*
X332132571Y-123451904D01*
X332084952Y-123404285D01*
X332037333Y-123309047D01*
X332037333Y-123070952D01*
X332084952Y-122975714D01*
X332132571Y-122928095D01*
X332227809Y-122880476D01*
X332465904Y-122880476D01*
X332561142Y-122928095D01*
X332608761Y-122975714D01*
X332656380Y-123070952D01*
X332656380Y-123309047D01*
X332608761Y-123404285D01*
X332561142Y-123451904D01*
X332656380Y-121928095D02*
X332656380Y-122499523D01*
X332656380Y-122213809D02*
X331656380Y-122213809D01*
X331799238Y-122309047D01*
X331894476Y-122404285D01*
X331942095Y-122499523D01*
X296588380Y-124404285D02*
X295588380Y-124404285D01*
X295588380Y-124166190D01*
X295636000Y-124023333D01*
X295731238Y-123928095D01*
X295826476Y-123880476D01*
X296016952Y-123832857D01*
X296159809Y-123832857D01*
X296350285Y-123880476D01*
X296445523Y-123928095D01*
X296540761Y-124023333D01*
X296588380Y-124166190D01*
X296588380Y-124404285D01*
X295588380Y-122928095D02*
X295588380Y-123404285D01*
X296064571Y-123451904D01*
X296016952Y-123404285D01*
X295969333Y-123309047D01*
X295969333Y-123070952D01*
X296016952Y-122975714D01*
X296064571Y-122928095D01*
X296159809Y-122880476D01*
X296397904Y-122880476D01*
X296493142Y-122928095D01*
X296540761Y-122975714D01*
X296588380Y-123070952D01*
X296588380Y-123309047D01*
X296540761Y-123404285D01*
X296493142Y-123451904D01*
X295588380Y-122261428D02*
X295588380Y-122166190D01*
X295636000Y-122070952D01*
X295683619Y-122023333D01*
X295778857Y-121975714D01*
X295969333Y-121928095D01*
X296207428Y-121928095D01*
X296397904Y-121975714D01*
X296493142Y-122023333D01*
X296540761Y-122070952D01*
X296588380Y-122166190D01*
X296588380Y-122261428D01*
X296540761Y-122356666D01*
X296493142Y-122404285D01*
X296397904Y-122451904D01*
X296207428Y-122499523D01*
X295969333Y-122499523D01*
X295778857Y-122451904D01*
X295683619Y-122404285D01*
X295636000Y-122356666D01*
X295588380Y-122261428D01*
X269918380Y-124404285D02*
X268918380Y-124404285D01*
X268918380Y-124166190D01*
X268966000Y-124023333D01*
X269061238Y-123928095D01*
X269156476Y-123880476D01*
X269346952Y-123832857D01*
X269489809Y-123832857D01*
X269680285Y-123880476D01*
X269775523Y-123928095D01*
X269870761Y-124023333D01*
X269918380Y-124166190D01*
X269918380Y-124404285D01*
X269251714Y-122975714D02*
X269918380Y-122975714D01*
X268870761Y-123213809D02*
X269585047Y-123451904D01*
X269585047Y-122832857D01*
X269918380Y-122404285D02*
X269918380Y-122213809D01*
X269870761Y-122118571D01*
X269823142Y-122070952D01*
X269680285Y-121975714D01*
X269489809Y-121928095D01*
X269108857Y-121928095D01*
X269013619Y-121975714D01*
X268966000Y-122023333D01*
X268918380Y-122118571D01*
X268918380Y-122309047D01*
X268966000Y-122404285D01*
X269013619Y-122451904D01*
X269108857Y-122499523D01*
X269346952Y-122499523D01*
X269442190Y-122451904D01*
X269489809Y-122404285D01*
X269537428Y-122309047D01*
X269537428Y-122118571D01*
X269489809Y-122023333D01*
X269442190Y-121975714D01*
X269346952Y-121928095D01*
X250106380Y-124404285D02*
X249106380Y-124404285D01*
X249106380Y-124166190D01*
X249154000Y-124023333D01*
X249249238Y-123928095D01*
X249344476Y-123880476D01*
X249534952Y-123832857D01*
X249677809Y-123832857D01*
X249868285Y-123880476D01*
X249963523Y-123928095D01*
X250058761Y-124023333D01*
X250106380Y-124166190D01*
X250106380Y-124404285D01*
X249439714Y-122975714D02*
X250106380Y-122975714D01*
X249058761Y-123213809D02*
X249773047Y-123451904D01*
X249773047Y-122832857D01*
X249534952Y-122309047D02*
X249487333Y-122404285D01*
X249439714Y-122451904D01*
X249344476Y-122499523D01*
X249296857Y-122499523D01*
X249201619Y-122451904D01*
X249154000Y-122404285D01*
X249106380Y-122309047D01*
X249106380Y-122118571D01*
X249154000Y-122023333D01*
X249201619Y-121975714D01*
X249296857Y-121928095D01*
X249344476Y-121928095D01*
X249439714Y-121975714D01*
X249487333Y-122023333D01*
X249534952Y-122118571D01*
X249534952Y-122309047D01*
X249582571Y-122404285D01*
X249630190Y-122451904D01*
X249725428Y-122499523D01*
X249915904Y-122499523D01*
X250011142Y-122451904D01*
X250058761Y-122404285D01*
X250106380Y-122309047D01*
X250106380Y-122118571D01*
X250058761Y-122023333D01*
X250011142Y-121975714D01*
X249915904Y-121928095D01*
X249725428Y-121928095D01*
X249630190Y-121975714D01*
X249582571Y-122023333D01*
X249534952Y-122118571D01*
X231056380Y-124404285D02*
X230056380Y-124404285D01*
X230056380Y-124166190D01*
X230104000Y-124023333D01*
X230199238Y-123928095D01*
X230294476Y-123880476D01*
X230484952Y-123832857D01*
X230627809Y-123832857D01*
X230818285Y-123880476D01*
X230913523Y-123928095D01*
X231008761Y-124023333D01*
X231056380Y-124166190D01*
X231056380Y-124404285D01*
X230389714Y-122975714D02*
X231056380Y-122975714D01*
X230008761Y-123213809D02*
X230723047Y-123451904D01*
X230723047Y-122832857D01*
X230056380Y-122547142D02*
X230056380Y-121880476D01*
X231056380Y-122309047D01*
X211752380Y-124404285D02*
X210752380Y-124404285D01*
X210752380Y-124166190D01*
X210800000Y-124023333D01*
X210895238Y-123928095D01*
X210990476Y-123880476D01*
X211180952Y-123832857D01*
X211323809Y-123832857D01*
X211514285Y-123880476D01*
X211609523Y-123928095D01*
X211704761Y-124023333D01*
X211752380Y-124166190D01*
X211752380Y-124404285D01*
X211085714Y-122975714D02*
X211752380Y-122975714D01*
X210704761Y-123213809D02*
X211419047Y-123451904D01*
X211419047Y-122832857D01*
X210752380Y-122023333D02*
X210752380Y-122213809D01*
X210800000Y-122309047D01*
X210847619Y-122356666D01*
X210990476Y-122451904D01*
X211180952Y-122499523D01*
X211561904Y-122499523D01*
X211657142Y-122451904D01*
X211704761Y-122404285D01*
X211752380Y-122309047D01*
X211752380Y-122118571D01*
X211704761Y-122023333D01*
X211657142Y-121975714D01*
X211561904Y-121928095D01*
X211323809Y-121928095D01*
X211228571Y-121975714D01*
X211180952Y-122023333D01*
X211133333Y-122118571D01*
X211133333Y-122309047D01*
X211180952Y-122404285D01*
X211228571Y-122451904D01*
X211323809Y-122499523D01*
X192702380Y-124404285D02*
X191702380Y-124404285D01*
X191702380Y-124166190D01*
X191750000Y-124023333D01*
X191845238Y-123928095D01*
X191940476Y-123880476D01*
X192130952Y-123832857D01*
X192273809Y-123832857D01*
X192464285Y-123880476D01*
X192559523Y-123928095D01*
X192654761Y-124023333D01*
X192702380Y-124166190D01*
X192702380Y-124404285D01*
X192035714Y-122975714D02*
X192702380Y-122975714D01*
X191654761Y-123213809D02*
X192369047Y-123451904D01*
X192369047Y-122832857D01*
X191702380Y-121975714D02*
X191702380Y-122451904D01*
X192178571Y-122499523D01*
X192130952Y-122451904D01*
X192083333Y-122356666D01*
X192083333Y-122118571D01*
X192130952Y-122023333D01*
X192178571Y-121975714D01*
X192273809Y-121928095D01*
X192511904Y-121928095D01*
X192607142Y-121975714D01*
X192654761Y-122023333D01*
X192702380Y-122118571D01*
X192702380Y-122356666D01*
X192654761Y-122451904D01*
X192607142Y-122499523D01*
X173398380Y-124404285D02*
X172398380Y-124404285D01*
X172398380Y-124166190D01*
X172446000Y-124023333D01*
X172541238Y-123928095D01*
X172636476Y-123880476D01*
X172826952Y-123832857D01*
X172969809Y-123832857D01*
X173160285Y-123880476D01*
X173255523Y-123928095D01*
X173350761Y-124023333D01*
X173398380Y-124166190D01*
X173398380Y-124404285D01*
X172731714Y-122975714D02*
X173398380Y-122975714D01*
X172350761Y-123213809D02*
X173065047Y-123451904D01*
X173065047Y-122832857D01*
X172731714Y-122023333D02*
X173398380Y-122023333D01*
X172350761Y-122261428D02*
X173065047Y-122499523D01*
X173065047Y-121880476D01*
X154348380Y-124404285D02*
X153348380Y-124404285D01*
X153348380Y-124166190D01*
X153396000Y-124023333D01*
X153491238Y-123928095D01*
X153586476Y-123880476D01*
X153776952Y-123832857D01*
X153919809Y-123832857D01*
X154110285Y-123880476D01*
X154205523Y-123928095D01*
X154300761Y-124023333D01*
X154348380Y-124166190D01*
X154348380Y-124404285D01*
X153681714Y-122975714D02*
X154348380Y-122975714D01*
X153300761Y-123213809D02*
X154015047Y-123451904D01*
X154015047Y-122832857D01*
X153348380Y-122547142D02*
X153348380Y-121928095D01*
X153729333Y-122261428D01*
X153729333Y-122118571D01*
X153776952Y-122023333D01*
X153824571Y-121975714D01*
X153919809Y-121928095D01*
X154157904Y-121928095D01*
X154253142Y-121975714D01*
X154300761Y-122023333D01*
X154348380Y-122118571D01*
X154348380Y-122404285D01*
X154300761Y-122499523D01*
X154253142Y-122547142D01*
X135298380Y-124404285D02*
X134298380Y-124404285D01*
X134298380Y-124166190D01*
X134346000Y-124023333D01*
X134441238Y-123928095D01*
X134536476Y-123880476D01*
X134726952Y-123832857D01*
X134869809Y-123832857D01*
X135060285Y-123880476D01*
X135155523Y-123928095D01*
X135250761Y-124023333D01*
X135298380Y-124166190D01*
X135298380Y-124404285D01*
X134631714Y-122975714D02*
X135298380Y-122975714D01*
X134250761Y-123213809D02*
X134965047Y-123451904D01*
X134965047Y-122832857D01*
X134393619Y-122499523D02*
X134346000Y-122451904D01*
X134298380Y-122356666D01*
X134298380Y-122118571D01*
X134346000Y-122023333D01*
X134393619Y-121975714D01*
X134488857Y-121928095D01*
X134584095Y-121928095D01*
X134726952Y-121975714D01*
X135298380Y-122547142D01*
X135298380Y-121928095D01*
X115994380Y-124404285D02*
X114994380Y-124404285D01*
X114994380Y-124166190D01*
X115042000Y-124023333D01*
X115137238Y-123928095D01*
X115232476Y-123880476D01*
X115422952Y-123832857D01*
X115565809Y-123832857D01*
X115756285Y-123880476D01*
X115851523Y-123928095D01*
X115946761Y-124023333D01*
X115994380Y-124166190D01*
X115994380Y-124404285D01*
X115327714Y-122975714D02*
X115994380Y-122975714D01*
X114946761Y-123213809D02*
X115661047Y-123451904D01*
X115661047Y-122832857D01*
X115994380Y-121928095D02*
X115994380Y-122499523D01*
X115994380Y-122213809D02*
X114994380Y-122213809D01*
X115137238Y-122309047D01*
X115232476Y-122404285D01*
X115280095Y-122499523D01*
X97198380Y-124404285D02*
X96198380Y-124404285D01*
X96198380Y-124166190D01*
X96246000Y-124023333D01*
X96341238Y-123928095D01*
X96436476Y-123880476D01*
X96626952Y-123832857D01*
X96769809Y-123832857D01*
X96960285Y-123880476D01*
X97055523Y-123928095D01*
X97150761Y-124023333D01*
X97198380Y-124166190D01*
X97198380Y-124404285D01*
X96531714Y-122975714D02*
X97198380Y-122975714D01*
X96150761Y-123213809D02*
X96865047Y-123451904D01*
X96865047Y-122832857D01*
X96198380Y-122261428D02*
X96198380Y-122166190D01*
X96246000Y-122070952D01*
X96293619Y-122023333D01*
X96388857Y-121975714D01*
X96579333Y-121928095D01*
X96817428Y-121928095D01*
X97007904Y-121975714D01*
X97103142Y-122023333D01*
X97150761Y-122070952D01*
X97198380Y-122166190D01*
X97198380Y-122261428D01*
X97150761Y-122356666D01*
X97103142Y-122404285D01*
X97007904Y-122451904D01*
X96817428Y-122499523D01*
X96579333Y-122499523D01*
X96388857Y-122451904D01*
X96293619Y-122404285D01*
X96246000Y-122356666D01*
X96198380Y-122261428D01*
X77894380Y-124404285D02*
X76894380Y-124404285D01*
X76894380Y-124166190D01*
X76942000Y-124023333D01*
X77037238Y-123928095D01*
X77132476Y-123880476D01*
X77322952Y-123832857D01*
X77465809Y-123832857D01*
X77656285Y-123880476D01*
X77751523Y-123928095D01*
X77846761Y-124023333D01*
X77894380Y-124166190D01*
X77894380Y-124404285D01*
X76894380Y-123499523D02*
X76894380Y-122880476D01*
X77275333Y-123213809D01*
X77275333Y-123070952D01*
X77322952Y-122975714D01*
X77370571Y-122928095D01*
X77465809Y-122880476D01*
X77703904Y-122880476D01*
X77799142Y-122928095D01*
X77846761Y-122975714D01*
X77894380Y-123070952D01*
X77894380Y-123356666D01*
X77846761Y-123451904D01*
X77799142Y-123499523D01*
X77894380Y-122404285D02*
X77894380Y-122213809D01*
X77846761Y-122118571D01*
X77799142Y-122070952D01*
X77656285Y-121975714D01*
X77465809Y-121928095D01*
X77084857Y-121928095D01*
X76989619Y-121975714D01*
X76942000Y-122023333D01*
X76894380Y-122118571D01*
X76894380Y-122309047D01*
X76942000Y-122404285D01*
X76989619Y-122451904D01*
X77084857Y-122499523D01*
X77322952Y-122499523D01*
X77418190Y-122451904D01*
X77465809Y-122404285D01*
X77513428Y-122309047D01*
X77513428Y-122118571D01*
X77465809Y-122023333D01*
X77418190Y-121975714D01*
X77322952Y-121928095D01*
X53256380Y-124404285D02*
X52256380Y-124404285D01*
X52256380Y-124166190D01*
X52304000Y-124023333D01*
X52399238Y-123928095D01*
X52494476Y-123880476D01*
X52684952Y-123832857D01*
X52827809Y-123832857D01*
X53018285Y-123880476D01*
X53113523Y-123928095D01*
X53208761Y-124023333D01*
X53256380Y-124166190D01*
X53256380Y-124404285D01*
X52256380Y-123499523D02*
X52256380Y-122880476D01*
X52637333Y-123213809D01*
X52637333Y-123070952D01*
X52684952Y-122975714D01*
X52732571Y-122928095D01*
X52827809Y-122880476D01*
X53065904Y-122880476D01*
X53161142Y-122928095D01*
X53208761Y-122975714D01*
X53256380Y-123070952D01*
X53256380Y-123356666D01*
X53208761Y-123451904D01*
X53161142Y-123499523D01*
X52684952Y-122309047D02*
X52637333Y-122404285D01*
X52589714Y-122451904D01*
X52494476Y-122499523D01*
X52446857Y-122499523D01*
X52351619Y-122451904D01*
X52304000Y-122404285D01*
X52256380Y-122309047D01*
X52256380Y-122118571D01*
X52304000Y-122023333D01*
X52351619Y-121975714D01*
X52446857Y-121928095D01*
X52494476Y-121928095D01*
X52589714Y-121975714D01*
X52637333Y-122023333D01*
X52684952Y-122118571D01*
X52684952Y-122309047D01*
X52732571Y-122404285D01*
X52780190Y-122451904D01*
X52875428Y-122499523D01*
X53065904Y-122499523D01*
X53161142Y-122451904D01*
X53208761Y-122404285D01*
X53256380Y-122309047D01*
X53256380Y-122118571D01*
X53208761Y-122023333D01*
X53161142Y-121975714D01*
X53065904Y-121928095D01*
X52875428Y-121928095D01*
X52780190Y-121975714D01*
X52732571Y-122023333D01*
X52684952Y-122118571D01*
X389806380Y-105354285D02*
X388806380Y-105354285D01*
X388806380Y-105116190D01*
X388854000Y-104973333D01*
X388949238Y-104878095D01*
X389044476Y-104830476D01*
X389234952Y-104782857D01*
X389377809Y-104782857D01*
X389568285Y-104830476D01*
X389663523Y-104878095D01*
X389758761Y-104973333D01*
X389806380Y-105116190D01*
X389806380Y-105354285D01*
X388806380Y-104449523D02*
X388806380Y-103830476D01*
X389187333Y-104163809D01*
X389187333Y-104020952D01*
X389234952Y-103925714D01*
X389282571Y-103878095D01*
X389377809Y-103830476D01*
X389615904Y-103830476D01*
X389711142Y-103878095D01*
X389758761Y-103925714D01*
X389806380Y-104020952D01*
X389806380Y-104306666D01*
X389758761Y-104401904D01*
X389711142Y-104449523D01*
X388806380Y-103497142D02*
X388806380Y-102830476D01*
X389806380Y-103259047D01*
X370756380Y-105354285D02*
X369756380Y-105354285D01*
X369756380Y-105116190D01*
X369804000Y-104973333D01*
X369899238Y-104878095D01*
X369994476Y-104830476D01*
X370184952Y-104782857D01*
X370327809Y-104782857D01*
X370518285Y-104830476D01*
X370613523Y-104878095D01*
X370708761Y-104973333D01*
X370756380Y-105116190D01*
X370756380Y-105354285D01*
X369756380Y-104449523D02*
X369756380Y-103830476D01*
X370137333Y-104163809D01*
X370137333Y-104020952D01*
X370184952Y-103925714D01*
X370232571Y-103878095D01*
X370327809Y-103830476D01*
X370565904Y-103830476D01*
X370661142Y-103878095D01*
X370708761Y-103925714D01*
X370756380Y-104020952D01*
X370756380Y-104306666D01*
X370708761Y-104401904D01*
X370661142Y-104449523D01*
X369756380Y-102973333D02*
X369756380Y-103163809D01*
X369804000Y-103259047D01*
X369851619Y-103306666D01*
X369994476Y-103401904D01*
X370184952Y-103449523D01*
X370565904Y-103449523D01*
X370661142Y-103401904D01*
X370708761Y-103354285D01*
X370756380Y-103259047D01*
X370756380Y-103068571D01*
X370708761Y-102973333D01*
X370661142Y-102925714D01*
X370565904Y-102878095D01*
X370327809Y-102878095D01*
X370232571Y-102925714D01*
X370184952Y-102973333D01*
X370137333Y-103068571D01*
X370137333Y-103259047D01*
X370184952Y-103354285D01*
X370232571Y-103401904D01*
X370327809Y-103449523D01*
X351706380Y-105354285D02*
X350706380Y-105354285D01*
X350706380Y-105116190D01*
X350754000Y-104973333D01*
X350849238Y-104878095D01*
X350944476Y-104830476D01*
X351134952Y-104782857D01*
X351277809Y-104782857D01*
X351468285Y-104830476D01*
X351563523Y-104878095D01*
X351658761Y-104973333D01*
X351706380Y-105116190D01*
X351706380Y-105354285D01*
X350706380Y-104449523D02*
X350706380Y-103830476D01*
X351087333Y-104163809D01*
X351087333Y-104020952D01*
X351134952Y-103925714D01*
X351182571Y-103878095D01*
X351277809Y-103830476D01*
X351515904Y-103830476D01*
X351611142Y-103878095D01*
X351658761Y-103925714D01*
X351706380Y-104020952D01*
X351706380Y-104306666D01*
X351658761Y-104401904D01*
X351611142Y-104449523D01*
X350706380Y-102925714D02*
X350706380Y-103401904D01*
X351182571Y-103449523D01*
X351134952Y-103401904D01*
X351087333Y-103306666D01*
X351087333Y-103068571D01*
X351134952Y-102973333D01*
X351182571Y-102925714D01*
X351277809Y-102878095D01*
X351515904Y-102878095D01*
X351611142Y-102925714D01*
X351658761Y-102973333D01*
X351706380Y-103068571D01*
X351706380Y-103306666D01*
X351658761Y-103401904D01*
X351611142Y-103449523D01*
X332656380Y-105354285D02*
X331656380Y-105354285D01*
X331656380Y-105116190D01*
X331704000Y-104973333D01*
X331799238Y-104878095D01*
X331894476Y-104830476D01*
X332084952Y-104782857D01*
X332227809Y-104782857D01*
X332418285Y-104830476D01*
X332513523Y-104878095D01*
X332608761Y-104973333D01*
X332656380Y-105116190D01*
X332656380Y-105354285D01*
X331656380Y-104449523D02*
X331656380Y-103830476D01*
X332037333Y-104163809D01*
X332037333Y-104020952D01*
X332084952Y-103925714D01*
X332132571Y-103878095D01*
X332227809Y-103830476D01*
X332465904Y-103830476D01*
X332561142Y-103878095D01*
X332608761Y-103925714D01*
X332656380Y-104020952D01*
X332656380Y-104306666D01*
X332608761Y-104401904D01*
X332561142Y-104449523D01*
X331989714Y-102973333D02*
X332656380Y-102973333D01*
X331608761Y-103211428D02*
X332323047Y-103449523D01*
X332323047Y-102830476D01*
X283634380Y-105354285D02*
X282634380Y-105354285D01*
X282634380Y-105116190D01*
X282682000Y-104973333D01*
X282777238Y-104878095D01*
X282872476Y-104830476D01*
X283062952Y-104782857D01*
X283205809Y-104782857D01*
X283396285Y-104830476D01*
X283491523Y-104878095D01*
X283586761Y-104973333D01*
X283634380Y-105116190D01*
X283634380Y-105354285D01*
X282634380Y-104449523D02*
X282634380Y-103830476D01*
X283015333Y-104163809D01*
X283015333Y-104020952D01*
X283062952Y-103925714D01*
X283110571Y-103878095D01*
X283205809Y-103830476D01*
X283443904Y-103830476D01*
X283539142Y-103878095D01*
X283586761Y-103925714D01*
X283634380Y-104020952D01*
X283634380Y-104306666D01*
X283586761Y-104401904D01*
X283539142Y-104449523D01*
X282634380Y-103497142D02*
X282634380Y-102878095D01*
X283015333Y-103211428D01*
X283015333Y-103068571D01*
X283062952Y-102973333D01*
X283110571Y-102925714D01*
X283205809Y-102878095D01*
X283443904Y-102878095D01*
X283539142Y-102925714D01*
X283586761Y-102973333D01*
X283634380Y-103068571D01*
X283634380Y-103354285D01*
X283586761Y-103449523D01*
X283539142Y-103497142D01*
X264584380Y-105354285D02*
X263584380Y-105354285D01*
X263584380Y-105116190D01*
X263632000Y-104973333D01*
X263727238Y-104878095D01*
X263822476Y-104830476D01*
X264012952Y-104782857D01*
X264155809Y-104782857D01*
X264346285Y-104830476D01*
X264441523Y-104878095D01*
X264536761Y-104973333D01*
X264584380Y-105116190D01*
X264584380Y-105354285D01*
X263584380Y-104449523D02*
X263584380Y-103830476D01*
X263965333Y-104163809D01*
X263965333Y-104020952D01*
X264012952Y-103925714D01*
X264060571Y-103878095D01*
X264155809Y-103830476D01*
X264393904Y-103830476D01*
X264489142Y-103878095D01*
X264536761Y-103925714D01*
X264584380Y-104020952D01*
X264584380Y-104306666D01*
X264536761Y-104401904D01*
X264489142Y-104449523D01*
X263679619Y-103449523D02*
X263632000Y-103401904D01*
X263584380Y-103306666D01*
X263584380Y-103068571D01*
X263632000Y-102973333D01*
X263679619Y-102925714D01*
X263774857Y-102878095D01*
X263870095Y-102878095D01*
X264012952Y-102925714D01*
X264584380Y-103497142D01*
X264584380Y-102878095D01*
X245534380Y-105354285D02*
X244534380Y-105354285D01*
X244534380Y-105116190D01*
X244582000Y-104973333D01*
X244677238Y-104878095D01*
X244772476Y-104830476D01*
X244962952Y-104782857D01*
X245105809Y-104782857D01*
X245296285Y-104830476D01*
X245391523Y-104878095D01*
X245486761Y-104973333D01*
X245534380Y-105116190D01*
X245534380Y-105354285D01*
X244534380Y-104449523D02*
X244534380Y-103830476D01*
X244915333Y-104163809D01*
X244915333Y-104020952D01*
X244962952Y-103925714D01*
X245010571Y-103878095D01*
X245105809Y-103830476D01*
X245343904Y-103830476D01*
X245439142Y-103878095D01*
X245486761Y-103925714D01*
X245534380Y-104020952D01*
X245534380Y-104306666D01*
X245486761Y-104401904D01*
X245439142Y-104449523D01*
X245534380Y-102878095D02*
X245534380Y-103449523D01*
X245534380Y-103163809D02*
X244534380Y-103163809D01*
X244677238Y-103259047D01*
X244772476Y-103354285D01*
X244820095Y-103449523D01*
X226230380Y-105354285D02*
X225230380Y-105354285D01*
X225230380Y-105116190D01*
X225278000Y-104973333D01*
X225373238Y-104878095D01*
X225468476Y-104830476D01*
X225658952Y-104782857D01*
X225801809Y-104782857D01*
X225992285Y-104830476D01*
X226087523Y-104878095D01*
X226182761Y-104973333D01*
X226230380Y-105116190D01*
X226230380Y-105354285D01*
X225230380Y-104449523D02*
X225230380Y-103830476D01*
X225611333Y-104163809D01*
X225611333Y-104020952D01*
X225658952Y-103925714D01*
X225706571Y-103878095D01*
X225801809Y-103830476D01*
X226039904Y-103830476D01*
X226135142Y-103878095D01*
X226182761Y-103925714D01*
X226230380Y-104020952D01*
X226230380Y-104306666D01*
X226182761Y-104401904D01*
X226135142Y-104449523D01*
X225230380Y-103211428D02*
X225230380Y-103116190D01*
X225278000Y-103020952D01*
X225325619Y-102973333D01*
X225420857Y-102925714D01*
X225611333Y-102878095D01*
X225849428Y-102878095D01*
X226039904Y-102925714D01*
X226135142Y-102973333D01*
X226182761Y-103020952D01*
X226230380Y-103116190D01*
X226230380Y-103211428D01*
X226182761Y-103306666D01*
X226135142Y-103354285D01*
X226039904Y-103401904D01*
X225849428Y-103449523D01*
X225611333Y-103449523D01*
X225420857Y-103401904D01*
X225325619Y-103354285D01*
X225278000Y-103306666D01*
X225230380Y-103211428D01*
X207180380Y-105354285D02*
X206180380Y-105354285D01*
X206180380Y-105116190D01*
X206228000Y-104973333D01*
X206323238Y-104878095D01*
X206418476Y-104830476D01*
X206608952Y-104782857D01*
X206751809Y-104782857D01*
X206942285Y-104830476D01*
X207037523Y-104878095D01*
X207132761Y-104973333D01*
X207180380Y-105116190D01*
X207180380Y-105354285D01*
X206275619Y-104401904D02*
X206228000Y-104354285D01*
X206180380Y-104259047D01*
X206180380Y-104020952D01*
X206228000Y-103925714D01*
X206275619Y-103878095D01*
X206370857Y-103830476D01*
X206466095Y-103830476D01*
X206608952Y-103878095D01*
X207180380Y-104449523D01*
X207180380Y-103830476D01*
X207180380Y-103354285D02*
X207180380Y-103163809D01*
X207132761Y-103068571D01*
X207085142Y-103020952D01*
X206942285Y-102925714D01*
X206751809Y-102878095D01*
X206370857Y-102878095D01*
X206275619Y-102925714D01*
X206228000Y-102973333D01*
X206180380Y-103068571D01*
X206180380Y-103259047D01*
X206228000Y-103354285D01*
X206275619Y-103401904D01*
X206370857Y-103449523D01*
X206608952Y-103449523D01*
X206704190Y-103401904D01*
X206751809Y-103354285D01*
X206799428Y-103259047D01*
X206799428Y-103068571D01*
X206751809Y-102973333D01*
X206704190Y-102925714D01*
X206608952Y-102878095D01*
X187876380Y-105354285D02*
X186876380Y-105354285D01*
X186876380Y-105116190D01*
X186924000Y-104973333D01*
X187019238Y-104878095D01*
X187114476Y-104830476D01*
X187304952Y-104782857D01*
X187447809Y-104782857D01*
X187638285Y-104830476D01*
X187733523Y-104878095D01*
X187828761Y-104973333D01*
X187876380Y-105116190D01*
X187876380Y-105354285D01*
X186971619Y-104401904D02*
X186924000Y-104354285D01*
X186876380Y-104259047D01*
X186876380Y-104020952D01*
X186924000Y-103925714D01*
X186971619Y-103878095D01*
X187066857Y-103830476D01*
X187162095Y-103830476D01*
X187304952Y-103878095D01*
X187876380Y-104449523D01*
X187876380Y-103830476D01*
X187304952Y-103259047D02*
X187257333Y-103354285D01*
X187209714Y-103401904D01*
X187114476Y-103449523D01*
X187066857Y-103449523D01*
X186971619Y-103401904D01*
X186924000Y-103354285D01*
X186876380Y-103259047D01*
X186876380Y-103068571D01*
X186924000Y-102973333D01*
X186971619Y-102925714D01*
X187066857Y-102878095D01*
X187114476Y-102878095D01*
X187209714Y-102925714D01*
X187257333Y-102973333D01*
X187304952Y-103068571D01*
X187304952Y-103259047D01*
X187352571Y-103354285D01*
X187400190Y-103401904D01*
X187495428Y-103449523D01*
X187685904Y-103449523D01*
X187781142Y-103401904D01*
X187828761Y-103354285D01*
X187876380Y-103259047D01*
X187876380Y-103068571D01*
X187828761Y-102973333D01*
X187781142Y-102925714D01*
X187685904Y-102878095D01*
X187495428Y-102878095D01*
X187400190Y-102925714D01*
X187352571Y-102973333D01*
X187304952Y-103068571D01*
X168826380Y-105354285D02*
X167826380Y-105354285D01*
X167826380Y-105116190D01*
X167874000Y-104973333D01*
X167969238Y-104878095D01*
X168064476Y-104830476D01*
X168254952Y-104782857D01*
X168397809Y-104782857D01*
X168588285Y-104830476D01*
X168683523Y-104878095D01*
X168778761Y-104973333D01*
X168826380Y-105116190D01*
X168826380Y-105354285D01*
X167921619Y-104401904D02*
X167874000Y-104354285D01*
X167826380Y-104259047D01*
X167826380Y-104020952D01*
X167874000Y-103925714D01*
X167921619Y-103878095D01*
X168016857Y-103830476D01*
X168112095Y-103830476D01*
X168254952Y-103878095D01*
X168826380Y-104449523D01*
X168826380Y-103830476D01*
X167826380Y-103497142D02*
X167826380Y-102830476D01*
X168826380Y-103259047D01*
X149522380Y-105354285D02*
X148522380Y-105354285D01*
X148522380Y-105116190D01*
X148570000Y-104973333D01*
X148665238Y-104878095D01*
X148760476Y-104830476D01*
X148950952Y-104782857D01*
X149093809Y-104782857D01*
X149284285Y-104830476D01*
X149379523Y-104878095D01*
X149474761Y-104973333D01*
X149522380Y-105116190D01*
X149522380Y-105354285D01*
X148617619Y-104401904D02*
X148570000Y-104354285D01*
X148522380Y-104259047D01*
X148522380Y-104020952D01*
X148570000Y-103925714D01*
X148617619Y-103878095D01*
X148712857Y-103830476D01*
X148808095Y-103830476D01*
X148950952Y-103878095D01*
X149522380Y-104449523D01*
X149522380Y-103830476D01*
X148522380Y-102973333D02*
X148522380Y-103163809D01*
X148570000Y-103259047D01*
X148617619Y-103306666D01*
X148760476Y-103401904D01*
X148950952Y-103449523D01*
X149331904Y-103449523D01*
X149427142Y-103401904D01*
X149474761Y-103354285D01*
X149522380Y-103259047D01*
X149522380Y-103068571D01*
X149474761Y-102973333D01*
X149427142Y-102925714D01*
X149331904Y-102878095D01*
X149093809Y-102878095D01*
X148998571Y-102925714D01*
X148950952Y-102973333D01*
X148903333Y-103068571D01*
X148903333Y-103259047D01*
X148950952Y-103354285D01*
X148998571Y-103401904D01*
X149093809Y-103449523D01*
X130472380Y-105354285D02*
X129472380Y-105354285D01*
X129472380Y-105116190D01*
X129520000Y-104973333D01*
X129615238Y-104878095D01*
X129710476Y-104830476D01*
X129900952Y-104782857D01*
X130043809Y-104782857D01*
X130234285Y-104830476D01*
X130329523Y-104878095D01*
X130424761Y-104973333D01*
X130472380Y-105116190D01*
X130472380Y-105354285D01*
X129567619Y-104401904D02*
X129520000Y-104354285D01*
X129472380Y-104259047D01*
X129472380Y-104020952D01*
X129520000Y-103925714D01*
X129567619Y-103878095D01*
X129662857Y-103830476D01*
X129758095Y-103830476D01*
X129900952Y-103878095D01*
X130472380Y-104449523D01*
X130472380Y-103830476D01*
X129472380Y-102925714D02*
X129472380Y-103401904D01*
X129948571Y-103449523D01*
X129900952Y-103401904D01*
X129853333Y-103306666D01*
X129853333Y-103068571D01*
X129900952Y-102973333D01*
X129948571Y-102925714D01*
X130043809Y-102878095D01*
X130281904Y-102878095D01*
X130377142Y-102925714D01*
X130424761Y-102973333D01*
X130472380Y-103068571D01*
X130472380Y-103306666D01*
X130424761Y-103401904D01*
X130377142Y-103449523D01*
X111422380Y-105354285D02*
X110422380Y-105354285D01*
X110422380Y-105116190D01*
X110470000Y-104973333D01*
X110565238Y-104878095D01*
X110660476Y-104830476D01*
X110850952Y-104782857D01*
X110993809Y-104782857D01*
X111184285Y-104830476D01*
X111279523Y-104878095D01*
X111374761Y-104973333D01*
X111422380Y-105116190D01*
X111422380Y-105354285D01*
X110517619Y-104401904D02*
X110470000Y-104354285D01*
X110422380Y-104259047D01*
X110422380Y-104020952D01*
X110470000Y-103925714D01*
X110517619Y-103878095D01*
X110612857Y-103830476D01*
X110708095Y-103830476D01*
X110850952Y-103878095D01*
X111422380Y-104449523D01*
X111422380Y-103830476D01*
X110755714Y-102973333D02*
X111422380Y-102973333D01*
X110374761Y-103211428D02*
X111089047Y-103449523D01*
X111089047Y-102830476D01*
X92372380Y-105354285D02*
X91372380Y-105354285D01*
X91372380Y-105116190D01*
X91420000Y-104973333D01*
X91515238Y-104878095D01*
X91610476Y-104830476D01*
X91800952Y-104782857D01*
X91943809Y-104782857D01*
X92134285Y-104830476D01*
X92229523Y-104878095D01*
X92324761Y-104973333D01*
X92372380Y-105116190D01*
X92372380Y-105354285D01*
X91467619Y-104401904D02*
X91420000Y-104354285D01*
X91372380Y-104259047D01*
X91372380Y-104020952D01*
X91420000Y-103925714D01*
X91467619Y-103878095D01*
X91562857Y-103830476D01*
X91658095Y-103830476D01*
X91800952Y-103878095D01*
X92372380Y-104449523D01*
X92372380Y-103830476D01*
X91372380Y-103497142D02*
X91372380Y-102878095D01*
X91753333Y-103211428D01*
X91753333Y-103068571D01*
X91800952Y-102973333D01*
X91848571Y-102925714D01*
X91943809Y-102878095D01*
X92181904Y-102878095D01*
X92277142Y-102925714D01*
X92324761Y-102973333D01*
X92372380Y-103068571D01*
X92372380Y-103354285D01*
X92324761Y-103449523D01*
X92277142Y-103497142D01*
X73322380Y-105354285D02*
X72322380Y-105354285D01*
X72322380Y-105116190D01*
X72370000Y-104973333D01*
X72465238Y-104878095D01*
X72560476Y-104830476D01*
X72750952Y-104782857D01*
X72893809Y-104782857D01*
X73084285Y-104830476D01*
X73179523Y-104878095D01*
X73274761Y-104973333D01*
X73322380Y-105116190D01*
X73322380Y-105354285D01*
X72417619Y-104401904D02*
X72370000Y-104354285D01*
X72322380Y-104259047D01*
X72322380Y-104020952D01*
X72370000Y-103925714D01*
X72417619Y-103878095D01*
X72512857Y-103830476D01*
X72608095Y-103830476D01*
X72750952Y-103878095D01*
X73322380Y-104449523D01*
X73322380Y-103830476D01*
X72417619Y-103449523D02*
X72370000Y-103401904D01*
X72322380Y-103306666D01*
X72322380Y-103068571D01*
X72370000Y-102973333D01*
X72417619Y-102925714D01*
X72512857Y-102878095D01*
X72608095Y-102878095D01*
X72750952Y-102925714D01*
X73322380Y-103497142D01*
X73322380Y-102878095D01*
X51224380Y-105354285D02*
X50224380Y-105354285D01*
X50224380Y-105116190D01*
X50272000Y-104973333D01*
X50367238Y-104878095D01*
X50462476Y-104830476D01*
X50652952Y-104782857D01*
X50795809Y-104782857D01*
X50986285Y-104830476D01*
X51081523Y-104878095D01*
X51176761Y-104973333D01*
X51224380Y-105116190D01*
X51224380Y-105354285D01*
X50319619Y-104401904D02*
X50272000Y-104354285D01*
X50224380Y-104259047D01*
X50224380Y-104020952D01*
X50272000Y-103925714D01*
X50319619Y-103878095D01*
X50414857Y-103830476D01*
X50510095Y-103830476D01*
X50652952Y-103878095D01*
X51224380Y-104449523D01*
X51224380Y-103830476D01*
X51224380Y-102878095D02*
X51224380Y-103449523D01*
X51224380Y-103163809D02*
X50224380Y-103163809D01*
X50367238Y-103259047D01*
X50462476Y-103354285D01*
X50510095Y-103449523D01*
X389806380Y-86304285D02*
X388806380Y-86304285D01*
X388806380Y-86066190D01*
X388854000Y-85923333D01*
X388949238Y-85828095D01*
X389044476Y-85780476D01*
X389234952Y-85732857D01*
X389377809Y-85732857D01*
X389568285Y-85780476D01*
X389663523Y-85828095D01*
X389758761Y-85923333D01*
X389806380Y-86066190D01*
X389806380Y-86304285D01*
X388901619Y-85351904D02*
X388854000Y-85304285D01*
X388806380Y-85209047D01*
X388806380Y-84970952D01*
X388854000Y-84875714D01*
X388901619Y-84828095D01*
X388996857Y-84780476D01*
X389092095Y-84780476D01*
X389234952Y-84828095D01*
X389806380Y-85399523D01*
X389806380Y-84780476D01*
X388806380Y-84161428D02*
X388806380Y-84066190D01*
X388854000Y-83970952D01*
X388901619Y-83923333D01*
X388996857Y-83875714D01*
X389187333Y-83828095D01*
X389425428Y-83828095D01*
X389615904Y-83875714D01*
X389711142Y-83923333D01*
X389758761Y-83970952D01*
X389806380Y-84066190D01*
X389806380Y-84161428D01*
X389758761Y-84256666D01*
X389711142Y-84304285D01*
X389615904Y-84351904D01*
X389425428Y-84399523D01*
X389187333Y-84399523D01*
X388996857Y-84351904D01*
X388901619Y-84304285D01*
X388854000Y-84256666D01*
X388806380Y-84161428D01*
X370756380Y-86304285D02*
X369756380Y-86304285D01*
X369756380Y-86066190D01*
X369804000Y-85923333D01*
X369899238Y-85828095D01*
X369994476Y-85780476D01*
X370184952Y-85732857D01*
X370327809Y-85732857D01*
X370518285Y-85780476D01*
X370613523Y-85828095D01*
X370708761Y-85923333D01*
X370756380Y-86066190D01*
X370756380Y-86304285D01*
X370756380Y-84780476D02*
X370756380Y-85351904D01*
X370756380Y-85066190D02*
X369756380Y-85066190D01*
X369899238Y-85161428D01*
X369994476Y-85256666D01*
X370042095Y-85351904D01*
X370756380Y-84304285D02*
X370756380Y-84113809D01*
X370708761Y-84018571D01*
X370661142Y-83970952D01*
X370518285Y-83875714D01*
X370327809Y-83828095D01*
X369946857Y-83828095D01*
X369851619Y-83875714D01*
X369804000Y-83923333D01*
X369756380Y-84018571D01*
X369756380Y-84209047D01*
X369804000Y-84304285D01*
X369851619Y-84351904D01*
X369946857Y-84399523D01*
X370184952Y-84399523D01*
X370280190Y-84351904D01*
X370327809Y-84304285D01*
X370375428Y-84209047D01*
X370375428Y-84018571D01*
X370327809Y-83923333D01*
X370280190Y-83875714D01*
X370184952Y-83828095D01*
X351706380Y-86304285D02*
X350706380Y-86304285D01*
X350706380Y-86066190D01*
X350754000Y-85923333D01*
X350849238Y-85828095D01*
X350944476Y-85780476D01*
X351134952Y-85732857D01*
X351277809Y-85732857D01*
X351468285Y-85780476D01*
X351563523Y-85828095D01*
X351658761Y-85923333D01*
X351706380Y-86066190D01*
X351706380Y-86304285D01*
X351706380Y-84780476D02*
X351706380Y-85351904D01*
X351706380Y-85066190D02*
X350706380Y-85066190D01*
X350849238Y-85161428D01*
X350944476Y-85256666D01*
X350992095Y-85351904D01*
X351134952Y-84209047D02*
X351087333Y-84304285D01*
X351039714Y-84351904D01*
X350944476Y-84399523D01*
X350896857Y-84399523D01*
X350801619Y-84351904D01*
X350754000Y-84304285D01*
X350706380Y-84209047D01*
X350706380Y-84018571D01*
X350754000Y-83923333D01*
X350801619Y-83875714D01*
X350896857Y-83828095D01*
X350944476Y-83828095D01*
X351039714Y-83875714D01*
X351087333Y-83923333D01*
X351134952Y-84018571D01*
X351134952Y-84209047D01*
X351182571Y-84304285D01*
X351230190Y-84351904D01*
X351325428Y-84399523D01*
X351515904Y-84399523D01*
X351611142Y-84351904D01*
X351658761Y-84304285D01*
X351706380Y-84209047D01*
X351706380Y-84018571D01*
X351658761Y-83923333D01*
X351611142Y-83875714D01*
X351515904Y-83828095D01*
X351325428Y-83828095D01*
X351230190Y-83875714D01*
X351182571Y-83923333D01*
X351134952Y-84018571D01*
X332656380Y-86304285D02*
X331656380Y-86304285D01*
X331656380Y-86066190D01*
X331704000Y-85923333D01*
X331799238Y-85828095D01*
X331894476Y-85780476D01*
X332084952Y-85732857D01*
X332227809Y-85732857D01*
X332418285Y-85780476D01*
X332513523Y-85828095D01*
X332608761Y-85923333D01*
X332656380Y-86066190D01*
X332656380Y-86304285D01*
X332656380Y-84780476D02*
X332656380Y-85351904D01*
X332656380Y-85066190D02*
X331656380Y-85066190D01*
X331799238Y-85161428D01*
X331894476Y-85256666D01*
X331942095Y-85351904D01*
X331656380Y-84447142D02*
X331656380Y-83780476D01*
X332656380Y-84209047D01*
X299382380Y-86304285D02*
X298382380Y-86304285D01*
X298382380Y-86066190D01*
X298430000Y-85923333D01*
X298525238Y-85828095D01*
X298620476Y-85780476D01*
X298810952Y-85732857D01*
X298953809Y-85732857D01*
X299144285Y-85780476D01*
X299239523Y-85828095D01*
X299334761Y-85923333D01*
X299382380Y-86066190D01*
X299382380Y-86304285D01*
X299382380Y-84780476D02*
X299382380Y-85351904D01*
X299382380Y-85066190D02*
X298382380Y-85066190D01*
X298525238Y-85161428D01*
X298620476Y-85256666D01*
X298668095Y-85351904D01*
X298382380Y-83923333D02*
X298382380Y-84113809D01*
X298430000Y-84209047D01*
X298477619Y-84256666D01*
X298620476Y-84351904D01*
X298810952Y-84399523D01*
X299191904Y-84399523D01*
X299287142Y-84351904D01*
X299334761Y-84304285D01*
X299382380Y-84209047D01*
X299382380Y-84018571D01*
X299334761Y-83923333D01*
X299287142Y-83875714D01*
X299191904Y-83828095D01*
X298953809Y-83828095D01*
X298858571Y-83875714D01*
X298810952Y-83923333D01*
X298763333Y-84018571D01*
X298763333Y-84209047D01*
X298810952Y-84304285D01*
X298858571Y-84351904D01*
X298953809Y-84399523D01*
X275760380Y-86304285D02*
X274760380Y-86304285D01*
X274760380Y-86066190D01*
X274808000Y-85923333D01*
X274903238Y-85828095D01*
X274998476Y-85780476D01*
X275188952Y-85732857D01*
X275331809Y-85732857D01*
X275522285Y-85780476D01*
X275617523Y-85828095D01*
X275712761Y-85923333D01*
X275760380Y-86066190D01*
X275760380Y-86304285D01*
X275760380Y-84780476D02*
X275760380Y-85351904D01*
X275760380Y-85066190D02*
X274760380Y-85066190D01*
X274903238Y-85161428D01*
X274998476Y-85256666D01*
X275046095Y-85351904D01*
X274760380Y-83875714D02*
X274760380Y-84351904D01*
X275236571Y-84399523D01*
X275188952Y-84351904D01*
X275141333Y-84256666D01*
X275141333Y-84018571D01*
X275188952Y-83923333D01*
X275236571Y-83875714D01*
X275331809Y-83828095D01*
X275569904Y-83828095D01*
X275665142Y-83875714D01*
X275712761Y-83923333D01*
X275760380Y-84018571D01*
X275760380Y-84256666D01*
X275712761Y-84351904D01*
X275665142Y-84399523D01*
X255186380Y-86304285D02*
X254186380Y-86304285D01*
X254186380Y-86066190D01*
X254234000Y-85923333D01*
X254329238Y-85828095D01*
X254424476Y-85780476D01*
X254614952Y-85732857D01*
X254757809Y-85732857D01*
X254948285Y-85780476D01*
X255043523Y-85828095D01*
X255138761Y-85923333D01*
X255186380Y-86066190D01*
X255186380Y-86304285D01*
X255186380Y-84780476D02*
X255186380Y-85351904D01*
X255186380Y-85066190D02*
X254186380Y-85066190D01*
X254329238Y-85161428D01*
X254424476Y-85256666D01*
X254472095Y-85351904D01*
X254519714Y-83923333D02*
X255186380Y-83923333D01*
X254138761Y-84161428D02*
X254853047Y-84399523D01*
X254853047Y-83780476D01*
X235882380Y-86304285D02*
X234882380Y-86304285D01*
X234882380Y-86066190D01*
X234930000Y-85923333D01*
X235025238Y-85828095D01*
X235120476Y-85780476D01*
X235310952Y-85732857D01*
X235453809Y-85732857D01*
X235644285Y-85780476D01*
X235739523Y-85828095D01*
X235834761Y-85923333D01*
X235882380Y-86066190D01*
X235882380Y-86304285D01*
X235882380Y-84780476D02*
X235882380Y-85351904D01*
X235882380Y-85066190D02*
X234882380Y-85066190D01*
X235025238Y-85161428D01*
X235120476Y-85256666D01*
X235168095Y-85351904D01*
X234882380Y-84447142D02*
X234882380Y-83828095D01*
X235263333Y-84161428D01*
X235263333Y-84018571D01*
X235310952Y-83923333D01*
X235358571Y-83875714D01*
X235453809Y-83828095D01*
X235691904Y-83828095D01*
X235787142Y-83875714D01*
X235834761Y-83923333D01*
X235882380Y-84018571D01*
X235882380Y-84304285D01*
X235834761Y-84399523D01*
X235787142Y-84447142D01*
X216832380Y-86304285D02*
X215832380Y-86304285D01*
X215832380Y-86066190D01*
X215880000Y-85923333D01*
X215975238Y-85828095D01*
X216070476Y-85780476D01*
X216260952Y-85732857D01*
X216403809Y-85732857D01*
X216594285Y-85780476D01*
X216689523Y-85828095D01*
X216784761Y-85923333D01*
X216832380Y-86066190D01*
X216832380Y-86304285D01*
X216832380Y-84780476D02*
X216832380Y-85351904D01*
X216832380Y-85066190D02*
X215832380Y-85066190D01*
X215975238Y-85161428D01*
X216070476Y-85256666D01*
X216118095Y-85351904D01*
X215927619Y-84399523D02*
X215880000Y-84351904D01*
X215832380Y-84256666D01*
X215832380Y-84018571D01*
X215880000Y-83923333D01*
X215927619Y-83875714D01*
X216022857Y-83828095D01*
X216118095Y-83828095D01*
X216260952Y-83875714D01*
X216832380Y-84447142D01*
X216832380Y-83828095D01*
X197528380Y-86304285D02*
X196528380Y-86304285D01*
X196528380Y-86066190D01*
X196576000Y-85923333D01*
X196671238Y-85828095D01*
X196766476Y-85780476D01*
X196956952Y-85732857D01*
X197099809Y-85732857D01*
X197290285Y-85780476D01*
X197385523Y-85828095D01*
X197480761Y-85923333D01*
X197528380Y-86066190D01*
X197528380Y-86304285D01*
X197528380Y-84780476D02*
X197528380Y-85351904D01*
X197528380Y-85066190D02*
X196528380Y-85066190D01*
X196671238Y-85161428D01*
X196766476Y-85256666D01*
X196814095Y-85351904D01*
X197528380Y-83828095D02*
X197528380Y-84399523D01*
X197528380Y-84113809D02*
X196528380Y-84113809D01*
X196671238Y-84209047D01*
X196766476Y-84304285D01*
X196814095Y-84399523D01*
X178478380Y-86304285D02*
X177478380Y-86304285D01*
X177478380Y-86066190D01*
X177526000Y-85923333D01*
X177621238Y-85828095D01*
X177716476Y-85780476D01*
X177906952Y-85732857D01*
X178049809Y-85732857D01*
X178240285Y-85780476D01*
X178335523Y-85828095D01*
X178430761Y-85923333D01*
X178478380Y-86066190D01*
X178478380Y-86304285D01*
X178478380Y-84780476D02*
X178478380Y-85351904D01*
X178478380Y-85066190D02*
X177478380Y-85066190D01*
X177621238Y-85161428D01*
X177716476Y-85256666D01*
X177764095Y-85351904D01*
X177478380Y-84161428D02*
X177478380Y-84066190D01*
X177526000Y-83970952D01*
X177573619Y-83923333D01*
X177668857Y-83875714D01*
X177859333Y-83828095D01*
X178097428Y-83828095D01*
X178287904Y-83875714D01*
X178383142Y-83923333D01*
X178430761Y-83970952D01*
X178478380Y-84066190D01*
X178478380Y-84161428D01*
X178430761Y-84256666D01*
X178383142Y-84304285D01*
X178287904Y-84351904D01*
X178097428Y-84399523D01*
X177859333Y-84399523D01*
X177668857Y-84351904D01*
X177573619Y-84304285D01*
X177526000Y-84256666D01*
X177478380Y-84161428D01*
X159174380Y-85828095D02*
X158174380Y-85828095D01*
X158174380Y-85590000D01*
X158222000Y-85447142D01*
X158317238Y-85351904D01*
X158412476Y-85304285D01*
X158602952Y-85256666D01*
X158745809Y-85256666D01*
X158936285Y-85304285D01*
X159031523Y-85351904D01*
X159126761Y-85447142D01*
X159174380Y-85590000D01*
X159174380Y-85828095D01*
X159174380Y-84780476D02*
X159174380Y-84590000D01*
X159126761Y-84494761D01*
X159079142Y-84447142D01*
X158936285Y-84351904D01*
X158745809Y-84304285D01*
X158364857Y-84304285D01*
X158269619Y-84351904D01*
X158222000Y-84399523D01*
X158174380Y-84494761D01*
X158174380Y-84685238D01*
X158222000Y-84780476D01*
X158269619Y-84828095D01*
X158364857Y-84875714D01*
X158602952Y-84875714D01*
X158698190Y-84828095D01*
X158745809Y-84780476D01*
X158793428Y-84685238D01*
X158793428Y-84494761D01*
X158745809Y-84399523D01*
X158698190Y-84351904D01*
X158602952Y-84304285D01*
X140124380Y-85828095D02*
X139124380Y-85828095D01*
X139124380Y-85590000D01*
X139172000Y-85447142D01*
X139267238Y-85351904D01*
X139362476Y-85304285D01*
X139552952Y-85256666D01*
X139695809Y-85256666D01*
X139886285Y-85304285D01*
X139981523Y-85351904D01*
X140076761Y-85447142D01*
X140124380Y-85590000D01*
X140124380Y-85828095D01*
X139552952Y-84685238D02*
X139505333Y-84780476D01*
X139457714Y-84828095D01*
X139362476Y-84875714D01*
X139314857Y-84875714D01*
X139219619Y-84828095D01*
X139172000Y-84780476D01*
X139124380Y-84685238D01*
X139124380Y-84494761D01*
X139172000Y-84399523D01*
X139219619Y-84351904D01*
X139314857Y-84304285D01*
X139362476Y-84304285D01*
X139457714Y-84351904D01*
X139505333Y-84399523D01*
X139552952Y-84494761D01*
X139552952Y-84685238D01*
X139600571Y-84780476D01*
X139648190Y-84828095D01*
X139743428Y-84875714D01*
X139933904Y-84875714D01*
X140029142Y-84828095D01*
X140076761Y-84780476D01*
X140124380Y-84685238D01*
X140124380Y-84494761D01*
X140076761Y-84399523D01*
X140029142Y-84351904D01*
X139933904Y-84304285D01*
X139743428Y-84304285D01*
X139648190Y-84351904D01*
X139600571Y-84399523D01*
X139552952Y-84494761D01*
X121074380Y-85828095D02*
X120074380Y-85828095D01*
X120074380Y-85590000D01*
X120122000Y-85447142D01*
X120217238Y-85351904D01*
X120312476Y-85304285D01*
X120502952Y-85256666D01*
X120645809Y-85256666D01*
X120836285Y-85304285D01*
X120931523Y-85351904D01*
X121026761Y-85447142D01*
X121074380Y-85590000D01*
X121074380Y-85828095D01*
X120074380Y-84923333D02*
X120074380Y-84256666D01*
X121074380Y-84685238D01*
X102024380Y-85828095D02*
X101024380Y-85828095D01*
X101024380Y-85590000D01*
X101072000Y-85447142D01*
X101167238Y-85351904D01*
X101262476Y-85304285D01*
X101452952Y-85256666D01*
X101595809Y-85256666D01*
X101786285Y-85304285D01*
X101881523Y-85351904D01*
X101976761Y-85447142D01*
X102024380Y-85590000D01*
X102024380Y-85828095D01*
X101024380Y-84399523D02*
X101024380Y-84590000D01*
X101072000Y-84685238D01*
X101119619Y-84732857D01*
X101262476Y-84828095D01*
X101452952Y-84875714D01*
X101833904Y-84875714D01*
X101929142Y-84828095D01*
X101976761Y-84780476D01*
X102024380Y-84685238D01*
X102024380Y-84494761D01*
X101976761Y-84399523D01*
X101929142Y-84351904D01*
X101833904Y-84304285D01*
X101595809Y-84304285D01*
X101500571Y-84351904D01*
X101452952Y-84399523D01*
X101405333Y-84494761D01*
X101405333Y-84685238D01*
X101452952Y-84780476D01*
X101500571Y-84828095D01*
X101595809Y-84875714D01*
X82974380Y-85828095D02*
X81974380Y-85828095D01*
X81974380Y-85590000D01*
X82022000Y-85447142D01*
X82117238Y-85351904D01*
X82212476Y-85304285D01*
X82402952Y-85256666D01*
X82545809Y-85256666D01*
X82736285Y-85304285D01*
X82831523Y-85351904D01*
X82926761Y-85447142D01*
X82974380Y-85590000D01*
X82974380Y-85828095D01*
X81974380Y-84351904D02*
X81974380Y-84828095D01*
X82450571Y-84875714D01*
X82402952Y-84828095D01*
X82355333Y-84732857D01*
X82355333Y-84494761D01*
X82402952Y-84399523D01*
X82450571Y-84351904D01*
X82545809Y-84304285D01*
X82783904Y-84304285D01*
X82879142Y-84351904D01*
X82926761Y-84399523D01*
X82974380Y-84494761D01*
X82974380Y-84732857D01*
X82926761Y-84828095D01*
X82879142Y-84875714D01*
X63924380Y-85828095D02*
X62924380Y-85828095D01*
X62924380Y-85590000D01*
X62972000Y-85447142D01*
X63067238Y-85351904D01*
X63162476Y-85304285D01*
X63352952Y-85256666D01*
X63495809Y-85256666D01*
X63686285Y-85304285D01*
X63781523Y-85351904D01*
X63876761Y-85447142D01*
X63924380Y-85590000D01*
X63924380Y-85828095D01*
X63257714Y-84399523D02*
X63924380Y-84399523D01*
X62876761Y-84637619D02*
X63591047Y-84875714D01*
X63591047Y-84256666D01*
X44874380Y-85828095D02*
X43874380Y-85828095D01*
X43874380Y-85590000D01*
X43922000Y-85447142D01*
X44017238Y-85351904D01*
X44112476Y-85304285D01*
X44302952Y-85256666D01*
X44445809Y-85256666D01*
X44636285Y-85304285D01*
X44731523Y-85351904D01*
X44826761Y-85447142D01*
X44874380Y-85590000D01*
X44874380Y-85828095D01*
X43874380Y-84923333D02*
X43874380Y-84304285D01*
X44255333Y-84637619D01*
X44255333Y-84494761D01*
X44302952Y-84399523D01*
X44350571Y-84351904D01*
X44445809Y-84304285D01*
X44683904Y-84304285D01*
X44779142Y-84351904D01*
X44826761Y-84399523D01*
X44874380Y-84494761D01*
X44874380Y-84780476D01*
X44826761Y-84875714D01*
X44779142Y-84923333D01*
X65936904Y-68107880D02*
X65936904Y-67107880D01*
X66175000Y-67107880D01*
X66317857Y-67155500D01*
X66413095Y-67250738D01*
X66460714Y-67345976D01*
X66508333Y-67536452D01*
X66508333Y-67679309D01*
X66460714Y-67869785D01*
X66413095Y-67965023D01*
X66317857Y-68060261D01*
X66175000Y-68107880D01*
X65936904Y-68107880D01*
X66889285Y-67203119D02*
X66936904Y-67155500D01*
X67032142Y-67107880D01*
X67270238Y-67107880D01*
X67365476Y-67155500D01*
X67413095Y-67203119D01*
X67460714Y-67298357D01*
X67460714Y-67393595D01*
X67413095Y-67536452D01*
X66841666Y-68107880D01*
X67460714Y-68107880D01*
X65936904Y-64297880D02*
X65936904Y-63297880D01*
X66175000Y-63297880D01*
X66317857Y-63345500D01*
X66413095Y-63440738D01*
X66460714Y-63535976D01*
X66508333Y-63726452D01*
X66508333Y-63869309D01*
X66460714Y-64059785D01*
X66413095Y-64155023D01*
X66317857Y-64250261D01*
X66175000Y-64297880D01*
X65936904Y-64297880D01*
X67460714Y-64297880D02*
X66889285Y-64297880D01*
X67175000Y-64297880D02*
X67175000Y-63297880D01*
X67079761Y-63440738D01*
X66984523Y-63535976D01*
X66889285Y-63583595D01*
X179832142Y-153308666D02*
X179879761Y-153356285D01*
X179927380Y-153499142D01*
X179927380Y-153594380D01*
X179879761Y-153737238D01*
X179784523Y-153832476D01*
X179689285Y-153880095D01*
X179498809Y-153927714D01*
X179355952Y-153927714D01*
X179165476Y-153880095D01*
X179070238Y-153832476D01*
X178975000Y-153737238D01*
X178927380Y-153594380D01*
X178927380Y-153499142D01*
X178975000Y-153356285D01*
X179022619Y-153308666D01*
X178927380Y-152403904D02*
X178927380Y-152880095D01*
X179403571Y-152927714D01*
X179355952Y-152880095D01*
X179308333Y-152784857D01*
X179308333Y-152546761D01*
X179355952Y-152451523D01*
X179403571Y-152403904D01*
X179498809Y-152356285D01*
X179736904Y-152356285D01*
X179832142Y-152403904D01*
X179879761Y-152451523D01*
X179927380Y-152546761D01*
X179927380Y-152784857D01*
X179879761Y-152880095D01*
X179832142Y-152927714D01*
X168977333Y-175720142D02*
X168929714Y-175767761D01*
X168786857Y-175815380D01*
X168691619Y-175815380D01*
X168548761Y-175767761D01*
X168453523Y-175672523D01*
X168405904Y-175577285D01*
X168358285Y-175386809D01*
X168358285Y-175243952D01*
X168405904Y-175053476D01*
X168453523Y-174958238D01*
X168548761Y-174863000D01*
X168691619Y-174815380D01*
X168786857Y-174815380D01*
X168929714Y-174863000D01*
X168977333Y-174910619D01*
X169834476Y-175148714D02*
X169834476Y-175815380D01*
X169596380Y-174767761D02*
X169358285Y-175482047D01*
X169977333Y-175482047D01*
X89896333Y-76938142D02*
X89848714Y-76985761D01*
X89705857Y-77033380D01*
X89610619Y-77033380D01*
X89467761Y-76985761D01*
X89372523Y-76890523D01*
X89324904Y-76795285D01*
X89277285Y-76604809D01*
X89277285Y-76461952D01*
X89324904Y-76271476D01*
X89372523Y-76176238D01*
X89467761Y-76081000D01*
X89610619Y-76033380D01*
X89705857Y-76033380D01*
X89848714Y-76081000D01*
X89896333Y-76128619D01*
X90229666Y-76033380D02*
X90848714Y-76033380D01*
X90515380Y-76414333D01*
X90658238Y-76414333D01*
X90753476Y-76461952D01*
X90801095Y-76509571D01*
X90848714Y-76604809D01*
X90848714Y-76842904D01*
X90801095Y-76938142D01*
X90753476Y-76985761D01*
X90658238Y-77033380D01*
X90372523Y-77033380D01*
X90277285Y-76985761D01*
X90229666Y-76938142D01*
X175383142Y-153542666D02*
X175430761Y-153590285D01*
X175478380Y-153733142D01*
X175478380Y-153828380D01*
X175430761Y-153971238D01*
X175335523Y-154066476D01*
X175240285Y-154114095D01*
X175049809Y-154161714D01*
X174906952Y-154161714D01*
X174716476Y-154114095D01*
X174621238Y-154066476D01*
X174526000Y-153971238D01*
X174478380Y-153828380D01*
X174478380Y-153733142D01*
X174526000Y-153590285D01*
X174573619Y-153542666D01*
X174573619Y-153161714D02*
X174526000Y-153114095D01*
X174478380Y-153018857D01*
X174478380Y-152780761D01*
X174526000Y-152685523D01*
X174573619Y-152637904D01*
X174668857Y-152590285D01*
X174764095Y-152590285D01*
X174906952Y-152637904D01*
X175478380Y-153209333D01*
X175478380Y-152590285D01*
X158111142Y-153542666D02*
X158158761Y-153590285D01*
X158206380Y-153733142D01*
X158206380Y-153828380D01*
X158158761Y-153971238D01*
X158063523Y-154066476D01*
X157968285Y-154114095D01*
X157777809Y-154161714D01*
X157634952Y-154161714D01*
X157444476Y-154114095D01*
X157349238Y-154066476D01*
X157254000Y-153971238D01*
X157206380Y-153828380D01*
X157206380Y-153733142D01*
X157254000Y-153590285D01*
X157301619Y-153542666D01*
X158206380Y-152590285D02*
X158206380Y-153161714D01*
X158206380Y-152876000D02*
X157206380Y-152876000D01*
X157349238Y-152971238D01*
X157444476Y-153066476D01*
X157492095Y-153161714D01*
X276736761Y-177252571D02*
X276879619Y-177300190D01*
X276927238Y-177347809D01*
X276974857Y-177443047D01*
X276974857Y-177585904D01*
X276927238Y-177681142D01*
X276879619Y-177728761D01*
X276784380Y-177776380D01*
X276403428Y-177776380D01*
X276403428Y-176776380D01*
X276736761Y-176776380D01*
X276832000Y-176824000D01*
X276879619Y-176871619D01*
X276927238Y-176966857D01*
X276927238Y-177062095D01*
X276879619Y-177157333D01*
X276832000Y-177204952D01*
X276736761Y-177252571D01*
X276403428Y-177252571D01*
X277546285Y-177776380D02*
X277451047Y-177728761D01*
X277403428Y-177681142D01*
X277355809Y-177585904D01*
X277355809Y-177300190D01*
X277403428Y-177204952D01*
X277451047Y-177157333D01*
X277546285Y-177109714D01*
X277689142Y-177109714D01*
X277784380Y-177157333D01*
X277832000Y-177204952D01*
X277879619Y-177300190D01*
X277879619Y-177585904D01*
X277832000Y-177681142D01*
X277784380Y-177728761D01*
X277689142Y-177776380D01*
X277546285Y-177776380D01*
X278451047Y-177776380D02*
X278355809Y-177728761D01*
X278308190Y-177681142D01*
X278260571Y-177585904D01*
X278260571Y-177300190D01*
X278308190Y-177204952D01*
X278355809Y-177157333D01*
X278451047Y-177109714D01*
X278593904Y-177109714D01*
X278689142Y-177157333D01*
X278736761Y-177204952D01*
X278784380Y-177300190D01*
X278784380Y-177585904D01*
X278736761Y-177681142D01*
X278689142Y-177728761D01*
X278593904Y-177776380D01*
X278451047Y-177776380D01*
X279070095Y-177109714D02*
X279451047Y-177109714D01*
X279212952Y-176776380D02*
X279212952Y-177633523D01*
X279260571Y-177728761D01*
X279355809Y-177776380D01*
X279451047Y-177776380D01*
X280308190Y-177776380D02*
X279736761Y-177776380D01*
X280022476Y-177776380D02*
X280022476Y-176776380D01*
X279927238Y-176919238D01*
X279832000Y-177014476D01*
X279736761Y-177062095D01*
M02*
